<svg width="714" height="457" fill="none" xmlns="http://www.w3.org/2000/svg"><path d="M652.989 324.24H61.491c-26.827 0-48.575 21.748-48.575 48.575v24.677c0 26.828 21.748 48.576 48.575 48.576h591.498c26.827 0 48.576-21.748 48.576-48.576v-24.677c0-26.827-21.749-48.575-48.576-48.575z" fill="#F0F5F7"/><path d="M589.667 208.377H124.813c-26.826 0-48.574 21.748-48.574 48.575v24.679c0 26.826 21.748 48.574 48.574 48.574h464.854c26.826 0 48.576-21.748 48.576-48.574v-24.679c0-26.827-21.75-48.575-48.576-48.575z" fill="#F0F5F7"/><path d="M621.604 91.08H92.876c-26.827 0-48.575 21.749-48.575 48.576v24.677c0 26.828 21.748 48.576 48.575 48.576h528.728c26.828 0 48.576-21.748 48.576-48.576v-24.677c0-26.827-21.748-48.576-48.576-48.576" fill="#F0F5F7"/><path d="M594.197 23.477H175.04c-26.828 0-48.575 21.748-48.575 48.576v24.678c0 26.826 21.747 48.574 48.575 48.574h419.157c26.83 0 48.576-21.748 48.576-48.574V72.053c0-26.828-21.746-48.576-48.576-48.576z" fill="#F0F5F7"/><path d="M376.432 445.355h109.615V237.94H376.432v207.415z" fill="#DCE8EF"/><path d="M474.66 436.263v-2h-84.841v-48.248h82.841v50.248h2v-2 2h2v-54.248h-90.841v56.248h90.841v-2h-2M474.66 368.215v-2h-84.841v-48.248h82.841v50.248h2v-2 2h2v-54.248h-90.841v56.248h90.841v-2h-2M474.66 300.168v-2h-84.841v-48.249h82.841v50.249h2v-2 2h2V245.92h-90.841v56.248h90.841v-2h-2" fill="#F0F5F7"/><path d="M446.391 397.332h-30.303v-4.444h30.303v4.444zM446.391 327.639h-30.303v-4.444h30.303v4.444zM416.088 257.948h30.303v-4.445h-30.303v4.445z" fill="#F0F5F7"/><path d="M708.575 456.364H5.813a4.856 4.856 0 0 1-4.857-4.857v-1.297a4.856 4.856 0 0 1 4.857-4.855h702.762a4.856 4.856 0 0 1 4.856 4.855v1.297a4.856 4.856 0 0 1-4.856 4.857M151.507 29.55V8.31a4.283 4.283 0 0 1 4.285-4.285H596.58a4.283 4.283 0 0 1 4.284 4.286v15.621a48.866 48.866 0 0 0-6.667-.455H175.04a48.357 48.357 0 0 0-23.533 6.072z" fill="#DCE8EF"/><path d="M596.58 267.4H486.047v-29.46H376.432v29.46h-220.64a4.285 4.285 0 0 1-4.285-4.287v-16.036c5.148-1.592 7.889-3.51 7.889-3.51s.573-1.107.779-2.827a9.487 9.487 0 0 0-.779-5.08l-6.553 1.271-1.336-.239V216.36a35.853 35.853 0 0 0 5.882 3.244l2.104-6.695h441.371v50.204a4.285 4.285 0 0 1-4.284 4.287M600.864 212.909H159.493l4.41-14.032c-11.552-9.83-7.332-31.786-11.348-42.396a37.511 37.511 0 0 0-1.048-2.453v-11.781c.862.189 1.553.312 1.902.312a.95.95 0 0 0 .116-.007c.346-.029 1.251-.408 2.451-1.131a48.383 48.383 0 0 0 19.064 3.884h419.157c2.262 0 4.488-.154 6.667-.453v68.057z" fill="#CFDFE8"/><path d="M594.197 145.305H175.04a48.383 48.383 0 0 1-19.064-3.884c2.776-1.67 7.131-5.184 9.767-10.49 3.624-7.202 4.916-17.63 5.014-18.574 3.126 0 5.338-1.306 7.143-3.784-1.011-.028-1.764-.924-2.287-1.789-1.084-1.792-1.808-3.787-2.886-5.584-2.642-4.392-7.618-7.363-12.398-8.857-2.733-.854-5.733-1.298-8.676-1.298h-.146V29.55a48.357 48.357 0 0 1 23.533-6.072h419.157c2.262 0 4.488.155 6.667.455v120.92a49.027 49.027 0 0 1-6.667.453zm-426.518-33.394-.068-.022.068.022zm-.114-.035-.096-.029.096.029zm-.152-.048c-3.41-1.065-7.356-3.011-9.093-3.009 1.739 0 5.683 1.944 9.093 3.009zm-9.32-2.997z" fill="#CFDFE8"/><path d="M486.047 267.4h-9.387v-21.48h-90.841v21.48h-9.387v-29.46h109.615v29.46zm-13.387 0h-82.841v-17.481h82.841V267.4zm-56.572-13.897v4.445h30.303v-4.445h-30.303z" fill="#BED3E0"/><path d="M476.66 267.4h-4v-17.481h-82.841V267.4h-4v-21.48h90.841v21.48" fill="#CFDFE8"/><path d="M416.088 257.948h30.303v-4.445h-30.303v4.445z" fill="#CFDFE8"/><path d="M595.061 261.735H157.309a4.285 4.285 0 0 1-4.284-4.286V4.425A4.286 4.286 0 0 1 157.309.14h437.752a4.287 4.287 0 0 1 4.286 4.286V257.45a4.286 4.286 0 0 1-4.286 4.286" fill="#DCE8EF"/><path d="M169.192 47.17a.667.667 0 0 1-.667-.666V23.477c0-.368.298-.666.667-.666h348.076c.369 0 .667.298.667.666v23.027a.667.667 0 0 1-.667.667H169.192z" fill="#F9FBFC"/><path d="M517.268 22.144H169.192c-.736 0-1.333.597-1.333 1.333v23.027c0 .736.597 1.333 1.333 1.333h348.076c.737 0 1.333-.597 1.333-1.333V23.477c0-.736-.596-1.333-1.333-1.333zm0 1.333v23.027H169.192V23.477h348.076z" fill="#C3D3DD"/><path d="M198.1 38.49v-7h165.768v7H198.1zM191.543 34.99a6.822 6.822 0 1 1-13.643 0 6.822 6.822 0 0 1 13.643 0z" fill="#DCE8EF"/><path d="M524.769 47.17a.666.666 0 0 1-.666-.666V23.477c0-.368.298-.666.666-.666h58.411c.368 0 .667.298.667.666v23.027a.667.667 0 0 1-.667.667h-58.411z" fill="#F9FBFC"/><path d="M583.18 22.144h-58.411c-.737 0-1.333.597-1.333 1.333v23.027c0 .736.596 1.333 1.333 1.333h58.411c.736 0 1.333-.597 1.333-1.333V23.477c0-.736-.597-1.333-1.333-1.333zm0 1.333v23.027h-58.411V23.477h58.411z" fill="#C3D3DD"/><path d="M169.192 242.729V61.26a2.84 2.84 0 0 1 2.837-2.839h408.312a2.84 2.84 0 0 1 2.839 2.839v181.469a2.839 2.839 0 0 1-2.839 2.839H172.029a2.838 2.838 0 0 1-2.837-2.839" fill="url(#a)"/><path d="M181.509 170.94V71.479a1.92 1.92 0 0 1 1.92-1.922h178.518c1.061 0 1.921.86 1.921 1.922v99.461a1.92 1.92 0 0 1-1.921 1.921H183.429a1.92 1.92 0 0 1-1.92-1.921" fill="url(#b)"/><path d="M181.509 223.665h73.755v-1.512h-73.755v1.512zM181.509 214.043h73.755v-1.512h-73.755v1.512zM181.509 204.421h182.359v-1.511H181.509v1.511zM181.509 194.8h182.359v-1.511H181.509v1.511zM181.509 185.179h182.359v-1.512H181.509v1.512zM388.503 223.665h32.954v-1.512h-32.954v1.512zM388.503 214.043h32.954v-1.512h-32.954v1.512zM388.503 204.421h81.48v-1.511h-81.48v1.511zM388.503 194.8h81.48v-1.511h-81.48v1.511zM388.503 185.179h81.48v-1.512h-81.48v1.512z" fill="#B0B7F7"/><path d="M390.681 69.557h77.124c1.203 0 2.176.976 2.176 2.179v98.948a2.175 2.175 0 0 1-2.176 2.177h-77.124a2.176 2.176 0 0 1-2.178-2.177V71.736c0-1.203.974-2.179 2.178-2.179z" fill="#EC827D"/><path d="M491.56 69.557h77.125c1.203 0 2.176.976 2.176 2.179v42.451a2.176 2.176 0 0 1-2.176 2.177H491.56a2.178 2.178 0 0 1-2.177-2.177V71.736a2.18 2.18 0 0 1 2.177-2.179z" fill="#56548C"/><path d="M491.56 122.831h77.125c1.203 0 2.176.974 2.176 2.177v42.451a2.176 2.176 0 0 1-2.176 2.177H491.56a2.178 2.178 0 0 1-2.177-2.177v-42.451c0-1.203.976-2.177 2.177-2.177z" fill="#FBD15B"/><path d="M491.56 176.103h77.125c1.203 0 2.176.976 2.176 2.177v42.451a2.177 2.177 0 0 1-2.176 2.178H491.56a2.179 2.179 0 0 1-2.177-2.178V178.28c0-1.201.976-2.177 2.177-2.177z" fill="#BEE1F4"/><path d="M168.147 10.8a4.135 4.135 0 1 1-8.273.001 4.135 4.135 0 0 1 8.273-.001" fill="#606BF1"/><path d="M183.124 10.8a4.135 4.135 0 1 1-8.27.001 4.135 4.135 0 0 1 8.27-.001" fill="#FBD15B"/><path d="M198.1 10.8a4.135 4.135 0 1 1-8.271 0 4.136 4.136 0 0 1 8.271 0M530.123 77.29c8.656 0 15.672 7.015 15.672 15.671 0 8.655-7.016 15.672-15.672 15.672-8.655 0-15.672-7.017-15.672-15.672 0-8.656 7.017-15.672 15.672-15.672z" fill="#EC827D"/><path d="m539.283 91.02-12.059-6.963c-1.495-.862-3.363.216-3.363 1.942v13.924c0 1.725 1.868 2.804 3.363 1.941l12.059-6.963c1.493-.862 1.493-3.018 0-3.881z" fill="#F9FBFC"/><path d="M223.977 189.544c-.696 10.932.808 21.753 2.055 33.381.073.624.111 1.284.184 1.944 1.137 15.554-2.239 37.82-2.239 37.82.624.147 1.212.292 1.835.403 8.915 1.981 17.681 2.936 25.605 3.376 1.944.109 3.815.183 5.612.22 12.032.256 21.459-.66 25.531-1.175 1.395-.182 2.165-.293 2.165-.293s1.1-67.496 2.458-73.695c-20.47 1.651-47.284-9.684-53.52-29.456-5.576 6.712-8.842 14.892-9.686 27.475" fill="#112B46"/><path d="M272.235 82.461c-.708.46-4.303 1.25-5.016 1.628 2.382 1.874 7.342 5.274 10.844 9.98 7.6 10.21 12.521 20.072 10.744 28.83 9.606 4.297 19.984 6.438 30.206 4.922 23.007-3.522 35.738-15.078 35.738-15.078s6.029-1.044 9.724-3.224c3.698-2.182 4.114-4.218 4.942-6.495.831-2.277.024-3.932-1.948-3.45-1.973.483-9.99 4.149-9.99 4.149s3.137-3.854 2.008-5.19c-1.142-1.284-4.443 2.579-6.127 4.127-1.753 1.503-2.344 3.896-2.344 3.896s-21.049 7.563-30.651 6.668c-9.63-.877-24.656-5.769-34.878-16.817-4.587-4.96-9.003-10.278-13.252-13.946" fill="url(#c)"/><path d="M281.391 67.004c-.511-.563-1.054-1.1-1.55-1.673-.984-1.138-1.7-2.452-1.749-3.98-.051-1.523.431-3.023.501-4.548.156-3.228-1.208-6.182-3.221-8.631a20.617 20.617 0 0 0-3.665-3.467c-1.956-1.44-4.123-2.697-6.476-3.31-5.514-1.438-9.514 2.052-9.968 1.976-3.372-.566-8.303.242-10.99 2.052-2.921 1.969-4.957 4.889-6.124 8.186-1.41 3.991-1.449 8.136-1.732 12.308-.112 1.632-.302 3.328-1.181 4.708-.911 1.428-2.44 2.335-3.548 3.615-1.763 2.036-2.26 4.892-1.809 7.493.468 2.698 1.678 4.948-.443 7.336-1.128 1.268-2.595 2.207-3.684 3.508-2.528 3.019-2.665 7.776.445 10.422 3.606 3.062 8.387 1.056 11.344-1.84 1.348-1.32 2.511-2.815 3.803-4.188 2.464-2.622 5.391-4.788 8.533-6.538 2.084-1.16 4.334-2.322 5.084-4.762.832-2.706-1.574-4.907-1.165-6.596.5-2.042 2.977-2.822 4.615-4.596 1.617-1.806 1.17-4.226 2.3-9.96 1.132-5.736 4.089-10.036 4.089-10.036 4.139 3.478 8.567 4.272 9.595 9.117 1.046 4.877-.894 12.708-1.991 15.613l-6.433.644.006 3.078c.402.104 2.482.778 5.452 3.072.474.364 1.532.053 2.031-.071a8.86 8.86 0 0 0 2.876-1.284c1.596-1.11 2.733-2.963 2.739-4.937a7.466 7.466 0 0 1 1.281-4.126c.82-1.217 2.261-2.03 2.789-3.44.483-1.282.016-2.744-.71-3.838-.31-.466-.668-.894-1.044-1.307" fill="url(#d)"/><path d="M280.429 95.56c-3.5-4.705-6.617-7.68-9-9.553-2.97-2.294-5.05-2.992-5.452-3.096l.004 1.452s-3.87 3.25-11.02 1.308c-.156.602-.442 1.197-.976 1.81-1.417 1.63-3.568 2.503-5.362 3.639-3.563 2.25-6.899 4.77-9.414 8.197-2.394 3.264-4.042 7.086-4.696 11.084-.668 4.08-1.042 7.958-.592 12.104.407 3.727 1.263 7.379 2.039 11.04 1.555 7.334 2.276 14.643-1.124 21.603-.407.831-.855 1.64-1.339 2.429-8.784 14.316-9.358 29.952-9.358 29.952 23.206 6.85 46.754 7.514 63.044 3.996-.398-5.245-2.172-23.878-2.927-27.394a33.263 33.263 0 0 1-.688-5.428c-15.411-5.688-28.607-18.602-37.297-31.959-4.18-6.436-11.342-22.399-2.858-28.596.455-.31.896-.572 1.422-.839 11.02-5.649 17.228 9.855 24.85 23.714 4.159 7.554 10.184 13.582 16.368 18.07 1.095-4.352 2.41-8.406 3.502-11.606.276-.76.452-1.544.596-2.311 1.776-8.757-2.122-19.405-9.722-29.616" fill="#F0F5F7"/><path d="M243.413 98.148c-8.484 6.197-1.322 22.16 2.858 28.596 8.69 13.357 21.886 26.271 37.297 31.959a46.853 46.853 0 0 0 12.301 2.878c24.35 2.288 40.299-6.269 40.299-6.269s6.395.443 10.713-.827c4.319-1.27 5.252-3.226 6.684-5.348 1.431-2.122 1.055-3.988-1.085-4.002-2.139-.018-11.261 1.702-11.261 1.702s4.22-3.17 3.382-4.806c-.818-1.604-5.157 1.509-7.297 2.644-2.192 1.124-3.367 3.392-3.367 3.392s-23.401 2.349-32.989-.982c-4.4-1.534-9.683-4.21-14.895-7.992-6.184-4.488-12.209-10.516-16.368-18.07-7.622-13.859-13.83-29.363-24.85-23.714-.526.267-.967.528-1.422.839" fill="url(#e)"/><path d="M265.971 80.275s5.889.052 6.652-.743c1.276-1.328 2.818-11.055 1.772-15.932-1.028-4.845-5.456-5.639-9.595-9.117 0 0-2.957 4.3-4.089 10.036-1.13 5.734-.683 8.154-2.3 9.96-1.638 1.774-4.115 2.554-4.615 4.596-.409 1.689 1.997 3.89 1.165 6.596 7.196 2.102 11.02-1.308 11.02-1.308l-.01-4.088" fill="url(#f)"/><path d="M429.243 93.701c-15.19 0-27.506 12.318-27.506 27.511 0 15.189 12.316 27.507 27.506 27.507 15.189 0 27.506-12.318 27.506-27.507 0-15.193-12.317-27.51-27.506-27.51zm0 2.114c14.002 0 25.393 11.393 25.393 25.397 0 14.003-11.391 25.393-25.393 25.393s-25.394-11.39-25.394-25.393c0-14.004 11.392-25.397 25.394-25.397z" fill="#FBD15B"/><path fill-rule="evenodd" clip-rule="evenodd" d="M446.36 130.649c-2.209 4.002-5.749 7.163-10.061 8.83 1.036-1.848 2.257-4.724 3.058-8.83h7.003zm-6.153-8.71h8.582c-.098 2.586-.734 5.021-1.733 7.257h-7.465c.338-2.129.578-4.517.616-7.257zm-1.45-1.454h-8.693v-7.258h8.092a49.96 49.96 0 0 1 .601 7.258zm-8.693 1.454h8.687a49.315 49.315 0 0 1-.612 7.257h-8.075v-7.257zm7.824 8.71c-.892 4.564-2.304 7.634-3.392 9.428-1.42.392-2.907.603-4.432.674v-10.102h7.824zm-9.276 0v10.127a19.464 19.464 0 0 1-4.408-.665c-1.093-1.791-2.516-4.87-3.412-9.462h7.82zm-9.289 0c.809 4.147 2.05 7.047 3.092 8.892a19.606 19.606 0 0 1-10.296-8.892h7.204zm-.239-1.453h-7.66c-1.007-2.236-1.649-4.671-1.744-7.257h8.792c.039 2.74.273 5.128.612 7.257zm-.615-8.711h-8.776a19.361 19.361 0 0 1 1.678-7.258h7.697a49.7 49.7 0 0 0-.599 7.258zm-6.372-8.706a19.63 19.63 0 0 1 10.275-8.88c-1.036 1.865-2.256 4.774-3.063 8.88h-7.212zm12.058-9.45a19.484 19.484 0 0 1 4.457-.68v10.13h-7.849c.886-4.559 2.302-7.626 3.392-9.45zm-3.631 10.898h8.088v7.258h-8.695c.038-2.726.264-5.128.607-7.258zm.012 15.969a50.16 50.16 0 0 1-.611-7.257h8.687v7.257h-8.076zm9.528-17.417v-10.135c1.547.071 3.045.315 4.481.719 1.082 1.828 2.487 4.881 3.372 9.416h-7.853zm6.272-8.818c4.3 1.667 7.823 4.828 10.035 8.818h-7.007c-.791-4.064-2.001-6.948-3.028-8.818zm3.276 10.266h7.485a19.599 19.599 0 0 1 1.708 7.258h-8.59c-.042-2.726-.264-5.133-.603-7.258z" fill="#FBD15B"/><path d="M550.901 189.676v22.093h-41.557v-22.093l19.357 15.428a2.252 2.252 0 0 0 2.827 0l19.373-15.428z" fill="#878CF0"/><path d="m546.685 187.243-16.562 13.192-16.563-13.192h33.125z" fill="#878CF0"/><path d="M530.117 145.444a5.753 5.753 0 0 1-5.752-5.751 5.755 5.755 0 0 1 5.752-5.762 5.755 5.755 0 0 1 5.752 5.762 5.753 5.753 0 0 1-5.752 5.751zm0-16.644c-6.014 0-10.882 4.879-10.882 10.893 0 10.788 10.882 23.974 10.882 23.974s10.894-13.186 10.894-23.974c0-6.014-4.879-10.893-10.894-10.893z" fill="#EC827D"/><path d="M235.253 356.172c-.668-2.42.498-5.728 2.184-7.459 1.643-1.684 3.668-2.258 5.044-1.437-.337-2.939 1.095-5.901 3.334-7.724 2.669-2.172 4.973-1.167 5.116-1.1 1.104-3.405 3.7-6.357 7.012-7.664 3.478-1.372 5.597.248 5.908.492.233-.257 2.277-2.391 4.836-2.621 2.206-.199 4.673 1.674 4.186 3.853 1.218.349 2.867 2.127 2.798 4.015-.062 1.629-1.063 3.322-2.598 4.529 2.07 1.509 2.336 4.452 1.027 6.837-1.211 2.207-3.581 3.628-6.04 3.543.157.211 1.357 1.931.815 4.244-.431 1.839-1.758 3.38-3.544 4.143.15.218 1.394 2.104.809 4.477-.464 1.884-1.883 3.413-3.776 4.084a6.202 6.202 0 0 1-.213 5.64c-1.064 1.893-3.071 3.133-5.224 3.081.845 1.662.434 3.699-.82 4.772-1.032.882-2.536.992-3.682.099.232 1.583-.413 3.172-1.554 3.901-.942.6-2.11.514-2.979-.297-.047 1.011-.468 1.943-1.129 2.411-.878.622-3.219.56-4.204-1.126-.939.91-2.788.711-3.622-.116-.978-.97-.926-2.736-.916-2.92-.858.93-2.001 1.015-2.785.139-.805-.903-1.015-2.627-.465-4.081-1.184.234-2.284-.439-2.792-1.83-.639-1.753-.182-4.357 1.15-6.026-2.929-1.647-3.453-5.544-2.752-8.499.699-2.941 2.376-5.599 4.876-7.36" fill="url(#g)"/><path d="M238.46 371.192c.813 1.109 1.704 2.167 2.66 3.083.463.482.968.908 1.457 1.332.31.268.643.521.97.769a74.732 74.732 0 0 1 3.421-10.883c-.347-.406-.704-.814-1.023-1.24a28.986 28.986 0 0 1-1.173-1.645 29.196 29.196 0 0 1-2.024-3.64 25.37 25.37 0 0 1-1.476-4.141c-.384-1.462-.675-3.002-.744-4.654.121 1.624.459 3.126.887 4.543a24.55 24.55 0 0 0 1.592 4.001 28.594 28.594 0 0 0 2.113 3.49c.376.54.8 1.064 1.207 1.568.288.356.606.698.917 1.037a74.673 74.673 0 0 1 4.615-9.299 26.767 26.767 0 0 1-1.123-2.964 26.434 26.434 0 0 1-1.161-7.132 23.857 23.857 0 0 1 .19-3.908 22.932 22.932 0 0 0-.034 3.836c.084 1.235.245 2.442.492 3.59.246 1.148.56 2.272.934 3.321.318.893.692 1.76 1.096 2.592 2.224-3.664 4.723-7.191 7.552-10.416a22.485 22.485 0 0 1-.308-5.605c.136-1.99 1.175-6.134 1.175-6.134s-.928 4.12-1.015 6.086c-.08 1.866.074 3.656.416 5.345 3.042-3.435 6.366-6.656 9.996-9.471a67.518 67.518 0 0 0-6.404 5.918c1.291.574 2.658 1.037 4.051 1.44 1.441.413 4.387 1.104 4.387 1.104s-2.988-.592-4.459-.958c-1.448-.358-2.873-.778-4.233-1.32-3.048 3.163-5.763 6.658-8.194 10.31.826.169 1.659.325 2.504.441.962.135 1.934.257 2.907.352 1.947.193 3.908.352 5.867.457a157.607 157.607 0 0 1-5.946-.148 86.315 86.315 0 0 1-2.972-.184 45.092 45.092 0 0 1-2.756-.312 73.804 73.804 0 0 0-5.169 9.483c2.128.431 4.356.587 6.577.655 2.371.073 4.76.073 7.131.026-2.376.142-4.779.246-7.176.284-2.279.039-4.579-.002-6.817-.33a73.716 73.716 0 0 0-3.686 10.356c.982-.019 1.972-.06 2.958-.151a73.484 73.484 0 0 0 3.56-.407c2.37-.334 4.746-.733 7.092-1.208-2.334.57-4.707 1.072-7.087 1.523a84.159 84.159 0 0 1-3.585.591 47.348 47.348 0 0 1-3.119.325c-2.047 8.517-2.731 16.875-2.107 25.62l-1.58.129c-.358-7.373.142-14.32 1.572-21.562-.372-.304-.752-.611-1.104-.939-.482-.453-.981-.903-1.437-1.415-.94-.973-1.811-2.089-2.599-3.25a24.897 24.897 0 0 1-2.125-3.851c-.615-1.383-1.145-2.861-1.481-4.481.382 1.584.953 3.016 1.602 4.348a24.072 24.072 0 0 0 2.219 3.693" fill="url(#h)"/><path d="M194.232 370.781c-2.167-1.262-3.645-4.445-3.647-6.862-.001-2.351 1.048-4.176 2.607-4.552-2.295-1.867-3.34-4.986-3.011-7.855.394-3.419 2.743-4.309 2.892-4.361-1.588-3.208-1.792-7.132-.334-10.382 1.529-3.412 4.178-3.733 4.57-3.774-.012-.35-.04-3.302 1.63-5.254 1.44-1.684 4.513-2.065 5.688-.168 1.117-.6 3.536-.481 4.805.919 1.096 1.209 1.561 3.121 1.307 5.056 2.534-.365 4.781 1.555 5.51 4.176.675 2.424-.03 5.097-1.848 6.753.26.043 2.319.436 3.547 2.47.975 1.616 1.104 3.645.357 5.44.262.05 2.468.53 3.707 2.638.983 1.671 1.037 3.758.152 5.559a6.21 6.21 0 0 1 3.787 4.185c.561 2.098-.01 4.387-1.587 5.855 1.767.599 2.893 2.343 2.745 3.988-.121 1.352-1.121 2.481-2.564 2.641 1.271.971 1.92 2.559 1.612 3.879-.253 1.087-1.15 1.84-2.34 1.867.674.756 1.023 1.716.878 2.514-.194 1.058-1.914 2.648-3.795 2.131-.037 1.308-1.499 2.455-2.673 2.445-1.379-.009-2.575-1.309-2.696-1.448.037 1.266-.723 2.124-1.895 2.044-1.208-.082-2.561-1.17-3.184-2.596-.684.995-1.941 1.283-3.275.643-1.684-.809-3.174-2.991-3.386-5.116-3.247.867-6.346-1.555-7.907-4.16-1.555-2.593-2.209-5.667-1.652-8.675" fill="url(#i)"/><path d="M207.019 379.292c1.356.224 2.732.359 4.057.347.669.024 1.327-.027 1.972-.063.409-.025.824-.077 1.232-.128a74.316 74.316 0 0 1-5.153-10.177c-.534-.05-1.074-.091-1.599-.174a28.928 28.928 0 0 1-1.989-.357 29.356 29.356 0 0 1-3.991-1.192 25.534 25.534 0 0 1-3.948-1.932c-1.295-.776-2.579-1.677-3.785-2.811 1.222 1.078 2.513 1.916 3.809 2.632a24.867 24.867 0 0 0 3.935 1.752c1.302.447 2.668.779 3.949 1.02.645.123 1.316.204 1.96.279.453.053.921.077 1.381.103a74.403 74.403 0 0 1-3.194-9.879 26.672 26.672 0 0 1-2.874-1.336 27.075 27.075 0 0 1-2.984-1.899 26.128 26.128 0 0 1-2.829-2.393 23.993 23.993 0 0 1-2.593-2.931 22.905 22.905 0 0 0 2.654 2.77 25.57 25.57 0 0 0 2.86 2.224c.976.65 1.988 1.236 2.988 1.724a25.55 25.55 0 0 0 2.595 1.089c-.967-4.176-1.641-8.443-1.872-12.728a22.488 22.488 0 0 1-4.133-3.796c-1.294-1.519-3.446-5.209-3.446-5.209s2.215 3.597 3.526 5.062a22.08 22.08 0 0 0 4.03 3.536c-.222-4.582-.094-9.21.539-13.76a67.542 67.542 0 0 0-.449 8.707c1.324-.489 2.626-1.113 3.904-1.8 1.321-.709 3.91-2.273 3.91-2.273s-2.553 1.664-3.858 2.43c-1.287.752-2.6 1.45-3.952 2.012.028 4.391.525 8.788 1.337 13.102a40 40 0 0 0 2.101-1.435 70.891 70.891 0 0 0 2.326-1.779 132.166 132.166 0 0 0 4.517-3.77 152.01 152.01 0 0 1-4.359 4.046 82.862 82.862 0 0 1-2.254 1.946 45.06 45.06 0 0 1-2.19 1.702 73.935 73.935 0 0 0 2.924 10.396c1.824-1.178 3.527-2.622 5.164-4.126a142.715 142.715 0 0 0 5.122-4.962 163.558 163.558 0 0 1-4.938 5.216c-1.604 1.62-3.277 3.198-5.108 4.526a73.7 73.7 0 0 0 4.596 9.985 41.019 41.019 0 0 0 2.01-2.173 72.796 72.796 0 0 0 2.265-2.779 122.648 122.648 0 0 0 4.231-5.817 138.962 138.962 0 0 1-4.007 6.037 81.765 81.765 0 0 1-2.155 2.928 45.245 45.245 0 0 1-2.004 2.412c4.486 7.527 9.834 13.984 16.388 19.805l-1.038 1.196c-5.408-5.024-9.904-10.346-13.938-16.526-.478.041-.966.086-1.446.097-.662.015-1.334.04-2.018-.008-1.352-.04-2.753-.229-4.129-.511a24.907 24.907 0 0 1-4.211-1.27c-1.405-.562-2.817-1.248-4.189-2.172 1.379.866 2.788 1.49 4.184 1.99 1.393.5 2.8.87 4.167 1.095" fill="url(#j)"/><path d="M249.919 359.409c1.582-2.262 1.842-6.344.993-8.99-.828-2.575-2.453-4.15-4.045-3.928 1.489-2.974 1.366-6.81.046-9.818-1.573-3.584-4.086-3.605-4.245-3.602.355-4.156-.839-8.536-3.348-11.502-2.635-3.116-5.228-2.392-5.609-2.28-.112-.385-1.127-3.63-3.379-5.092-1.94-1.258-4.952-.432-5.38 2.122-1.257-.204-3.48.906-4.173 2.953-.599 1.767-.362 4.048.561 6.064-2.501.627-3.925 3.637-3.685 6.803.224 2.929 1.826 5.568 4.112 6.645-.23.151-2.016 1.415-2.448 4.139-.344 2.164.253 4.438 1.584 6.102-.226.16-2.123 1.579-2.539 4.388-.329 2.228.355 4.535 1.82 6.148-1.496 1.542-2.264 3.811-2.068 6.115.215 2.524 1.557 4.799 3.549 5.767-1.44 1.37-1.881 3.737-1.162 5.477.59 1.432 1.925 2.264 3.333 1.853-.849 1.578-.895 3.58-.141 4.899.62 1.087 1.725 1.548 2.848 1.096-.363 1.101-.351 2.293.066 3.108.554 1.08 2.724 2.125 4.304.796.495 1.415 2.268 2.079 3.363 1.595 1.287-.571 1.947-2.478 2.012-2.679.411 1.399 1.424 2.033 2.495 1.469 1.1-.58 1.982-2.318 2.064-4.13.989.813 2.268.617 3.29-.624 1.29-1.567 1.916-4.56 1.364-6.974 3.344-.365 5.39-4.272 5.931-7.756.54-3.469.071-7.1-1.513-10.164" fill="url(#k)"/><path d="M240.956 373.904c-1.191.795-2.431 1.501-3.675 2.024-.617.296-1.252.508-1.868.729-.39.14-.798.251-1.198.362.701-4.364 1.113-8.79 1.234-13.23.479-.269.971-.537 1.434-.837a28.194 28.194 0 0 0 1.736-1.199 29.844 29.844 0 0 0 3.313-2.921 28.108 28.108 0 0 0 3.013-3.713c.939-1.376 1.822-2.882 2.551-4.61-.764 1.674-1.676 3.115-2.635 4.423a26.917 26.917 0 0 1-3.065 3.511 28.838 28.838 0 0 1-3.335 2.717 26.79 26.79 0 0 1-1.736 1.1c-.406.243-.836.456-1.256.671.075-4.042-.09-8.09-.497-12.108a28.964 28.964 0 0 0 2.219-2.627 31.583 31.583 0 0 0 2.122-3.285 31.97 31.97 0 0 0 1.803-3.77 30.637 30.637 0 0 0 1.393-4.257 29.387 29.387 0 0 1-1.506 4.108 30.995 30.995 0 0 1-1.892 3.592 29.869 29.869 0 0 1-2.19 3.1c-.649.8-1.338 1.548-2.044 2.241-.568-4.962-1.441-9.906-2.737-14.69a27.988 27.988 0 0 0 2.531-5.831c.673-2.187 1.385-7.099 1.385-7.099s-.804 4.835-1.513 6.971a27.37 27.37 0 0 1-2.524 5.504c-1.41-5.108-3.162-10.123-5.359-14.845a86.449 86.449 0 0 1 3.492 9.35c-1.411 0-2.849-.156-4.288-.389-1.487-.241-4.461-.904-4.461-.904s2.976.787 4.468 1.095c1.47.304 2.945.534 4.408.604 1.522 4.818 2.608 9.833 3.369 14.882a35.456 35.456 0 0 1-2.472-.717 69.271 69.271 0 0 1-2.804-1.005 122.958 122.958 0 0 1-5.557-2.298 150.71 150.71 0 0 0 5.506 2.664c.926.426 1.863.828 2.798 1.215.874.363 1.76.679 2.648.977.572 4.156.884 8.359.93 12.564-2.121-.55-4.225-1.442-6.286-2.424a133.608 133.608 0 0 1-6.543-3.356 158.985 158.985 0 0 0 6.459 3.711c2.073 1.123 4.194 2.171 6.376 2.883.014 4.281-.246 8.561-.778 12.793a39.597 39.597 0 0 1-2.648-1.565 73.144 73.144 0 0 1-3.098-2.124 120.503 120.503 0 0 1-6.011-4.655 141.066 141.066 0 0 0 5.879 4.987c1 .805 2.028 1.584 3.048 2.332.886.649 1.805 1.25 2.725 1.828-1.541 10.056-4.268 19.292-8.348 28.318.556.358.835.535 1.393.891 3.288-7.692 5.618-15.339 7.214-23.739.462-.149.934-.296 1.388-.478.622-.254 1.261-.498 1.884-.827 1.252-.591 2.496-1.367 3.685-2.232a25.401 25.401 0 0 0 3.492-3.097c1.116-1.183 2.196-2.508 3.155-4.075-.987 1.507-2.084 2.763-3.212 3.876a24.395 24.395 0 0 1-3.515 2.884" fill="url(#l)"/><path d="m253.609 390.536-.6 11.056-.94 17.215-1.54 28.285h-38.293l-1.541-28.285-.939-17.215-.6-11.056h44.453z" fill="#C3D3DD"/><path d="m253.009 401.592-.124 2.216-.122 2.295-.694 12.704h-41.374l-.692-12.704-.124-2.295-.123-2.216h43.253" fill="#DCE8EF"/><path d="m252.885 403.808-.122 2.295h-42.76l-.124-2.295h43.006" fill="#C3D3DD"/><path d="m622.077 46.433-1.706-15.709L573.999 7.77l40.864 26.316 7.214 12.348" fill="#E3B453"/><path d="m573.999 7.77 28.389 40.8 12.475-14.485L573.999 7.77z" fill="#F4C159"/><path d="m622.077 46.433-10.825-8.156 3.611-4.192 7.214 12.348z" fill="#CFA44C"/><path d="m573.999 7.77 57.866 13.609-11.494 9.345-46.372-22.955z" fill="#F4C159"/><path d="M478.809 296.459h65.898v-3.743h-63.679l-30.653-56.013-3.283 1.796 31.717 57.96" fill="#BCBEC0"/><path d="M584.305 177.509s.874 5.816 4.387 11.239c3.511 5.421 11.428 13.387 13.616 14.068.884.268 4.021-1.152 7.447-2.947 1.122-.585 2.274-1.218 3.397-1.833a243.144 243.144 0 0 0 7.419-4.299l5.229-7.378c-2.12-10.7-5.901-18.723-11.716-26.314-5.807-7.601-18.78-3.033-23.501.614-4.732 3.646-7.304 9.366-6.278 16.85" fill="url(#m)"/><path d="M613.391 178.4c.154 4.777-2.998 6.579-3.63 7.389-.629.811 3.603 5.223 5.495 3.242 1.891-1.98-1.865-10.631-1.865-10.631z" fill="#EFA78B"/><path d="m495.02 418.935-2.34 11.246 15.437 2.657 3.555-12.873-16.652-1.03" fill="#FFC8AF"/><path d="m463.087 435.376-1.003 5.629 48.961 8.734.994-5.575s-43.4-8.243-48.126-8.671l-.826-.117z" fill="#C3D3DD"/><path d="M483.891 428.747a.755.755 0 0 1-.139-.388c-.983.377-2.001.765-3.041 1.168l3.462 4.795a.857.857 0 0 1-.194 1.193.872.872 0 0 1-.648.144.844.844 0 0 1-.527-.337l-3.589-4.958-.095-.24c-6.576 2.488-13.471 5.022-15.207 5.369 4.726.428 48.126 8.671 48.126 8.671l-1.547-12.954c-.067-.55-.597-.914-1.143-.807-11.49 2.248-15.481-2.753-16.566-4.691-.231-.41-.723-.58-1.162-.41-.506.195-1.23.475-2.116.819l3.422 4.738a.837.837 0 0 1-.192 1.174.886.886 0 0 1-.651.162.87.87 0 0 1-.541-.356l-3.571-4.956-.064-.132c-.797.306-1.688.649-2.633 1.016l3.572 4.954c.278.377.201.9-.194 1.175a.824.824 0 0 1-.649.161.794.794 0 0 1-.525-.353l-3.588-4.957" fill="url(#n)"/><path d="M482.804 435.322c.123.178.327.3.527.337a.872.872 0 0 0 .648-.144.857.857 0 0 0 .194-1.193l-3.462-4.795c-.535.197-1.055.397-1.591.597l.095.24 3.589 4.958M485.275 427.767c-.483.19-1.003.39-1.523.592a.755.755 0 0 0 .139.388l3.588 4.957a.794.794 0 0 0 .525.353.824.824 0 0 0 .649-.161.822.822 0 0 0 .194-1.175l-3.572-4.954M491.543 431.839a.87.87 0 0 0 .541.356.886.886 0 0 0 .651-.162.837.837 0 0 0 .192-1.174l-3.422-4.738c-.481.189-1.022.406-1.597.63l.064.132 3.571 4.956" fill="#C3D3DD"/><path d="M578.847 346.58c10.028.504 23.425 1.216 40.92 1.889 48.949 1.871 38.976-45.525 38.976-45.525l-46.778-.617s-69.549-1.028-84.201 8.326c-14.651 9.356-36.019 108.076-36.019 108.076l23.296 6.507s18.878-40.58 29.9-62.192c4.528-8.887 7.803-15.417 8.084-16.128.598-1.591 7.764-1.273 25.822-.336" fill="#404A54"/><path d="M610.473 302.311c.96.008 1.492.016 1.492.016l46.778.617s5.592 26.584-12.162 39.147c-17.67-4.275-28.202-22.206-37.476-38.294l1.368-1.486" fill="#0A2033"/><path d="M553.025 421.704v10.665h16.69v-10.253l-16.69-.412z" fill="#FFC8AF"/><path d="M553.024 346.916c-.28.711-3.555 7.241-8.083 16.128l3.872 58.567 4.211.093 16.691.412 4.602.113 4.53-75.649c-18.058-.937-25.224-1.255-25.823.336" fill="#2F3A44"/><path d="M524.724 442.857v5.718h49.735v-5.663s-44.175-.493-48.903-.085l-.832.03z" fill="#C3D3DD"/><path d="M544.039 432.676a.744.744 0 0 1-.204-.357c-.902.544-1.836 1.105-2.788 1.684l4.25 4.114c.34.323.34.867.016 1.207a.837.837 0 0 1-1.189.017l-4.404-4.252-.136-.22c-6.036 3.604-12.379 7.312-14.028 7.958 4.728-.408 48.903.085 48.903.085l-3.799-12.481c-.161-.531-.749-.795-1.267-.595-10.918 4.232-15.724.009-17.134-1.708a.934.934 0 0 0-1.215-.201l-1.939 1.178 4.2 4.064c.34.323.34.851.018 1.191a.892.892 0 0 1-.612.272.85.85 0 0 1-.595-.256l-4.387-4.251-.086-.118c-.73.441-1.547.934-2.414 1.462l4.387 4.251c.34.323.356.849.017 1.19a.824.824 0 0 1-.612.273.791.791 0 0 1-.578-.256l-4.404-4.251" fill="url(#o)"/><path d="M544.124 439.341a.837.837 0 0 0 1.189-.017.856.856 0 0 0-.016-1.207l-4.25-4.114c-.494.289-.97.578-1.463.866l.136.22 4.404 4.252M545.229 431.469c-.441.272-.918.56-1.394.85a.744.744 0 0 0 .204.357l4.404 4.251a.791.791 0 0 0 .578.256.824.824 0 0 0 .612-.273.822.822 0 0 0-.017-1.19l-4.387-4.251zM552.116 434.376a.85.85 0 0 0 .595.256.892.892 0 0 0 .612-.272.838.838 0 0 0-.018-1.191l-4.2-4.064c-.441.272-.934.579-1.462.902l.086.118 4.387 4.251" fill="#C3D3DD"/><path d="M525.893 289.229h27.599s41.633-6.717 49.735-11.696c3.013-1.85 8.177-7.52 13.509-13.92l-18.805-15.661c-3.292 5.22-6.287 9.467-7.484 9.936-3.275 1.235-34.299 18.541-37.891 18.541-3.592 0-20.732-.297-26.663 12.8" fill="#EFA78B"/><path d="m596.657 247.559 20.079 16.054c9.093-10.909 18.619-23.969 18.619-23.969l-28.474-17.176s-7.308 17.372-10.224 25.091" fill="url(#p)"/><path d="m613.836 208.135 20.581-8.103s24.546 2.853 26.239 61.993c.327 11.415.216 74.512-3.263 76.132-13.869 6.458-49.582-35.86-49.582-35.86-.708-1.316.298-14.958 0-16.305a14.734 14.734 0 0 0 2.133-.973c3.648-2.152 10.46-11.19 17.157-20.956l-21.181-16.504c-.84 1.328-1.683 2.62-2.488 3.873-.561-31.547 10.404-43.297 10.404-43.297z" fill="url(#q)"/><path d="M607.811 285.992a14.734 14.734 0 0 0 2.133-.973c3.648-2.152 10.46-11.19 17.157-20.956l-10.396-8.1 10.396-15.415 18.735-12.248v8.439s-8.021 21.822-17.568 38.934c-5.184 9.292-13.763 13.852-20.525 16.083.102-2.82.185-5.236.068-5.764" fill="#3030EF"/><path d="M547.413 282.683s43.504-17.774 46.462-18.419c.934-.201 4.133-4.619 8.074-10.579.826-1.285 3.138-4.81 3.971-6.126l21.181 16.504c-6.697 9.766-13.509 18.804-17.157 20.956-.561.318-1.272.654-2.133.973l-.028-.129.024.124c-12.644 4.736-58.164 6.918-59.047 7.216-1.633 1.265-5.475 1.348-8.935.394-1.598-.441-3.125-1.097-4.294-1.98-3.042-2.278-7.584.938-9.638 2.487-1.336 1.008-4.437.973-5.464-.053 2.338-13.098 26.984-11.368 26.984-11.368" fill="url(#r)"/><path d="m609.14 198.621.615 1.248 1.325 2.678.239.489 2.514 5.096 20.584-8.1-8.617-13.673-13.647 10.046-3.013 2.216" fill="url(#s)"/><path d="m645.836 236.739-21.457 32.968-24.531-14.086s6.68-25.693 13.163-39.829c4.026-8.785 15.618-13.14 26.837-6.153 9.88 6.153 9.584 20.525 5.988 27.1" fill="url(#t)"/><path d="M605.371 177.413c.788-3.578 4.061-6.872 7.012-2.085.73 1.187.978 2.604 1.125 3.991.524 4.986 6.328 7.18 10.665 7.51.687.052 1.407.048 2.087-.076.08-.013-.941-5.844-1-6.168-.355-1.97-.943-3.877-.849-5.868a51.23 51.23 0 0 0-.124-6.614c-.103-1.219-.255-2.456-.758-3.572-.501-1.114-1.406-2.106-2.585-2.434 1.384-1.801.96-4.554-.531-6.268-1.49-1.714-3.788-2.528-6.044-2.79-.374-.043-.785-.09-1.046-.36-.144-.148-.224-.346-.316-.53-.787-1.545-2.715-2.225-4.442-2.06-1.725.167-3.304 1.006-4.829 1.828-3.312-1.848-7.493-1.83-10.977-.333-3.483 1.496-6.282 4.357-8.106 7.68-2.158-.611-4.606-.08-6.318 1.369-1.712 1.451-2.64 3.779-2.392 6.008-1.327-.018-2.838.046-3.702 1.054-.38.442-.578 1.017-.67 1.593-.335 2.077.668 4.264 2.349 5.527 1.384 1.037 2.971 1.324 4.648 1.605 1.679.283 3.709.303 4.724-1.065.184-.25.343-.55.629-.666.192-.078.408-.057.615-.056 1.096.006 2.128-.573 2.901-1.348.772-.774 1.326-1.736 1.87-2.686 2.057.92 4.582.7 6.448-.563-.092 1.544.165 3.448.408 4.983.405 2.566 4.382-.075 6.072 3.37 1.688 3.446 2.528 5.374 3.542 4.766 1.014-.608-.406-5.742-.406-5.742" fill="url(#u)"/><path d="M606.791 178.284c-.303-1.289.5-3.115 1.624-3.192 1.438-.099 2.102 1.661 2.205 3.204.095 1.419-.328 3.875-1.896 3.341-1.2-.408.137-1.854-.295-2.641-.472-.865-1.636.673-1.638-.712zM609.755 199.869l1.325 2.678c4.328-3.09 4.155-7.774 4.155-7.774s-1.251 2.668-5.48 5.096" fill="#EFA78B"/><path d="m614.419 210.776-.826-6.992 18.876-9.011 3.395 5.618-21.445 10.385z" fill="url(#v)"/><path d="M687.536 247.62c-.001.167-.008.229-.009.288-.018.196-.026.247-.04.356-.047.375-.143 1.031-.292 2.036-1.118 7.464-5.114 33.047-8.835 56.789-3.721 23.74-7.164 45.622-7.164 45.622l-7.392-1.163a73492.233 73492.233 0 0 0 9.665-61.611c1.755-11.214 3.411-21.836 4.628-29.7.61-3.932 1.108-7.177 1.455-9.458.173-1.14.308-2.04.399-2.659l.098-.701.02-.146 2.212.243-2.217-.187.005-.056 2.212.243-2.217-.187 3.461.291h-3.473c.001-.205.009-.245.012-.291l3.461.291h-3.473 7.484" fill="#A5B7C6"/><path d="M621.411 362.815h-9.064v86.389c0 1.199.97 2.168 2.168 2.168h4.728a2.167 2.167 0 0 0 2.168-2.168v-86.389" fill="#0A2033"/><path d="M621.411 429.624h-9.064v19.58c0 1.199.97 2.168 2.168 2.168h4.728a2.167 2.167 0 0 0 2.168-2.168v-19.58" fill="#0A2033"/><path d="M641.801 364.057h-49.845v1.862a5.701 5.701 0 0 0 5.7 5.702H636.1a5.701 5.701 0 0 0 5.701-5.702v-1.862z" fill="#112B46"/><path d="M665.448 364.289h-97.14a6.655 6.655 0 0 1-6.653-6.653v-4.348a6.653 6.653 0 0 1 6.653-6.653h97.14a6.653 6.653 0 0 1 6.655 6.653v4.348a6.655 6.655 0 0 1-6.655 6.653z" fill="#878CF0"/><path d="M663.913 446.068a5.305 5.305 0 1 1-10.61-.003 5.305 5.305 0 0 1 10.61.003zM580.453 446.068a5.303 5.303 0 1 1-10.608 0 5.304 5.304 0 1 1 10.608 0z" fill="#0A2033"/><path d="M625.996 438.804h-18.235v-15.935h18.235v15.935z" fill="#112B46"/><path d="M663.913 442.553h-94.068v-1.846a5.65 5.65 0 0 1 5.651-5.652h82.764a5.652 5.652 0 0 1 5.653 5.652v1.846z" fill="#A5B7C6"/><path d="m689.767 253.788-3.994 29.603a7.71 7.71 0 0 1-8.672 6.61 7.709 7.709 0 0 1-6.609-8.672l3.992-29.602a7.711 7.711 0 0 1 15.283 2.061z" fill="#878CF0"/><path d="M140.431 142.064c1.884 5.243 1.229 15.729 1.229 15.729-3.481-3.686-13.272-13.23-17.04-16.794-3.811-3.564-3.072-6.678-.861-7.332-.246.818-.615 3.358 3.605 5.898 6.553 3.932 11.92 2.376 11.92 2.376l.615-1.065c.122.204.204.451.328.696.04.164.122.328.204.492z" fill="#41417A"/><path d="M148.664 222.88s3.031.369 7.373.943l-3.194 10.2-25.315-3.811h-.041a21.247 21.247 0 0 1-3.85-4.096h.04l.943-.081 24.044-3.155" fill="#BDCCD6"/><path d="M201.545 218.784c.04.328.083.697.123 1.065 0 0-5.652.696-11.551 1.394l4.219-12.904c3.564.245 6.555.245 8.439.245 0 0-1.884 4.179-1.23 10.2" fill="url(#w)"/><path d="M137.064 249.165c-4.701 0-10.083-.601-16.091-2.198-.736-.207-1.473-.411-2.169-.698a30.272 30.272 0 0 1-1.047-.381c-21.714-8.373-27.7-38.945-29.676-59.832l-.006-.073-.002-.022a.61.61 0 0 1-.005-.052l-.003-.024-.004-.049-.002-.027-.007-.069-.001-.013-.006-.059-.002-.028-.004-.045-.003-.03-.004-.045-.003-.027-.005-.07-.001-.011-.006-.063-.002-.024-.004-.048a.164.164 0 0 0-.003-.026l-.004-.052-.001-.022-.007-.072-.001-.012a7.538 7.538 0 0 1-.004-.061l-.003-.02-.004-.056-.001-.02-.007-.071-.012-.156v-.006l-.007-.074v-.004c-.482-6.288-.126-12.458.931-18.03l-.003.009c2.451-12.924 8.684-22.617 17.008-23.055.084-.005.168-.008.252-.01h.575c10.847.261 13.704 10.66 13.701 23.853-.001 5.389-.48 11.245-1.085 17.067-.66 6.476-1.421 13.185-1.42 19.58 0 8.286 1.281 16.044 5.721 22.078a21.275 21.275 0 0 0 3.85 4.095h.042a24.5 24.5 0 0 0 4.423 2.991l19.555 3.489 1.336.239 6.553-1.271a9.487 9.487 0 0 1 .779 5.08c-.206 1.72-.779 2.827-.779 2.827s-2.741 1.918-7.889 3.51c-3.646 1.126-8.499 2.088-14.443 2.088" fill="url(#x)"/><path d="M74.97 275.744c-12.527 0-27.17-1.429-35.263-2.317-3.851-.451-6.227-.779-6.227-.779s-.097-12.512 4.916-31.908c4.35-16.833 10.15-31.785 17.063-45.428 6.393-12.617 13.74-24.115 21.769-34.939 9.339-12.534 19.537-20.07 28.632-24.044 6.192-2.78 11.871-3.897 16.361-3.897.718 0 1.406.029 2.06.084l-.354.649-.282.538c-1.029.353-1.712 1.256-1.713 2.493-.003 1.312.76 3 2.688 4.803 2.531 2.393 7.779 7.485 12.007 11.686a2.907 2.907 0 0 0 2.077.875c1.576 0 3.08-1.264 3-3.121-.069-1.624-.205-3.334-.451-4.915v-.005a.219.219 0 0 0-.008-.046l-.001-.013a26.579 26.579 0 0 0-.3-1.593l.155-.24a152.382 152.382 0 0 1 5.434 15.19c.74 2.434 1.084 5.246 1.086 8.299.006 10.309-3.884 23.368-9.604 33.891-.288.492-.534.984-.82 1.474-1.967 3.476-3.992 6.934-5.946 10.428-2.398 4.29-4.688 8.634-6.629 13.126l-.943.082h-.04c-4.44-6.034-5.721-13.792-5.721-22.078-.001-6.395.76-13.104 1.42-19.58.605-5.822 1.084-11.678 1.085-17.067.003-13.193-2.854-23.592-13.701-23.853h-.575a7.073 7.073 0 0 0-.252.01c-8.325.438-14.558 10.134-17.009 23.058-2.692 7.625-3.823 17.302-2.864 27.185 2.008 21.219 8.15 52.431 30.721 60.213.639.263 1.312.455 1.99.644.437 6.007 1.588 11.528 1.588 11.528s-1.107.451-3.031 1.187v.043c-5.612 2.088-18.27 6.43-31.419 7.822-1.228.164-2.498.246-3.726.328-1.876.107-3.856.164-5.904.182-.422.002-.844.005-1.27.005zm13.105-89.765v-.006.006z" fill="url(#y)"/><path d="M118.732 254.649h-.001c-.203-2.773-.254-5.649.03-8.133l.043-.247-.043.247c-.284 2.484-.233 5.36-.029 8.133zM88.081 186.056c-.001-.027-.004-.052-.006-.077v.004c.002.025.005.048.006.073zm-.006-.083c-.647-6.748-.322-13.401.809-19.366l.001-.003c-1.056 5.568-1.41 11.736-.928 18.021v.004l.007.074v.006l.012.156.007.071.001.02.004.056.003.02.004.061a.038.038 0 0 1 .001.012l.007.072.001.022.004.052a.163.163 0 0 1 .003.026l.004.048.002.024a.966.966 0 0 0 .007.074l.005.07.003.027.004.045.003.03.004.045.002.028.006.059.001.013.007.069.002.027.004.049.003.024a.653.653 0 0 0 .007.064" fill="#DBDCD2"/><path d="M88.081 186.056c-.001-.025-.004-.048-.006-.073l.006.073zm-.008-.095zm-.008-.076-.004-.049.004.049zm-.006-.076-.007-.069.007.069zm-.008-.082-.006-.059.006.059zm-.008-.087zm-.007-.075-.004-.045.004.045zm-.007-.072-.005-.07.005.07zm-.006-.081a.966.966 0 0 1-.006-.063l.006.063zm-.008-.087-.004-.048.004.048zm-.007-.074-.004-.052.004.052zm-.005-.074-.007-.072.007.072zm-.008-.084-.004-.061.004.061zm-.007-.081zm-.005-.076-.007-.071.007.071zm-.007-.071-.012-.156.012.156zm-.012-.162-.007-.074.007.074zm-.007-.078c-.482-6.285-.128-12.453.928-18.021l.003-.009c-1.057 5.572-1.413 11.742-.93 18.03z" fill="url(#z)"/><path d="M118.731 254.649c-.678-.189-1.351-.381-1.99-.644-22.57-7.782-28.713-38.994-30.721-60.213-.959-9.883.172-19.56 2.864-27.185-1.13 5.965-1.456 12.618-.81 19.366v.006c.003.025.006.05.007.077 2.007 21.219 8.152 52.431 30.723 60.213l-.043.247c-.284 2.484-.233 5.36-.03 8.133z" fill="url(#A)"/><path d="M222.763 210.633c4.629 1.352 16.958 3.442 15.648 5.816-1.352 2.376-13.558.779-13.558.779s-3.113 5.652-5.368 6.225c-2.21.616-5.037-.736-5.037-.736s-1.924 2.662-4.629 1.924c-2.662-.736-4.464-5.488-6.554-5.938-.328-.083-.941-.042-1.72.081-.654-6.021 1.23-10.2 1.23-10.2h1.228c4.465 0 14.173.739 18.76 2.049" fill="url(#B)"/><path d="m194.336 208.339-4.219 12.904-2.212 6.676-35.062 6.104 3.194-10.2 1.352-4.219 6.514-20.727 2.949-9.38c.449 0 34.489-2.498 34.489-2.498l-7.005 21.34" fill="#A5B7C6"/><path d="M187.905 227.919v2.293l-5.898 1.107-22.611 4.341-6.553 1.271v-2.908l35.062-6.104z" fill="#8FA6B7"/><path d="M182.007 231.319s.573 1.024-.534 2.253c-1.105 1.187-3.889 3.564-7.822 4.711-3.892 1.105-10.036 0-10.036 0l-3.44 2.457a9.487 9.487 0 0 0-.779-5.08l22.611-4.341" fill="url(#C)"/><path d="M157.389 219.604a35.853 35.853 0 0 1-5.882-3.244 37.517 37.517 0 0 1-4.338-3.451c-3.273-3.014-6.381-6.905-9.154-11.902 5.72-10.523 9.61-23.582 9.604-33.891-.002-3.053-.346-5.865-1.086-8.299a152.382 152.382 0 0 0-5.434-15.19l1.228-1.898a38.852 38.852 0 0 1 9.18 12.299c.369.785.72 1.603 1.048 2.453 4.016 10.61-.204 32.566 11.348 42.396l-4.41 14.032-2.104 6.695" fill="url(#D)"/><path d="M152.843 234.023v2.908l-20.891-3.728a24.543 24.543 0 0 1-4.424-2.991l25.315 3.811" fill="#A5B7C6"/><path d="M120.299 422.619v10.665h-16.692v-10.255l16.692-.41z" fill="url(#E)"/><path d="M148.009 443.771v5.715H99.571v-5.66s43.466-.494 48.194-.085l.244.03z" fill="#C3D3DD"/><path d="M129.283 433.589a.77.77 0 0 0 .204-.357c.901.544 1.836 1.105 2.788 1.684l-4.25 4.113a.86.86 0 0 0-.017 1.21.863.863 0 0 0 .612.253.836.836 0 0 0 .577-.237l4.404-4.251.136-.221c3.62 2.161 9.306 3.886 12.068 5.438 1.844 1.038 1.96 1.864 1.96 2.52-4.728-.409-47.908.084-47.908.084s.148-3.752.53-5.004l2.274-7.476c.162-.531.751-.797 1.267-.596 10.919 4.231 15.724.01 17.135-1.709a.935.935 0 0 1 1.214-.2l1.939 1.179-4.2 4.064a.836.836 0 0 0-.017 1.19c.17.17.39.271.612.271a.852.852 0 0 0 .594-.253l4.387-4.252.087-.12 2.413 1.462-4.387 4.252a.82.82 0 0 0-.016 1.189.819.819 0 0 0 .612.273.79.79 0 0 0 .578-.255l4.404-4.251" fill="#11477C"/><path d="M129.197 440.255a.836.836 0 0 1-.577.237.863.863 0 0 1-.612-.253.86.86 0 0 1 .017-1.21l4.25-4.113c.493.288.97.577 1.462.867l-.136.221-4.404 4.251M128.092 432.381c.441.272.919.562 1.395.851a.77.77 0 0 1-.204.357l-4.404 4.251a.79.79 0 0 1-.578.255.819.819 0 0 1-.612-.273.82.82 0 0 1 .016-1.189l4.387-4.252M121.205 435.291a.852.852 0 0 1-.594.253.879.879 0 0 1-.612-.271.836.836 0 0 1 .017-1.19l4.2-4.064c.441.272.935.577 1.463.9l-.087.12-4.387 4.252" fill="#C3D3DD"/><path d="m51.553 422.196-2.234 10.431-16.32-3.495 2.146-10.028 16.408 3.092" fill="url(#F)"/><path d="m74.22 448.683-1.196 5.59-47.365-10.142 1.185-5.538s42.608 8.621 47.144 10.01l.232.08z" fill="#C3D3DD"/><path d="M58.041 434.805a.731.731 0 0 0 .274-.305c.769.721 1.565 1.465 2.376 2.231l-5.019 3.132a.857.857 0 0 0-.27 1.177c.13.203.33.331.546.377a.836.836 0 0 0 .615-.112l5.196-3.233.178-.188c3.088 2.871 8.287 5.749 10.662 7.845 1.588 1.402 1.528 2.234 1.389 2.874-4.536-1.389-46.864-9.95-46.864-9.95s.932-3.637 1.567-4.781c.948-1.708 3.789-6.835 3.789-6.835.27-.485.9-.621 1.364-.317 9.79 6.424 15.373 3.302 17.112 1.917a.934.934 0 0 1 1.23.058l1.649 1.558-4.959 3.095c-.4.244-.51.76-.265 1.161a.887.887 0 0 0 .541.394c.2.042.433.006.636-.124l5.18-3.239.108-.099 2.055 1.935-5.18 3.239a.82.82 0 0 0-.266 1.16.818.818 0 0 0 .542.394.781.781 0 0 0 .618-.129l5.196-3.235" fill="#11477C"/><path d="M56.563 441.305a.836.836 0 0 1-.615.112.854.854 0 0 1-.545-.377.857.857 0 0 1 .269-1.177l5.019-3.132c.421.385.826.767 1.246 1.153l-.178.188-5.196 3.233M57.13 433.376c.375.36.78.741 1.185 1.124a.73.73 0 0 1-.274.305l-5.196 3.235a.78.78 0 0 1-.618.129.818.818 0 0 1-.542-.394.82.82 0 0 1 .266-1.16l5.18-3.239M49.788 434.779a.862.862 0 0 1-.636.124.887.887 0 0 1-.541-.394.836.836 0 0 1 .265-1.161l4.959-3.095c.374.359.793.763 1.241 1.188l-.108.099-5.18 3.239" fill="#C3D3DD"/><path d="M101.621 426.916s3.542-48.963.102-71.944c-2.418-16.261-8.111-33.703-14.01-46.195-.204-18.924-1.844-33.548-1.844-33.548 13.151-1.392 25.807-5.734 31.419-7.822.615 1.269 12.697 28.016 15.605 67.504 2.951 40.469-9.944 92.005-9.944 92.005s-20.796.123-21.328 0" fill="#41417A"/><path d="M137.559 144.861c-2.259 0-5.688-.593-9.958-3.153-5.114-3.08-4.668-6.159-4.369-7.152.099-.199.148-.348.148-.348l.265-.505.282-.538.354-.649 3.867-7.099 6.903-2.88a9.05 9.05 0 0 1-.103-1.358c-.005-2.88 1.327-5.778 4.027-6.935.589-.252 1.106-.361 1.56-.363H140.544c2.747.006 3.148 3.988 3.148 3.988l-1.639 4.867s.635.777 1.282.783H143.344a.73.73 0 0 0 .327-.076l.021-.011c.696-.348 3.08-5.215 4.123-6.109 1.092-.894 4.17-.943 6.157-3.427 1.988-2.532 2.533-4.867 4.121-5.065.071-.008.147-.012.227-.012 1.737-.002 5.683 1.944 9.093 3.009l.056.019.096.029.046.013.068.022a10.77 10.77 0 0 0 3.078.446c-.098.944-1.39 11.372-5.014 18.574-2.636 5.306-6.991 8.82-9.767 10.49-1.2.723-2.105 1.102-2.451 1.131a.95.95 0 0 1-.116.007c-.349 0-1.04-.123-1.902-.312-3.014-.663-8.126-2.15-8.126-2.15-2.189-.66-4.177-1.3-4.177-1.3l3.123 2.931v.001l-1.228 1.898-.155.24h-.001l-.358.554s-1.08.44-3.026.44zm-2.508-22.324s-3.187 6.126 0 6.732c.245.047.476.068.692.068 2.597 0 3.192-3.098 3.192-3.098-1.01 0-3.299-.067-3.884-3.702zm5.152-5.549c-.226 0-.454.044-.66.129-1.254.522-2.07 2.14-2.324 3.407-.256 1.276.238 2.696 1.669 2.855.044.005.088.008.133.008.604 0 1.23-.439 1.244-1.04.012-.496-.365-.934-.368-1.431a.984.984 0 0 1 .484-.839.625.625 0 0 1 .311-.066c.068 0 .139.005.207.01.068.006.134.011.196.011a.43.43 0 0 0 .233-.052c.292-.185.265-.931.273-1.241.011-.462-.05-.954-.348-1.307-.254-.303-.649-.444-1.05-.444" fill="url(#G)"/><path d="M128.148 125.417s.541-7.433.956-12.853c.132-1.737.252-3.267.336-4.28.393-4.728 3.081-9.384 7.12-11.925 1.068-.671 2.297-1.143 3.556-1.143.064 0 .129.001.193.004.031-.51.436-.912.835-1.23 1.971-1.565 4.447-2.394 6.943-2.718a27.822 27.822 0 0 1 3.42-.227h.146c2.943 0 5.943.444 8.676 1.298 4.78 1.494 9.756 4.465 12.398 8.857 1.078 1.797 1.802 3.792 2.886 5.584.523.865 1.276 1.761 2.287 1.789-1.805 2.478-4.017 3.784-7.143 3.784a10.77 10.77 0 0 1-3.078-.446l-.068-.022-.046-.013-.096-.029-.056-.019c-3.41-1.065-7.354-3.009-9.093-3.009a1.647 1.647 0 0 0-.227.012c-1.588.198-2.133 2.533-4.121 5.065-1.987 2.484-5.065 2.533-6.157 3.427-1.043.894-3.427 5.761-4.123 6.109l-.021.011a.73.73 0 0 1-.327.076H143.335c-.647-.006-1.282-.783-1.282-.783l1.639-4.867s-.401-3.982-3.148-3.988H140.535c-.454.002-.97.11-1.56.363-2.7 1.157-4.032 4.055-4.027 6.935 0 .456.035.91.103 1.358l-6.903 2.88" fill="url(#H)"/><path d="M87.713 308.777c-.205-18.924-1.844-33.548-1.844-33.548-1.228.164-2.498.246-3.726.328-13.599.778-32.728-1.065-42.436-2.13-2.13 22.12 9.544 50.588 8.356 81.473-.916 23.767-10.907 55.385-16.123 69.728l19.83 3.94c9.757-15.635 30.354-55.419 33.895-81.164 1.762-12.821 2.212-26.585 2.048-38.627" fill="#56548C"/><path d="m153.257 232.693 2.292-7.313-22.749 3.917 20.457 3.396z" fill="#8FA6B7"/><path d="M135.743 129.337c-.216 0-.447-.021-.692-.068-3.187-.606 0-6.732 0-6.732.585 3.635 2.874 3.702 3.884 3.702 0 0-.595 3.098-3.192 3.098z" fill="url(#I)"/><path d="M139.021 123.387c-.045 0-.089-.003-.133-.008-1.431-.159-1.925-1.579-1.669-2.855.254-1.267 1.07-2.885 2.324-3.407.206-.085.434-.129.66-.129.401 0 .796.141 1.05.444.298.353.359.845.348 1.307-.008.31.019 1.056-.273 1.241a.43.43 0 0 1-.233.052c-.062 0-.128-.005-.196-.011a2.868 2.868 0 0 0-.207-.01.625.625 0 0 0-.311.066.984.984 0 0 0-.484.839c.003.497.38.935.368 1.431-.014.601-.64 1.04-1.244 1.04" fill="url(#J)"/><path d="m142.327 141.728 1.054-1.631-1.054 1.631z" fill="#DBDCD2"/><path d="m142.327 141.728-3.123-2.931s1.988.64 4.177 1.3l-1.054 1.631z" fill="url(#K)"/><path d="m152.843 234.023-.974-.147 14.152-44.712.831.333-14.009 44.526" fill="#BDCCD6"/><path d="m166.021 189.164 34.56-2.525.76.36-34.489 2.498-.831-.333" fill="#BDCCD6"/><path d="M454.152 287.736a4.266 4.266 0 0 0 4.248-4.249l-.013-8.776h-4.127v-2.591h4.767c1.082 0 1.962.881 1.962 1.964v9.403c0 3.77-3.068 6.838-6.837 6.838h-.521v-2.589h.521z" fill="#878CF0"/><path d="M438.999 296.459h10.329a5.805 5.805 0 0 0 5.804-5.806v-21.362h-21.937v21.362a5.804 5.804 0 0 0 5.804 5.806z" fill="#878CF0"/><path d="M190.645 287.736a4.263 4.263 0 0 1-4.246-4.249l.012-8.776h4.125v-2.591h-4.765a1.966 1.966 0 0 0-1.964 1.964v9.403c0 3.77 3.068 6.838 6.837 6.838h.523v-2.589h-.522" fill="url(#L)"/><path d="M205.799 296.459h-10.33a5.804 5.804 0 0 1-5.804-5.806v-21.361h21.938v21.361a5.805 5.805 0 0 1-5.804 5.806z" fill="url(#M)"/><path d="M177.452 451.372h-24.888V300.109h24.888v151.263zM531.399 451.372h-24.888V300.109h24.888v151.263z" fill="#A5B7C6"/><path d="M177.452 316.799h-24.888v-16.69h24.888v16.69zM531.399 316.799h-24.888v-16.69h24.888v16.69z" fill="#8FA6B7"/><path d="M541.909 309.28H142.007a5.656 5.656 0 0 1-5.656-5.656v-1.509a5.656 5.656 0 0 1 5.656-5.656h399.902a5.656 5.656 0 0 1 5.656 5.656v1.509a5.656 5.656 0 0 1-5.656 5.656z" fill="#C3D3DD"/><path d="M291.913 282.015a6.554 6.554 0 0 1 6.547 6.548 6.554 6.554 0 0 1-6.547 6.546h-52.762v-13.094h52.762" fill="#F9FBFC"/><path d="M295.415 292.249h-56.266v-1.01h56.266v1.01M296.524 290.127h-57.375v-1.011h57.375v1.011zM296.524 288.008h-57.375v-1.012h57.375v1.012zM295.417 285.888h-56.268v-1.012h56.268v1.012z" fill="#CCD9E2"/><path d="M237.905 280.667h54.008c4.354 0 7.895 3.541 7.895 7.896 0 4.353-3.541 7.896-7.895 7.896h-54.008v-2.699h54.008a5.204 5.204 0 0 0 5.199-5.197c0-2.868-2.332-5.2-5.199-5.2h-54.008v-2.696z" fill="#EC827D"/><path d="M249.473 279.535a5.494 5.494 0 0 1-5.488-5.488 5.494 5.494 0 0 1 5.488-5.488h44.232v10.976h-44.232" fill="#F9FBFC"/><path d="M293.707 271.805h-47.17v-.849h47.17v.849zM293.707 273.584h-48.099v-.848h48.099v.848zM293.707 275.361h-48.099v-.849h48.099v.849zM293.707 277.137h-47.172v-.848h47.172v.848z" fill="#CCD9E2"/><path d="M294.751 280.667h-45.278c-3.649 0-6.618-2.971-6.618-6.62 0-3.65 2.969-6.62 6.618-6.62h45.278v2.262h-45.278a4.363 4.363 0 0 0-4.357 4.358 4.362 4.362 0 0 0 4.357 4.358h45.278v2.262" fill="#606BF1"/><path d="M244.525 266.297a5.495 5.495 0 0 1-5.49-5.489 5.495 5.495 0 0 1 5.49-5.488h44.231v10.977h-44.231z" fill="#F9FBFC"/><path d="M288.756 258.565h-47.168v-.848h47.168v.848zM288.756 260.345h-48.097v-.848h48.097v.848zM288.756 262.121h-48.097v-.848h48.097v.848zM288.756 263.899h-47.171v-.848h47.171v.848z" fill="#CCD9E2"/><path d="M289.801 267.427h-45.276a6.626 6.626 0 0 1-6.62-6.619 6.628 6.628 0 0 1 6.62-6.619h45.276v2.262h-45.276a4.361 4.361 0 0 0-4.358 4.357 4.363 4.363 0 0 0 4.358 4.359h45.276v2.26z" fill="#FBD15B"/><path d="M423.789 288.563v7.896l4.86-2.576v-2.744l-4.86-2.576" fill="#FFC8AF"/><path d="M428.649 291.139v2.744l2.591-1.372-2.591-1.372z" fill="#606BF1"/><path d="M366.953 288.563h56.836v2.632h-56.836v-2.632z" fill="#B1B2F3"/><path d="M366.953 291.195h56.836v2.63h-56.836v-2.63z" fill="#878CF0"/><path d="M366.953 293.825h56.836v2.634h-56.836v-2.634z" fill="#5566E5"/><path d="M359.777 288.563h7.176v7.896h-7.176a2.538 2.538 0 0 1-2.536-2.539v-2.821a2.535 2.535 0 0 1 2.536-2.536z" fill="#EC827D"/><path d="M362.92 296.459h4.033v-7.896h-4.033v7.896z" fill="#FBD15B"/><path d="M364.331 296.459h1.212v-7.896h-1.212v7.896z" fill="#EABC4B"/><path d="M106.751 96.2c1.396-2.496 3.36-4.725 5.822-6.555 6.938-5.124 11.064-13.31 11.064-21.894 0-15.006-12.213-27.218-27.202-27.218-1.031 0-2.063.067-3.094.166-12.328 1.364-22.393 11.28-23.908 23.592-1.232 9.932 3.028 19.714 11.096 25.537a18.684 18.684 0 0 1 5.608 6.372" fill="#FBD15B"/><path d="M95.455 96.801a.605.605 0 0 1-.578-.43l-5.889-19.982a.6.6 0 0 1 .284-.694.603.603 0 0 1 .741.125l1.838 2.068 1.836-2.068a.618.618 0 0 1 .897 0l1.837 2.068 1.839-2.068a.6.6 0 0 1 .897 0L101 77.89l1.841-2.07a.597.597 0 0 1 .74-.125.598.598 0 0 1 .284.694l-5.873 19.98a.6.6 0 1 1-1.15-.339l5.117-17.414-.511.575a.619.619 0 0 1-.896 0l-1.843-2.068-1.838 2.068a.62.62 0 0 1-.898 0l-1.837-2.068L92.3 79.19a.622.622 0 0 1-.899 0l-.501-.566 5.13 17.404a.6.6 0 0 1-.406.747l-.17.025" fill="#fff"/><path d="M108.167 110.855H84.568V98.789h23.599v12.066z" fill="#A5B7C6"/><path d="M84.97 110.133c-.398 0-.778-.06-1.16-.16a3.64 3.64 0 0 0 3.638 3.578h1.917v.7a2.726 2.726 0 0 0 2.719 2.737h8.672a2.728 2.728 0 0 0 2.737-2.737v-.7h1.92c1.978 0 3.596-1.599 3.636-3.578-.38.1-.76.16-1.16.16H84.971M83.81 107.012h25.239v-3.608H83.811v3.608zM83.81 99.815h25.239v-3.608H83.811v3.608z" fill="#758D9E"/><path d="M624.976 36.78c.831.308 1.657.623 2.483.944a.666.666 0 0 0 .484-1.243c-.832-.324-1.666-.641-2.504-.952a.667.667 0 1 0-.463 1.25M632.281 39.69c1.598.68 3.184 1.385 4.759 2.114a.667.667 0 0 0 .56-1.21 166.16 166.16 0 0 0-4.796-2.131.666.666 0 1 0-.523 1.226zm9.448 4.377c1.551.778 3.091 1.581 4.616 2.408a.666.666 0 1 0 .635-1.172 166.815 166.815 0 0 0-4.653-2.428.667.667 0 0 0-.598 1.192zm9.155 4.96c1.5.873 2.987 1.77 4.457 2.692a.668.668 0 0 0 .708-1.131 168.659 168.659 0 0 0-4.493-2.713.667.667 0 0 0-.672 1.152zm8.828 5.521c1.443.965 2.869 1.955 4.281 2.965a.667.667 0 1 0 .776-1.084 167.295 167.295 0 0 0-4.314-2.989.668.668 0 0 0-.926.183.669.669 0 0 0 .183.925zm8.465 6.064c.534.407 1.064.819 1.592 1.233a96.43 96.43 0 0 1 2.478 2 .667.667 0 1 0 .856-1.021 98.295 98.295 0 0 0-2.511-2.028c-.532-.417-1.067-.832-1.604-1.244a.667.667 0 0 0-.811 1.06zm7.878 6.717c1.205 1.23 2.32 2.526 3.297 3.91a.665.665 0 0 0 .929.16.663.663 0 0 0 .16-.928c-1.026-1.456-2.189-2.806-3.434-4.075a.668.668 0 0 0-.952.933zm5.75 8.338a18.383 18.383 0 0 1 1.236 4.874.667.667 0 0 0 1.326-.144 19.803 19.803 0 0 0-1.324-5.228.666.666 0 1 0-1.238.498zm.972 9.848a12.035 12.035 0 0 1-1.316 3.34 11.73 11.73 0 0 1-.744 1.124.666.666 0 1 0 1.067.798c.299-.397.576-.814.829-1.252a13.368 13.368 0 0 0 1.463-3.708.668.668 0 0 0-1.299-.302zm-5.74 7.765c-1.401.859-2.973 1.507-4.624 1.95a.667.667 0 1 0 .346 1.288c1.76-.473 3.449-1.166 4.974-2.1a.667.667 0 1 0-.696-1.138zm-9.636 2.675a22.49 22.49 0 0 1-1.849-.02 19.467 19.467 0 0 1-3.181-.432.667.667 0 0 0-.286 1.302c1.131.248 2.274.404 3.399.462a23.666 23.666 0 0 0 1.957.02.666.666 0 1 0-.04-1.332zm-9.777-2.154c-1.531-.792-2.907-1.788-4.003-2.957a.666.666 0 1 0-.973.912c1.219 1.299 2.717 2.379 4.364 3.23a.667.667 0 1 0 .612-1.185zm-6.415-7.162a9.01 9.01 0 0 1-.282-1.679 7.412 7.412 0 0 1-.02-.557c-.002-.86.152-1.703.505-2.403a.668.668 0 0 0-1.191-.6c-.473.944-.648 1.99-.648 3.003 0 .218.008.437.024.653.048.665.159 1.31.324 1.928a.667.667 0 0 0 1.288-.345zm3.946-7.402a19.185 19.185 0 0 1 4.872-1.282.668.668 0 0 0-.171-1.323c-1.783.23-3.536.681-5.209 1.373a.666.666 0 1 0 .508 1.232zm9.932-1.328a23.61 23.61 0 0 1 4.958 1.079.667.667 0 0 0 .422-1.265 25.09 25.09 0 0 0-5.239-1.14.666.666 0 1 0-.141 1.327zm9.581 3.179a26.603 26.603 0 0 1 4.101 3.013.667.667 0 0 0 .888-.994A27.94 27.94 0 0 0 676 80.34c-.216-.137-.435-.27-.655-.4a.666.666 0 1 0-.677 1.148zm7.596 6.736a33.416 33.416 0 0 1 2.856 4.25.666.666 0 0 0 1.16-.658 34.81 34.81 0 0 0-2.971-4.42.666.666 0 1 0-1.045.828zm5.072 8.879c.327.821.625 1.653.893 2.493.255.792.482 1.591.683 2.395a.667.667 0 0 0 1.293-.324 39.133 39.133 0 0 0-.705-2.478 41.073 41.073 0 0 0-.924-2.578.667.667 0 0 0-1.24.492zm2.495 9.942c.184 1.586.274 3.182.274 4.779l-.001.356a.668.668 0 0 0 1.333.012c.002-.123.002-.245.002-.368 0-1.648-.094-3.295-.283-4.932a.667.667 0 0 0-1.325.153zm-.079 10.268a43.985 43.985 0 0 1-.951 5.06.666.666 0 0 0 1.294.322c.428-1.718.756-3.458.98-5.211a.668.668 0 0 0-1.323-.171zm-2.479 9.976a44.605 44.605 0 0 1-2.084 4.707.668.668 0 0 0 1.186.611 45.394 45.394 0 0 0 2.146-4.85.666.666 0 1 0-1.248-.468zm-4.704 9.136a41.574 41.574 0 0 1-3.133 4.078.664.664 0 0 0 .063.94.668.668 0 0 0 .941-.064 43.063 43.063 0 0 0 3.235-4.207.667.667 0 0 0-1.106-.747M675.743 143.812a39.027 39.027 0 0 1-2.03 1.665.667.667 0 0 0 .811 1.059c.72-.551 1.42-1.125 2.099-1.723a.666.666 0 1 0-.88-1.001" fill="#C3D3DD"/><path d="M369.163 390.323h-5.555l.609-7.776h5.695l-.749 7.776zm-.903 9.356h-5.384l.572-7.307h5.517l-.705 7.307zm-.847 8.801h-5.226l.538-6.875h5.351l-.663 6.875zm-.8 8.3h-5.077l.508-6.483h5.195l-.626 6.483zm-.754 7.837h-4.936l.48-6.124h5.045l-.589 6.124zm-.715 7.412h-4.801l.453-5.791h4.905l-.557 5.791zm-3.667-41.706h-5.553l.415-7.776h5.693l-.555 7.776zm-.668 9.356h-5.384l.39-7.307h5.517l-.523 7.307zm-.626 8.801h-5.227l.367-6.875h5.35l-.49 6.875zm-.594 8.3h-5.076l.346-6.483h5.193l-.463 6.483zm-.56 7.837h-4.934l.325-6.124h5.048l-.439 6.124zm-.528 7.412h-4.802l.309-5.791h4.907l-.414 5.791zm-4.706-41.706h-5.554l.22-7.776h5.694l-.36 7.776zm-.435 9.356h-5.387l.21-7.307h5.516l-.339 7.307zm-.409 8.801h-5.227l.195-6.875h5.352l-.32 6.875zm-.386 8.3h-5.077l.185-6.483h5.194l-.302 6.483zm-.364 7.837h-4.936l.175-6.124h5.045l-.284 6.124zm-.342 7.412h-4.803l.164-5.791h4.907l-.268 5.791zm-5.748-41.706h-5.555l.027-7.776h5.694l-.166 7.776zm-.202 9.356h-5.385l.024-7.307h5.519l-.158 7.307zm-.189 8.801h-5.227l.024-6.875h5.35l-.147 6.875zm-.179 8.3h-5.076l.022-6.483h5.194l-.14 6.483zm-.168 7.837h-4.936l.022-6.124h5.046l-.132 6.124zm-.16 7.412h-4.801l.019-5.791h4.908l-.126 5.791zm-6.788-41.706h-5.553l-.168-7.776h5.695l.026 7.776zm.034 9.356h-5.386l-.157-7.307h5.516l.027 7.307zm.029 8.801h-5.227l-.146-6.875h5.35l.023 6.875zm.029 8.3h-5.077l-.139-6.483h5.194l.022 6.483zm.027 7.837h-4.935l-.133-6.124h5.048l.02 6.124zm.027 7.412h-4.803l-.125-5.791h4.906l.022 5.791zm-7.828-41.706h-5.555l-.361-7.776h5.694l.222 7.776zm.265 9.356h-5.385l-.34-7.307h5.517l.208 7.307zm.249 8.801h-5.226l-.319-6.875h5.351l.194 6.875zm.236 8.3h-5.076l-.301-6.483h5.192l.185 6.483zm.223 7.837h-4.936l-.284-6.124h5.045l.175 6.124zm.211 7.412h-4.802l-.269-5.791h4.905l.166 5.791zm-8.87-41.706h-5.553l-.555-7.776h5.694l.414 7.776zm.5 9.356h-5.385l-.523-7.307h5.518l.39 7.307zm.47 8.801h-5.226l-.492-6.875h5.351l.367 6.875zm.444 8.3h-5.079l-.463-6.483h5.195l.347 6.483zm.417 7.837h-4.936l-.437-6.124h5.046l.327 6.124zm.395 7.412h-4.802l-.413-5.791h4.905l.31 5.791zm-9.91-41.706h-5.553l-.749-7.776h5.694l.608 7.776zm.734 9.356h-5.386l-.704-7.307h5.516l.574 7.307zm.689 8.801h-5.227l-.662-6.875h5.35l.539 6.875zm.649 8.3h-5.077l-.624-6.483h5.193l.508 6.483zm.614 7.837h-4.935l-.591-6.124h5.047l.479 6.124zm.58 7.412h-4.802l-.557-5.791h4.907l.452 5.791zm-11.978-51.666 6.89 66.729h51.88l6.889-66.729h-65.659" fill="#DCE8EF"/><path d="m60.27 75.896-19.798 4.647a.667.667 0 0 0 .305 1.297l19.798-4.647a.667.667 0 0 0-.306-1.297zM63.188 82.128l-8.687 8.476a.667.667 0 0 0 .932.953l8.686-8.474a.666.666 0 1 0-.931-.955zM60.759 68.34l-13.334-1.347a.667.667 0 0 0-.134 1.327l13.333 1.347a.666.666 0 1 0 .135-1.327z" fill="#C3D3DD"/><defs><linearGradient id="t" x1="623.988" y1="206.173" x2="623.988" y2="269.707" gradientUnits="userSpaceOnUse"><stop stop-color="#606BF1"/><stop offset=".018" stop-color="#606BF1"/><stop offset="1" stop-color="#433AFF"/></linearGradient><linearGradient id="a" x1="169.192" y1="151.995" x2="583.18" y2="151.995" gradientUnits="userSpaceOnUse"><stop stop-color="#878CF0"/><stop offset="1" stop-color="#6D73ED"/></linearGradient><linearGradient id="L" x1="183.807" y1="281.223" x2="191.166" y2="281.223" gradientUnits="userSpaceOnUse"><stop stop-color="#DF697B"/><stop offset="1" stop-color="#BE2773"/></linearGradient><linearGradient id="d" x1="236.023" y1="50.165" x2="261.048" y2="93.51" gradientUnits="userSpaceOnUse"><stop stop-color="#5B2A8D"/><stop offset=".455" stop-color="#2A2277"/><stop offset="1" stop-color="#2A2277"/></linearGradient><linearGradient id="H" x1="153.024" y1="91.045" x2="153.024" y2="125.418" gradientUnits="userSpaceOnUse"><stop stop-color="#68ACFF"/><stop offset=".625" stop-color="#3B6BFF"/><stop offset="1" stop-color="#3B6BFF"/></linearGradient><linearGradient id="D" x1="182.328" y1="147.271" x2="144.45" y2="184.132" gradientUnits="userSpaceOnUse"><stop stop-color="#DF697B"/><stop offset="1" stop-color="#BE2773"/></linearGradient><linearGradient id="g" x1="270.9" y1="329.068" x2="234.829" y2="384.102" gradientUnits="userSpaceOnUse"><stop stop-color="#C6DFF2"/><stop offset=".999" stop-color="#9BB7FC"/><stop offset=".999" stop-color="#9BB7FC"/><stop offset="1" stop-color="#9BB7FC"/></linearGradient><linearGradient id="h" x1="268.605" y1="333.693" x2="230.774" y2="391.414" gradientUnits="userSpaceOnUse"><stop stop-color="#9BB7FC"/><stop offset=".421" stop-color="#9BB7FC"/><stop offset="1" stop-color="#6490FA"/></linearGradient><linearGradient id="i" x1="203.316" y1="326.12" x2="211.72" y2="390.976" gradientUnits="userSpaceOnUse"><stop stop-color="#C6DFF2"/><stop offset=".999" stop-color="#9BB7FC"/><stop offset=".999" stop-color="#9BB7FC"/><stop offset="1" stop-color="#9BB7FC"/></linearGradient><linearGradient id="j" x1="205.479" y1="330.888" x2="214.234" y2="398.459" gradientUnits="userSpaceOnUse"><stop stop-color="#9BB7FC"/><stop offset=".421" stop-color="#9BB7FC"/><stop offset="1" stop-color="#6490FA"/></linearGradient><linearGradient id="k" x1="234.639" y1="313.617" x2="234.639" y2="390.424" gradientUnits="userSpaceOnUse"><stop stop-color="#9BB7FC"/><stop offset=".421" stop-color="#9BB7FC"/><stop offset="1" stop-color="#6490FA"/></linearGradient><linearGradient id="l" x1="234.543" y1="319.935" x2="234.543" y2="401.592" gradientUnits="userSpaceOnUse"><stop stop-color="#C6DFF2"/><stop offset=".999" stop-color="#9BB7FC"/><stop offset=".999" stop-color="#9BB7FC"/><stop offset="1" stop-color="#9BB7FC"/></linearGradient><linearGradient id="A" x1="70.76" y1="141.401" x2="102.282" y2="263.085" gradientUnits="userSpaceOnUse"><stop stop-color="#CC5E69"/><stop offset="1" stop-color="#AE2362"/></linearGradient><linearGradient id="n" x1="487.976" y1="425.236" x2="487.976" y2="444.165" gradientUnits="userSpaceOnUse"><stop stop-color="#68ACFF"/><stop offset=".429" stop-color="#68ACFF"/><stop offset="1" stop-color="#3B6BFF"/></linearGradient><linearGradient id="o" x1="550.007" y1="427.787" x2="550.007" y2="442.912" gradientUnits="userSpaceOnUse"><stop stop-color="#68ACFF"/><stop offset=".429" stop-color="#68ACFF"/><stop offset="1" stop-color="#3B6BFF"/></linearGradient><linearGradient id="p" x1="635.353" y1="243.04" x2="596.657" y2="243.04" gradientUnits="userSpaceOnUse"><stop stop-color="#606BF1"/><stop offset=".018" stop-color="#606BF1"/><stop offset="1" stop-color="#433AFF"/></linearGradient><linearGradient id="q" x1="667.257" y1="218.104" x2="610.653" y2="316.145" gradientUnits="userSpaceOnUse"><stop stop-color="#606BF1"/><stop offset=".018" stop-color="#606BF1"/><stop offset="1" stop-color="#433AFF"/></linearGradient><linearGradient id="z" x1="123.993" y1="162.533" x2="123.993" y2="286.483" gradientUnits="userSpaceOnUse"><stop stop-color="#CC5E69"/><stop offset="1" stop-color="#AE2362"/></linearGradient><linearGradient id="y" x1="70.76" y1="141.401" x2="102.283" y2="263.085" gradientUnits="userSpaceOnUse"><stop stop-color="#DF697B"/><stop offset="1" stop-color="#BE2773"/></linearGradient><linearGradient id="b" x1="272.688" y1="52.591" x2="272.688" y2="184.817" gradientUnits="userSpaceOnUse"><stop stop-color="#68ACFF"/><stop offset=".429" stop-color="#68ACFF"/><stop offset="1" stop-color="#3B6BFF"/></linearGradient><linearGradient id="u" x1="598.885" y1="150.065" x2="598.885" y2="186.86" gradientUnits="userSpaceOnUse"><stop stop-color="#56549E"/><stop offset=".99" stop-color="#2E2C71"/><stop offset="1" stop-color="#2E2C71"/></linearGradient><linearGradient id="v" x1="624.729" y1="194.773" x2="624.729" y2="210.775" gradientUnits="userSpaceOnUse"><stop stop-color="#606BF1"/><stop offset=".018" stop-color="#606BF1"/><stop offset="1" stop-color="#433AFF"/></linearGradient><linearGradient id="w" x1="196.445" y1="208.339" x2="196.445" y2="221.242" gradientUnits="userSpaceOnUse"><stop stop-color="#DF697B"/><stop offset="1" stop-color="#BE2773"/></linearGradient><linearGradient id="x" x1="123.993" y1="162.533" x2="123.993" y2="286.483" gradientUnits="userSpaceOnUse"><stop stop-color="#DF697B"/><stop offset="1" stop-color="#BE2773"/></linearGradient><linearGradient id="M" x1="189.665" y1="282.875" x2="211.603" y2="282.875" gradientUnits="userSpaceOnUse"><stop stop-color="#DF697B"/><stop offset="1" stop-color="#BE2773"/></linearGradient><radialGradient id="s" cx="0" cy="0" r="1" gradientUnits="userSpaceOnUse" gradientTransform="rotate(-174.289 308.027 77.763) scale(32.5773)"><stop stop-color="#FFC8AF"/><stop offset="1" stop-color="#FFBB9C"/></radialGradient><radialGradient id="m" cx="0" cy="0" r="1" gradientUnits="userSpaceOnUse" gradientTransform="rotate(-174.289 308.03 77.762) scale(32.5876)"><stop stop-color="#FFC8AF"/><stop offset="1" stop-color="#FFBB9C"/></radialGradient><radialGradient id="B" cx="0" cy="0" r="1" gradientUnits="userSpaceOnUse" gradientTransform="translate(219.957 216.677) scale(14.3111)"><stop stop-color="#FFC8AF"/><stop offset="1" stop-color="#FFBB9C"/></radialGradient><radialGradient id="C" cx="0" cy="0" r="1" gradientUnits="userSpaceOnUse" gradientTransform="translate(170.776 236.029) scale(8.70875)"><stop stop-color="#FFC8AF"/><stop offset="1" stop-color="#FFBB9C"/></radialGradient><radialGradient id="f" cx="0" cy="0" r="1" gradientUnits="userSpaceOnUse" gradientTransform="translate(264.245 70.419) scale(13.4932)"><stop stop-color="#FFC8AF"/><stop offset="1" stop-color="#FFBB9C"/></radialGradient><radialGradient id="E" cx="0" cy="0" r="1" gradientUnits="userSpaceOnUse" gradientTransform="translate(111.952 427.951) scale(7.00284)"><stop stop-color="#FFC8AF"/><stop offset="1" stop-color="#FFBB9C"/></radialGradient><radialGradient id="r" cx="0" cy="0" r="1" gradientUnits="userSpaceOnUse" gradientTransform="rotate(180 286.882 135.6) scale(41.253)"><stop stop-color="#FFC8AF"/><stop offset="1" stop-color="#FFBB9C"/></radialGradient><radialGradient id="G" cx="0" cy="0" r="1" gradientUnits="userSpaceOnUse" gradientTransform="translate(146.913 126.84) scale(21.1345)"><stop stop-color="#FFC8AF"/><stop offset="1" stop-color="#FFBB9C"/></radialGradient><radialGradient id="e" cx="0" cy="0" r="1" gradientUnits="userSpaceOnUse" gradientTransform="translate(296.936 129.043) scale(46.8419)"><stop stop-color="#FFC8AF"/><stop offset="1" stop-color="#FFBB9C"/></radialGradient><radialGradient id="I" cx="0" cy="0" r="1" gradientUnits="userSpaceOnUse" gradientTransform="translate(146.913 126.84) scale(21.1346)"><stop stop-color="#E9B495"/><stop offset="1" stop-color="#E9A885"/></radialGradient><radialGradient id="J" cx="0" cy="0" r="1" gradientUnits="userSpaceOnUse" gradientTransform="translate(146.913 126.84) scale(21.1346)"><stop stop-color="#E9B495"/><stop offset="1" stop-color="#E9A885"/></radialGradient><radialGradient id="K" cx="0" cy="0" r="1" gradientUnits="userSpaceOnUse" gradientTransform="translate(146.913 126.84) scale(21.1346)"><stop stop-color="#E9B495"/><stop offset="1" stop-color="#E9A885"/></radialGradient><radialGradient id="c" cx="0" cy="0" r="1" gradientUnits="userSpaceOnUse" gradientTransform="translate(318.48 105.384) scale(39.7064)"><stop stop-color="#FFC8AF"/><stop offset="1" stop-color="#FFBB9C"/></radialGradient><radialGradient id="F" cx="0" cy="0" r="1" gradientUnits="userSpaceOnUse" gradientTransform="rotate(12.086 -1989.258 412.5) scale(7.00292)"><stop stop-color="#FFC8AF"/><stop offset="1" stop-color="#FFBB9C"/></radialGradient></defs></svg>