<svg width="714" height="457" viewBox="0 0 714 457" fill="none" xmlns="http://www.w3.org/2000/svg">
<path d="M652.989 324.24H61.4906C34.664 324.24 12.916 345.988 12.916 372.815V397.492C12.916 424.32 34.664 446.068 61.4906 446.068H652.989C679.816 446.068 701.565 424.32 701.565 397.492V372.815C701.565 345.988 679.816 324.24 652.989 324.24Z" fill="#F0F5F7"/>
<path d="M589.667 208.377H124.813C97.9867 208.377 76.2386 230.125 76.2386 256.952V281.631C76.2386 308.457 97.9867 330.205 124.813 330.205H589.667C616.493 330.205 638.243 308.457 638.243 281.631V256.952C638.243 230.125 616.493 208.377 589.667 208.377Z" fill="#F0F5F7"/>
<path d="M621.604 91.08H92.876C66.0493 91.08 44.3013 112.829 44.3013 139.656V164.333C44.3013 191.161 66.0493 212.909 92.876 212.909H621.604C648.432 212.909 670.18 191.161 670.18 164.333V139.656C670.18 112.829 648.432 91.08 621.604 91.08" fill="#F0F5F7"/>
<path d="M594.197 23.4774H175.04C148.212 23.4774 126.465 45.2253 126.465 72.0533V96.7307C126.465 123.557 148.212 145.305 175.04 145.305H594.197C621.027 145.305 642.773 123.557 642.773 96.7307V72.0533C642.773 45.2253 621.027 23.4774 594.197 23.4774Z" fill="#F0F5F7"/>
<path d="M376.432 445.355H486.047V237.94H376.432V445.355Z" fill="#DCE8EF"/>
<path d="M474.66 436.263V434.263H389.819V386.015H472.66V436.263H474.66V434.263V436.263H476.66V382.015H385.819V438.263H476.66V436.263H474.66" fill="#F0F5F7"/>
<path d="M474.66 368.215V366.215H389.819V317.967H472.66V368.215H474.66V366.215V368.215H476.66V313.967H385.819V370.215H476.66V368.215H474.66" fill="#F0F5F7"/>
<path d="M474.66 300.168V298.168H389.819V249.919H472.66V300.168H474.66V298.168V300.168H476.66V245.92H385.819V302.168H476.66V300.168H474.66" fill="#F0F5F7"/>
<path d="M446.391 397.332H416.088V392.888H446.391V397.332Z" fill="#F0F5F7"/>
<path d="M446.391 327.639H416.088V323.195H446.391V327.639Z" fill="#F0F5F7"/>
<path d="M416.088 257.948H446.391V253.503H416.088V257.948Z" fill="#F0F5F7"/>
<path d="M708.575 456.364H5.81333C3.13067 456.364 0.956009 454.191 0.956009 451.507V450.21C0.956009 447.528 3.13067 445.355 5.81333 445.355H708.575C711.256 445.355 713.431 447.528 713.431 450.21V451.507C713.431 454.191 711.256 456.364 708.575 456.364" fill="#DCE8EF"/>
<path d="M151.507 29.5494V8.31071C151.507 5.94271 153.424 4.02536 155.792 4.02536H596.58C598.947 4.02536 600.864 5.94271 600.864 8.31071V23.932C598.685 23.632 596.459 23.4774 594.197 23.4774H175.04C166.503 23.4774 158.477 25.6814 151.507 29.5494Z" fill="#DCE8EF"/>
<path d="M596.58 267.4H486.047V237.94H376.432V267.4H155.792C153.424 267.4 151.507 265.48 151.507 263.113V247.077C156.655 245.485 159.396 243.567 159.396 243.567C159.396 243.567 159.969 242.46 160.175 240.74C160.339 239.348 160.256 237.544 159.396 235.66L152.843 236.931L151.507 236.692V216.36C153.449 217.681 155.42 218.748 157.389 219.604L159.493 212.909H600.864V263.113C600.864 265.48 598.947 267.4 596.58 267.4" fill="#CFDFE8"/>
<path d="M600.864 212.909H159.493L163.903 198.877C152.351 189.047 156.571 167.091 152.555 156.481C152.227 155.631 151.876 154.813 151.507 154.028V142.247C152.369 142.436 153.06 142.559 153.409 142.559C153.453 142.559 153.493 142.556 153.525 142.552C153.871 142.523 154.776 142.144 155.976 141.421C161.829 143.923 168.273 145.305 175.04 145.305H594.197C596.459 145.305 598.685 145.151 600.864 144.852V212.909Z" fill="#CFDFE8"/>
<path d="M594.197 145.305H175.04C168.273 145.305 161.829 143.923 155.976 141.421C158.752 139.751 163.107 136.237 165.743 130.931C169.367 123.729 170.659 113.301 170.757 112.357C173.883 112.357 176.095 111.051 177.9 108.573C176.889 108.545 176.136 107.649 175.613 106.784C174.529 104.992 173.805 102.997 172.727 101.2C170.085 96.808 165.109 93.8374 160.329 92.3427C157.596 91.4894 154.596 91.0454 151.653 91.0454C151.604 91.0454 151.556 91.0454 151.507 91.0454V29.5494C158.477 25.6814 166.503 23.4774 175.04 23.4774H594.197C596.459 23.4774 598.685 23.632 600.864 23.932V144.852C598.685 145.151 596.459 145.305 594.197 145.305ZM167.679 111.911C167.656 111.904 167.633 111.896 167.611 111.889C167.633 111.896 167.656 111.904 167.679 111.911ZM167.565 111.876C167.533 111.867 167.501 111.856 167.469 111.847C167.501 111.856 167.533 111.867 167.565 111.876ZM167.413 111.828C164.003 110.763 160.057 108.817 158.32 108.819C160.059 108.819 164.003 110.763 167.413 111.828ZM158.093 108.831C158.164 108.823 158.24 108.817 158.32 108.819C158.24 108.819 158.164 108.823 158.093 108.831Z" fill="#CFDFE8"/>
<path d="M486.047 267.4H476.66V245.92H385.819V267.4H376.432V237.94H486.047V267.4ZM472.66 267.4H389.819V249.919H472.66V267.4ZM416.088 253.503V257.948H446.391V253.503H416.088Z" fill="#BED3E0"/>
<path d="M476.66 267.4H472.66V249.919H389.819V267.4H385.819V245.92H476.66V267.4" fill="#CFDFE8"/>
<path d="M416.088 257.948H446.391V253.503H416.088V257.948Z" fill="#CFDFE8"/>
<path d="M595.061 261.735H157.309C154.943 261.735 153.025 259.816 153.025 257.449V4.42541C153.025 2.05875 154.943 0.138761 157.309 0.138761H595.061C597.428 0.138761 599.347 2.05875 599.347 4.42541V257.449C599.347 259.816 597.428 261.735 595.061 261.735" fill="#DCE8EF"/>
<path d="M169.192 47.1707C168.823 47.1707 168.525 46.872 168.525 46.504V23.4774C168.525 23.1094 168.823 22.8107 169.192 22.8107H517.268C517.637 22.8107 517.935 23.1094 517.935 23.4774V46.504C517.935 46.872 517.637 47.1707 517.268 47.1707H169.192Z" fill="#F9FBFC"/>
<path d="M517.268 22.144H169.192C168.456 22.144 167.859 22.7413 167.859 23.4773V46.504C167.859 47.24 168.456 47.8373 169.192 47.8373H517.268C518.005 47.8373 518.601 47.24 518.601 46.504V23.4773C518.601 22.7413 518.005 22.144 517.268 22.144ZM517.268 23.4773V46.504H169.192V23.4773H517.268Z" fill="#C3D3DD"/>
<path d="M198.1 38.4907V31.4907H363.868V38.4907H198.1Z" fill="#DCE8EF"/>
<path d="M191.543 34.9907C191.543 38.7587 188.488 41.812 184.721 41.812C180.955 41.812 177.9 38.7587 177.9 34.9907C177.9 31.2227 180.955 28.1693 184.721 28.1693C188.488 28.1693 191.543 31.2227 191.543 34.9907Z" fill="#DCE8EF"/>
<path d="M524.769 47.1707C524.401 47.1707 524.103 46.872 524.103 46.504V23.4774C524.103 23.1094 524.401 22.8107 524.769 22.8107H583.18C583.548 22.8107 583.847 23.1094 583.847 23.4774V46.504C583.847 46.872 583.548 47.1707 583.18 47.1707H524.769Z" fill="#F9FBFC"/>
<path d="M583.18 22.144H524.769C524.032 22.144 523.436 22.7413 523.436 23.4773V46.504C523.436 47.24 524.032 47.8373 524.769 47.8373H583.18C583.916 47.8373 584.513 47.24 584.513 46.504V23.4773C584.513 22.7413 583.916 22.144 583.18 22.144ZM583.18 23.4773V46.504H524.769V23.4773H583.18Z" fill="#C3D3DD"/>
<path d="M169.192 242.729V61.26C169.192 59.6933 170.463 58.4213 172.029 58.4213H580.341C581.909 58.4213 583.18 59.6933 583.18 61.26V242.729C583.18 244.297 581.909 245.568 580.341 245.568H172.029C170.463 245.568 169.192 244.297 169.192 242.729" fill="url(#paint0_linear)"/>
<path d="M181.509 170.94V71.4787C181.509 70.4174 182.368 69.5573 183.429 69.5573H361.947C363.008 69.5573 363.868 70.4174 363.868 71.4787V170.94C363.868 172.001 363.008 172.861 361.947 172.861H183.429C182.368 172.861 181.509 172.001 181.509 170.94" fill="url(#paint1_linear)"/>
<path d="M181.509 223.665H255.264V222.153H181.509V223.665Z" fill="#B0B7F7"/>
<path d="M181.509 214.043H255.264V212.531H181.509V214.043Z" fill="#B0B7F7"/>
<path d="M181.509 204.421H363.868V202.91H181.509V204.421Z" fill="#B0B7F7"/>
<path d="M181.509 194.8H363.868V193.289H181.509V194.8Z" fill="#B0B7F7"/>
<path d="M181.509 185.179H363.868V183.667H181.509V185.179Z" fill="#B0B7F7"/>
<path d="M388.503 223.665H421.457V222.153H388.503V223.665Z" fill="#B0B7F7"/>
<path d="M388.503 214.043H421.457V212.531H388.503V214.043Z" fill="#B0B7F7"/>
<path d="M388.503 204.421H469.983V202.91H388.503V204.421Z" fill="#B0B7F7"/>
<path d="M388.503 194.8H469.983V193.289H388.503V194.8Z" fill="#B0B7F7"/>
<path d="M388.503 185.179H469.983V183.667H388.503V185.179Z" fill="#B0B7F7"/>
<path d="M390.681 69.5573H467.805C469.008 69.5573 469.981 70.5333 469.981 71.736V170.684C469.981 171.887 469.008 172.861 467.805 172.861H390.681C389.477 172.861 388.503 171.887 388.503 170.684V71.736C388.503 70.5333 389.477 69.5573 390.681 69.5573Z" fill="#EC827D"/>
<path d="M491.56 69.5573H568.685C569.888 69.5573 570.861 70.5334 570.861 71.736V114.187C570.861 115.389 569.888 116.364 568.685 116.364H491.56C490.359 116.364 489.383 115.389 489.383 114.187V71.736C489.383 70.5334 490.359 69.5573 491.56 69.5573Z" fill="#56548C"/>
<path d="M491.56 122.831H568.685C569.888 122.831 570.861 123.805 570.861 125.008V167.459C570.861 168.661 569.888 169.636 568.685 169.636H491.56C490.359 169.636 489.383 168.661 489.383 167.459V125.008C489.383 123.805 490.359 122.831 491.56 122.831Z" fill="#FBD15B"/>
<path d="M491.56 176.103H568.685C569.888 176.103 570.861 177.079 570.861 178.28V220.731C570.861 221.933 569.888 222.909 568.685 222.909H491.56C490.359 222.909 489.383 221.933 489.383 220.731V178.28C489.383 177.079 490.359 176.103 491.56 176.103Z" fill="#BEE1F4"/>
<path d="M168.147 10.8C168.147 13.0854 166.296 14.936 164.011 14.936C161.727 14.936 159.875 13.0854 159.875 10.8C159.875 8.51603 161.727 6.66403 164.011 6.66403C166.296 6.66403 168.147 8.51603 168.147 10.8" fill="#606BF1"/>
<path d="M183.124 10.8C183.124 13.0854 181.272 14.936 178.988 14.936C176.704 14.936 174.853 13.0854 174.853 10.8C174.853 8.51603 176.704 6.66403 178.988 6.66403C181.272 6.66403 183.124 8.51603 183.124 10.8" fill="#FBD15B"/>
<path d="M198.1 10.8C198.1 13.0854 196.249 14.936 193.965 14.936C191.681 14.936 189.829 13.0854 189.829 10.8C189.829 8.51603 191.681 6.66403 193.965 6.66403C196.249 6.66403 198.1 8.51603 198.1 10.8" fill="#EC827D"/>
<path d="M530.123 77.2894C538.779 77.2894 545.795 84.3054 545.795 92.9614C545.795 101.616 538.779 108.633 530.123 108.633C521.468 108.633 514.451 101.616 514.451 92.9614C514.451 84.3054 521.468 77.2894 530.123 77.2894Z" fill="#EC827D"/>
<path d="M539.283 91.02L527.224 84.0574C525.729 83.1947 523.861 84.2734 523.861 85.9987V99.9227C523.861 101.648 525.729 102.727 527.224 101.864L539.283 94.9014C540.776 94.0387 540.776 91.8827 539.283 91.02Z" fill="#F9FBFC"/>
<path d="M223.977 189.544C223.281 200.476 224.785 211.297 226.032 222.925C226.105 223.549 226.143 224.209 226.216 224.869C227.353 240.423 223.977 262.689 223.977 262.689C224.601 262.836 225.189 262.981 225.812 263.092C234.727 265.073 243.493 266.028 251.417 266.468C253.361 266.577 255.232 266.651 257.029 266.688C269.061 266.944 278.488 266.028 282.56 265.513C283.955 265.331 284.725 265.22 284.725 265.22C284.725 265.22 285.825 197.724 287.183 191.525C266.713 193.176 239.899 181.841 233.663 162.069C228.087 168.781 224.821 176.961 223.977 189.544" fill="#112B46"/>
<path d="M272.235 82.4614C271.527 82.9214 267.932 83.7107 267.219 84.0893C269.601 85.9627 274.561 89.3627 278.063 94.0694C285.663 104.279 290.584 114.141 288.807 122.899C298.413 127.196 308.791 129.337 319.013 127.821C342.02 124.299 354.751 112.743 354.751 112.743C354.751 112.743 360.78 111.699 364.475 109.519C368.173 107.337 368.589 105.301 369.417 103.024C370.248 100.747 369.441 99.092 367.469 99.5747C365.496 100.057 357.479 103.723 357.479 103.723C357.479 103.723 360.616 99.8694 359.487 98.5334C358.345 97.2494 355.044 101.112 353.36 102.66C351.607 104.163 351.016 106.556 351.016 106.556C351.016 106.556 329.967 114.119 320.365 113.224C310.735 112.347 295.709 107.455 285.487 96.4067C280.9 91.4467 276.484 86.1294 272.235 82.4614" fill="url(#paint2_radial)"/>
<path d="M281.391 67.004C280.88 66.4414 280.337 65.904 279.841 65.3307C278.857 64.1934 278.141 62.8787 278.092 61.3507C278.041 59.828 278.523 58.328 278.593 56.8027C278.749 53.5747 277.385 50.6214 275.372 48.172C274.293 46.86 273.036 45.6854 271.707 44.7054C269.751 43.2654 267.584 42.008 265.231 41.3947C259.717 39.9574 255.717 43.4467 255.263 43.3707C251.891 42.8054 246.96 43.6134 244.273 45.4227C241.352 47.392 239.316 50.312 238.149 53.6094C236.739 57.6 236.7 61.7454 236.417 65.9174C236.305 67.5494 236.115 69.2454 235.236 70.6254C234.325 72.0534 232.796 72.96 231.688 74.24C229.925 76.276 229.428 79.132 229.879 81.7334C230.347 84.4307 231.557 86.6814 229.436 89.0694C228.308 90.3374 226.841 91.276 225.752 92.5774C223.224 95.596 223.087 100.353 226.197 102.999C229.803 106.061 234.584 104.055 237.541 101.159C238.889 99.8387 240.052 98.344 241.344 96.9707C243.808 94.3494 246.735 92.1827 249.877 90.4334C251.961 89.2734 254.211 88.1107 254.961 85.6707C255.793 82.9654 253.387 80.764 253.796 79.0747C254.296 77.0334 256.773 76.2534 258.411 74.4787C260.028 72.6734 259.581 70.2534 260.711 64.5187C261.843 58.7827 264.8 54.4827 264.8 54.4827C268.939 57.9614 273.367 58.7547 274.395 63.6C275.441 68.4774 273.501 76.3081 272.404 79.2134L265.971 79.8574L265.977 82.9347C266.379 83.0387 268.459 83.7134 271.429 86.0067C271.903 86.3707 272.961 86.06 273.46 85.936C274.472 85.6827 275.476 85.2494 276.336 84.652C277.932 83.5414 279.069 81.6894 279.075 79.7147C279.077 78.2534 279.54 76.8014 280.356 75.5894C281.176 74.372 282.617 73.5587 283.145 72.1494C283.628 70.8667 283.161 69.4054 282.435 68.3107C282.125 67.8454 281.767 67.4174 281.391 67.004" fill="url(#paint3_linear)"/>
<path d="M280.429 95.56C276.929 90.8547 273.812 87.8801 271.429 86.0067C268.459 83.7134 266.379 83.0147 265.977 82.9107L265.981 84.3627C265.981 84.3627 262.111 87.6121 254.961 85.6707C254.805 86.2734 254.519 86.8681 253.985 87.4814C252.568 89.1107 250.417 89.984 248.623 91.12C245.06 93.3707 241.724 95.8894 239.209 99.3174C236.815 102.581 235.167 106.403 234.513 110.401C233.845 114.481 233.471 118.359 233.921 122.505C234.328 126.232 235.184 129.884 235.96 133.545C237.515 140.879 238.236 148.188 234.836 155.148C234.429 155.979 233.981 156.788 233.497 157.577C224.713 171.893 224.139 187.529 224.139 187.529C247.345 194.379 270.893 195.043 287.183 191.525C286.785 186.28 285.011 167.647 284.256 164.131C283.885 162.348 283.647 160.572 283.568 158.703C268.157 153.015 254.961 140.101 246.271 126.744C242.091 120.308 234.929 104.345 243.413 98.1481C243.868 97.8374 244.309 97.5761 244.835 97.3094C255.855 91.6601 262.063 107.164 269.685 121.023C273.844 128.577 279.869 134.605 286.053 139.093C287.148 134.741 288.463 130.687 289.555 127.487C289.831 126.727 290.007 125.943 290.151 125.176C291.927 116.419 288.029 105.771 280.429 95.56" fill="#F0F5F7"/>
<path d="M243.413 98.148C234.929 104.345 242.091 120.308 246.271 126.744C254.961 140.101 268.157 153.015 283.568 158.703C287.52 160.204 291.633 161.185 295.869 161.581C320.219 163.869 336.168 155.312 336.168 155.312C336.168 155.312 342.563 155.755 346.881 154.485C351.2 153.215 352.133 151.259 353.565 149.137C354.996 147.015 354.62 145.149 352.48 145.135C350.341 145.117 341.219 146.837 341.219 146.837C341.219 146.837 345.439 143.667 344.601 142.031C343.783 140.427 339.444 143.54 337.304 144.675C335.112 145.799 333.937 148.067 333.937 148.067C333.937 148.067 310.536 150.416 300.948 147.085C296.548 145.551 291.265 142.875 286.053 139.093C279.869 134.605 273.844 128.577 269.685 121.023C262.063 107.164 255.855 91.66 244.835 97.3094C244.309 97.576 243.868 97.8374 243.413 98.148" fill="url(#paint4_radial)"/>
<path d="M265.971 80.2747C265.971 80.2747 271.86 80.3267 272.623 79.532C273.899 78.204 275.441 68.4774 274.395 63.6C273.367 58.7547 268.939 57.9614 264.8 54.4827C264.8 54.4827 261.843 58.7827 260.711 64.5187C259.581 70.2533 260.028 72.6734 258.411 74.4787C256.773 76.2534 254.296 77.0334 253.796 79.0747C253.387 80.764 255.793 82.9654 254.961 85.6707C262.157 87.7734 265.981 84.3627 265.981 84.3627L265.971 80.2747" fill="url(#paint5_radial)"/>
<path d="M429.243 93.7014C414.053 93.7014 401.737 106.019 401.737 121.212C401.737 136.401 414.053 148.719 429.243 148.719C444.432 148.719 456.749 136.401 456.749 121.212C456.749 106.019 444.432 93.7014 429.243 93.7014ZM429.243 95.8147C443.245 95.8147 454.636 107.208 454.636 121.212C454.636 135.215 443.245 146.605 429.243 146.605C415.241 146.605 403.849 135.215 403.849 121.212C403.849 107.208 415.241 95.8147 429.243 95.8147Z" fill="#FBD15B"/>
<path fill-rule="evenodd" clip-rule="evenodd" d="M446.36 130.649C444.151 134.651 440.611 137.812 436.299 139.479C437.335 137.631 438.556 134.755 439.357 130.649H446.36ZM440.207 121.939H448.789C448.691 124.525 448.055 126.96 447.056 129.196H439.591C439.929 127.067 440.169 124.679 440.207 121.939ZM438.757 120.485H430.064V113.227H438.156C438.493 115.357 438.725 117.759 438.757 120.485ZM430.064 121.939H438.751C438.716 124.679 438.481 127.072 438.139 129.196H430.064V121.939ZM437.888 130.649C436.996 135.213 435.584 138.283 434.496 140.077C433.076 140.469 431.589 140.68 430.064 140.751V130.649H437.888ZM428.612 130.649V140.776C427.088 140.729 425.62 140.487 424.204 140.111C423.111 138.32 421.688 135.241 420.792 130.649H428.612ZM419.323 130.649C420.132 134.796 421.373 137.696 422.415 139.541C418.003 137.899 414.367 134.713 412.119 130.649H419.323ZM419.084 129.196H411.424C410.417 126.96 409.775 124.525 409.68 121.939H418.472C418.511 124.679 418.745 127.067 419.084 129.196ZM418.469 120.485H409.693C409.787 117.907 410.368 115.456 411.371 113.227H419.068C418.729 115.357 418.501 117.759 418.469 120.485ZM412.097 111.779C414.343 107.719 417.977 104.545 422.372 102.899C421.336 104.764 420.116 107.673 419.309 111.779H412.097ZM424.155 102.329C425.583 101.943 427.073 101.699 428.612 101.649V111.779H420.763C421.649 107.22 423.065 104.153 424.155 102.329ZM420.524 113.227H428.612V120.485H419.917C419.955 117.759 420.181 115.357 420.524 113.227ZM420.536 129.196C420.197 127.072 419.963 124.679 419.925 121.939H428.612V129.196H420.536ZM430.064 111.779V101.644C431.611 101.715 433.109 101.959 434.545 102.363C435.627 104.191 437.032 107.244 437.917 111.779H430.064ZM436.336 102.961C440.636 104.628 444.159 107.789 446.371 111.779H439.364C438.573 107.715 437.363 104.831 436.336 102.961ZM439.612 113.227H447.097C448.1 115.46 448.701 117.907 448.805 120.485H440.215C440.173 117.759 439.951 115.352 439.612 113.227Z" fill="#FBD15B"/>
<path d="M550.901 189.676V211.769H509.344V189.676L528.701 205.104C529.532 205.769 530.712 205.769 531.528 205.104L550.901 189.676Z" fill="#878CF0"/>
<path d="M546.685 187.243L530.123 200.435L513.56 187.243H546.685Z" fill="#878CF0"/>
<path d="M530.117 145.444C526.941 145.444 524.365 142.868 524.365 139.693C524.365 136.507 526.941 133.931 530.117 133.931C533.293 133.931 535.869 136.507 535.869 139.693C535.869 142.868 533.293 145.444 530.117 145.444ZM530.117 128.8C524.103 128.8 519.235 133.679 519.235 139.693C519.235 150.481 530.117 163.667 530.117 163.667C530.117 163.667 541.011 150.481 541.011 139.693C541.011 133.679 536.132 128.8 530.117 128.8Z" fill="#EC827D"/>
<path d="M235.253 356.172C234.585 353.752 235.751 350.444 237.437 348.713C239.08 347.029 241.105 346.455 242.481 347.276C242.144 344.337 243.576 341.375 245.815 339.552C248.484 337.38 250.788 338.385 250.931 338.452C252.035 335.047 254.631 332.095 257.943 330.788C261.421 329.416 263.54 331.036 263.851 331.28C264.084 331.023 266.128 328.889 268.687 328.659C270.893 328.46 273.36 330.333 272.873 332.512C274.091 332.861 275.74 334.639 275.671 336.527C275.609 338.156 274.608 339.849 273.073 341.056C275.143 342.565 275.409 345.508 274.1 347.893C272.889 350.1 270.519 351.521 268.06 351.436C268.217 351.647 269.417 353.367 268.875 355.68C268.444 357.519 267.117 359.06 265.331 359.823C265.481 360.041 266.725 361.927 266.14 364.3C265.676 366.184 264.257 367.713 262.364 368.384C263.201 370.203 263.123 372.296 262.151 374.024C261.087 375.917 259.08 377.157 256.927 377.105C257.772 378.767 257.361 380.804 256.107 381.877C255.075 382.759 253.571 382.869 252.425 381.976C252.657 383.559 252.012 385.148 250.871 385.877C249.929 386.477 248.761 386.391 247.892 385.58C247.845 386.591 247.424 387.523 246.763 387.991C245.885 388.613 243.544 388.551 242.559 386.865C241.62 387.775 239.771 387.576 238.937 386.749C237.959 385.779 238.011 384.013 238.021 383.829C237.163 384.759 236.02 384.844 235.236 383.968C234.431 383.065 234.221 381.341 234.771 379.887C233.587 380.121 232.487 379.448 231.979 378.057C231.34 376.304 231.797 373.7 233.129 372.031C230.2 370.384 229.676 366.487 230.377 363.532C231.076 360.591 232.753 357.933 235.253 356.172" fill="url(#paint6_linear)"/>
<path d="M238.46 371.192C239.273 372.301 240.164 373.359 241.12 374.275C241.583 374.757 242.088 375.183 242.577 375.607C242.887 375.875 243.22 376.128 243.547 376.376C244.408 372.668 245.552 369.028 246.968 365.493C246.621 365.087 246.264 364.679 245.945 364.253C245.548 363.724 245.137 363.173 244.772 362.608C244.048 361.489 243.333 360.245 242.748 358.968C242.157 357.681 241.655 356.288 241.272 354.827C240.888 353.365 240.597 351.825 240.528 350.173C240.649 351.797 240.987 353.299 241.415 354.716C241.84 356.135 242.383 357.48 243.007 358.717C243.627 359.947 244.371 361.139 245.12 362.207C245.496 362.747 245.92 363.271 246.327 363.775C246.615 364.131 246.933 364.473 247.244 364.812C248.564 361.611 250.107 358.501 251.859 355.513C251.436 354.561 251.052 353.572 250.736 352.549C250.399 351.459 250.127 350.291 249.925 349.107C249.724 347.92 249.609 346.68 249.575 345.417C249.539 344.151 249.583 342.848 249.765 341.509C249.637 342.832 249.644 344.109 249.731 345.345C249.815 346.58 249.976 347.787 250.223 348.935C250.469 350.083 250.783 351.207 251.157 352.256C251.475 353.149 251.849 354.016 252.253 354.848C254.477 351.184 256.976 347.657 259.805 344.432C259.479 342.655 259.363 340.777 259.497 338.827C259.633 336.837 260.672 332.693 260.672 332.693C260.672 332.693 259.744 336.813 259.657 338.779C259.577 340.645 259.731 342.435 260.073 344.124C263.115 340.689 266.439 337.468 270.069 334.653C267.828 336.469 265.651 338.479 263.665 340.571C264.956 341.145 266.323 341.608 267.716 342.011C269.157 342.424 272.103 343.115 272.103 343.115C272.103 343.115 269.115 342.523 267.644 342.157C266.196 341.799 264.771 341.379 263.411 340.837C260.363 344 257.648 347.495 255.217 351.147C256.043 351.316 256.876 351.472 257.721 351.588C258.683 351.723 259.655 351.845 260.628 351.94C262.575 352.133 264.536 352.292 266.495 352.397C264.519 352.389 262.531 352.332 260.549 352.249C259.557 352.207 258.564 352.141 257.577 352.065C256.652 351.993 255.735 351.881 254.821 351.753C252.869 354.783 251.14 357.955 249.652 361.236C251.78 361.667 254.008 361.823 256.229 361.891C258.6 361.964 260.989 361.964 263.36 361.917C260.984 362.059 258.581 362.163 256.184 362.201C253.905 362.24 251.605 362.199 249.367 361.871C247.883 365.225 246.649 368.691 245.681 372.227C246.663 372.208 247.653 372.167 248.639 372.076C249.813 371.968 251.013 371.837 252.199 371.669C254.569 371.335 256.945 370.936 259.291 370.461C256.957 371.031 254.584 371.533 252.204 371.984C251.015 372.209 249.808 372.403 248.619 372.575C247.585 372.723 246.54 372.821 245.5 372.9C243.453 381.417 242.769 389.775 243.393 398.52C242.761 398.572 242.445 398.597 241.813 398.649C241.455 391.276 241.955 384.329 243.385 377.087C243.013 376.783 242.633 376.476 242.281 376.148C241.799 375.695 241.3 375.245 240.844 374.733C239.904 373.76 239.033 372.644 238.245 371.483C237.451 370.312 236.733 369.012 236.12 367.632C235.505 366.249 234.975 364.771 234.639 363.151C235.021 364.735 235.592 366.167 236.241 367.499C236.891 368.831 237.64 370.077 238.46 371.192" fill="url(#paint7_linear)"/>
<path d="M194.232 370.781C192.065 369.519 190.587 366.336 190.585 363.919C190.584 361.568 191.633 359.743 193.192 359.367C190.897 357.5 189.852 354.381 190.181 351.512C190.575 348.093 192.924 347.203 193.073 347.151C191.485 343.943 191.281 340.019 192.739 336.769C194.268 333.357 196.917 333.036 197.309 332.995C197.297 332.645 197.269 329.693 198.939 327.741C200.379 326.057 203.452 325.676 204.627 327.573C205.744 326.973 208.163 327.092 209.432 328.492C210.528 329.701 210.993 331.613 210.739 333.548C213.273 333.183 215.52 335.103 216.249 337.724C216.924 340.148 216.219 342.821 214.401 344.477C214.661 344.52 216.72 344.913 217.948 346.947C218.923 348.563 219.052 350.592 218.305 352.387C218.567 352.437 220.773 352.917 222.012 355.025C222.995 356.696 223.049 358.783 222.164 360.584C224.032 361.301 225.439 362.855 225.951 364.769C226.512 366.867 225.941 369.156 224.364 370.624C226.131 371.223 227.257 372.967 227.109 374.612C226.988 375.964 225.988 377.093 224.545 377.253C225.816 378.224 226.465 379.812 226.157 381.132C225.904 382.219 225.007 382.972 223.817 382.999C224.491 383.755 224.84 384.715 224.695 385.513C224.501 386.571 222.781 388.161 220.9 387.644C220.863 388.952 219.401 390.099 218.227 390.089C216.848 390.08 215.652 388.78 215.531 388.641C215.568 389.907 214.808 390.765 213.636 390.685C212.428 390.603 211.075 389.515 210.452 388.089C209.768 389.084 208.511 389.372 207.177 388.732C205.493 387.923 204.003 385.741 203.791 383.616C200.544 384.483 197.445 382.061 195.884 379.456C194.329 376.863 193.675 373.789 194.232 370.781" fill="url(#paint8_linear)"/>
<path d="M207.019 379.292C208.375 379.516 209.751 379.651 211.076 379.639C211.745 379.663 212.403 379.612 213.048 379.576C213.457 379.551 213.872 379.499 214.28 379.448C212.305 376.195 210.581 372.789 209.127 369.271C208.593 369.221 208.053 369.18 207.528 369.097C206.873 368.996 206.195 368.889 205.539 368.74C204.241 368.445 202.86 368.053 201.548 367.548C200.228 367.04 198.895 366.393 197.6 365.616C196.305 364.84 195.021 363.939 193.815 362.805C195.037 363.883 196.328 364.721 197.624 365.437C198.919 366.153 200.249 366.739 201.559 367.189C202.861 367.636 204.227 367.968 205.508 368.209C206.153 368.332 206.824 368.413 207.468 368.488C207.921 368.541 208.389 368.565 208.849 368.591C207.556 365.377 206.488 362.075 205.655 358.712C204.688 358.327 203.721 357.887 202.781 357.376C201.779 356.831 200.768 356.185 199.797 355.477C198.823 354.771 197.875 353.963 196.968 353.084C196.059 352.201 195.18 351.24 194.375 350.153C195.207 351.191 196.105 352.099 197.029 352.923C197.952 353.748 198.912 354.497 199.889 355.147C200.865 355.797 201.877 356.383 202.877 356.871C203.731 357.288 204.601 357.648 205.472 357.96C204.505 353.784 203.831 349.517 203.6 345.232C202.127 344.189 200.732 342.924 199.467 341.436C198.173 339.917 196.021 336.227 196.021 336.227C196.021 336.227 198.236 339.824 199.547 341.289C200.793 342.681 202.153 343.856 203.577 344.825C203.355 340.243 203.483 335.615 204.116 331.065C203.78 333.928 203.628 336.889 203.667 339.772C204.991 339.283 206.293 338.659 207.571 337.972C208.892 337.263 211.481 335.699 211.481 335.699C211.481 335.699 208.928 337.363 207.623 338.129C206.336 338.881 205.023 339.579 203.671 340.141C203.699 344.532 204.196 348.929 205.008 353.243C205.717 352.787 206.421 352.315 207.109 351.808C207.891 351.233 208.671 350.641 209.435 350.029C210.961 348.808 212.476 347.552 213.952 346.259C212.532 347.635 211.071 348.981 209.593 350.305C208.856 350.969 208.097 351.616 207.339 352.251C206.627 352.845 205.892 353.407 205.149 353.953C205.868 357.483 206.847 360.961 208.073 364.349C209.897 363.171 211.6 361.727 213.237 360.223C214.984 358.62 216.695 356.949 218.359 355.261C216.757 357.023 215.111 358.775 213.421 360.477C211.817 362.097 210.144 363.675 208.313 365.003C209.593 368.44 211.132 371.78 212.909 374.988C213.597 374.289 214.279 373.567 214.919 372.815C215.687 371.916 216.452 370.984 217.184 370.036C218.645 368.14 220.069 366.196 221.415 364.219C220.143 366.255 218.796 368.273 217.408 370.256C216.713 371.251 215.984 372.231 215.253 373.184C214.619 374.013 213.939 374.813 213.249 375.596C217.735 383.123 223.083 389.58 229.637 395.401C229.221 395.88 229.015 396.119 228.599 396.597C223.191 391.573 218.695 386.251 214.661 380.071C214.183 380.112 213.695 380.157 213.215 380.168C212.553 380.183 211.881 380.208 211.197 380.16C209.845 380.12 208.444 379.931 207.068 379.649C205.683 379.367 204.259 378.937 202.857 378.379C201.452 377.817 200.04 377.131 198.668 376.207C200.047 377.073 201.456 377.697 202.852 378.197C204.245 378.697 205.652 379.067 207.019 379.292" fill="url(#paint9_linear)"/>
<path d="M249.919 359.409C251.501 357.147 251.761 353.065 250.912 350.419C250.084 347.844 248.459 346.269 246.867 346.491C248.356 343.517 248.233 339.681 246.913 336.673C245.34 333.089 242.827 333.068 242.668 333.071C243.023 328.915 241.829 324.535 239.32 321.569C236.685 318.453 234.092 319.177 233.711 319.289C233.599 318.904 232.584 315.659 230.332 314.197C228.392 312.939 225.38 313.765 224.952 316.319C223.695 316.115 221.472 317.225 220.779 319.272C220.18 321.039 220.417 323.32 221.34 325.336C218.839 325.963 217.415 328.973 217.655 332.139C217.879 335.068 219.481 337.707 221.767 338.784C221.537 338.935 219.751 340.199 219.319 342.923C218.975 345.087 219.572 347.361 220.903 349.025C220.677 349.185 218.78 350.604 218.364 353.413C218.035 355.641 218.719 357.948 220.184 359.561C218.688 361.103 217.92 363.372 218.116 365.676C218.331 368.2 219.673 370.475 221.665 371.443C220.225 372.813 219.784 375.18 220.503 376.92C221.093 378.352 222.428 379.184 223.836 378.773C222.987 380.351 222.941 382.353 223.695 383.672C224.315 384.759 225.42 385.22 226.543 384.768C226.18 385.869 226.192 387.061 226.609 387.876C227.163 388.956 229.333 390.001 230.913 388.672C231.408 390.087 233.181 390.751 234.276 390.267C235.563 389.696 236.223 387.789 236.288 387.588C236.699 388.987 237.712 389.621 238.783 389.057C239.883 388.477 240.765 386.739 240.847 384.927C241.836 385.74 243.115 385.544 244.137 384.303C245.427 382.736 246.053 379.743 245.501 377.329C248.845 376.964 250.891 373.057 251.432 369.573C251.972 366.104 251.503 362.473 249.919 359.409" fill="url(#paint10_linear)"/>
<path d="M240.956 373.904C239.765 374.699 238.525 375.405 237.281 375.928C236.664 376.224 236.029 376.436 235.413 376.657C235.023 376.797 234.615 376.908 234.215 377.019C234.916 372.655 235.328 368.229 235.449 363.789C235.928 363.52 236.42 363.252 236.883 362.952C237.459 362.576 238.056 362.184 238.619 361.753C239.729 360.905 240.883 359.917 241.932 358.832C242.988 357.741 244.009 356.493 244.945 355.119C245.884 353.743 246.767 352.237 247.496 350.509C246.732 352.183 245.82 353.624 244.861 354.932C243.901 356.243 242.863 357.419 241.796 358.443C240.735 359.46 239.575 360.376 238.461 361.16C237.899 361.557 237.3 361.917 236.725 362.26C236.319 362.503 235.889 362.716 235.469 362.931C235.544 358.889 235.379 354.841 234.972 350.823C235.743 350.009 236.491 349.137 237.191 348.196C237.936 347.193 238.655 346.077 239.313 344.911C239.975 343.741 240.579 342.472 241.116 341.141C241.656 339.809 242.139 338.399 242.509 336.884C242.096 338.356 241.576 339.715 241.003 340.992C240.429 342.268 239.797 343.476 239.111 344.584C238.424 345.692 237.687 346.743 236.921 347.684C236.272 348.484 235.583 349.232 234.877 349.925C234.309 344.963 233.436 340.019 232.14 335.235C233.151 333.495 234.011 331.547 234.671 329.404C235.344 327.217 236.056 322.305 236.056 322.305C236.056 322.305 235.252 327.14 234.543 329.276C233.867 331.305 233.009 333.14 232.019 334.78C230.609 329.672 228.857 324.657 226.66 319.935C227.985 322.933 229.172 326.112 230.152 329.285C228.741 329.285 227.303 329.129 225.864 328.896C224.377 328.655 221.403 327.992 221.403 327.992C221.403 327.992 224.379 328.779 225.871 329.087C227.341 329.391 228.816 329.621 230.279 329.691C231.801 334.509 232.887 339.524 233.648 344.573C232.824 344.361 231.997 344.132 231.176 343.856C230.243 343.541 229.304 343.211 228.372 342.851C226.513 342.132 224.652 341.369 222.815 340.553C224.629 341.481 226.472 342.364 228.321 343.217C229.247 343.643 230.184 344.045 231.119 344.432C231.993 344.795 232.879 345.111 233.767 345.409C234.339 349.565 234.651 353.768 234.697 357.973C232.576 357.423 230.472 356.531 228.411 355.549C226.209 354.501 224.02 353.367 221.868 352.193C223.987 353.472 226.145 354.723 228.327 355.904C230.4 357.027 232.521 358.075 234.703 358.787C234.717 363.068 234.457 367.348 233.925 371.58C233.033 371.092 232.141 370.579 231.277 370.015C230.244 369.341 229.196 368.632 228.179 367.891C226.14 366.409 224.124 364.856 222.168 363.236C224.076 364.951 226.048 366.615 228.047 368.223C229.047 369.028 230.075 369.807 231.095 370.555C231.981 371.204 232.9 371.805 233.82 372.383C232.279 382.439 229.552 391.675 225.472 400.701C226.028 401.059 226.307 401.236 226.865 401.592C230.153 393.9 232.483 386.253 234.079 377.853C234.541 377.704 235.013 377.557 235.467 377.375C236.089 377.121 236.728 376.877 237.351 376.548C238.603 375.957 239.847 375.181 241.036 374.316C242.233 373.445 243.413 372.4 244.528 371.219C245.644 370.036 246.724 368.711 247.683 367.144C246.696 368.651 245.599 369.907 244.471 371.02C243.341 372.131 242.153 373.104 240.956 373.904" fill="url(#paint11_linear)"/>
<path d="M253.609 390.536L253.009 401.592L252.069 418.807L250.529 447.092H212.236L210.695 418.807L209.756 401.592L209.156 390.536H253.609Z" fill="#C3D3DD"/>
<path d="M253.009 401.592L252.885 403.808L252.763 406.103L252.069 418.807H210.695L210.003 406.103L209.879 403.808L209.756 401.592H253.009" fill="#DCE8EF"/>
<path d="M252.885 403.808L252.763 406.103H210.003L209.879 403.808H252.885" fill="#C3D3DD"/>
<path d="M622.077 46.4334L620.371 30.7241L573.999 7.76942L614.863 34.0854L622.077 46.4334" fill="#E3B453"/>
<path d="M573.999 7.7694L602.388 48.5694L614.863 34.0854L573.999 7.7694Z" fill="#F4C159"/>
<path d="M622.077 46.4334L611.252 38.2774L614.863 34.0854L622.077 46.4334Z" fill="#CFA44C"/>
<path d="M573.999 7.76935L631.865 21.3787L620.371 30.724L573.999 7.76935Z" fill="#F4C159"/>
<path d="M478.809 296.459H544.707V292.716H481.028L450.375 236.703L447.092 238.499L478.809 296.459" fill="#BCBEC0"/>
<path d="M584.305 177.509C584.305 177.509 585.179 183.325 588.692 188.748C592.203 194.169 600.12 202.135 602.308 202.816C603.192 203.084 606.329 201.664 609.755 199.869C610.877 199.284 612.029 198.651 613.152 198.036C617.096 195.849 620.571 193.737 620.571 193.737L625.8 186.359C623.68 175.659 619.899 167.636 614.084 160.045C608.277 152.444 595.304 157.012 590.583 160.659C585.851 164.305 583.279 170.025 584.305 177.509" fill="url(#paint12_radial)"/>
<path d="M613.391 178.4C613.545 183.177 610.393 184.979 609.761 185.789C609.132 186.6 613.364 191.012 615.256 189.031C617.147 187.051 613.391 178.4 613.391 178.4Z" fill="#EFA78B"/>
<path d="M495.02 418.935L492.68 430.181L508.117 432.838L511.672 419.965L495.02 418.935" fill="#FFC8AF"/>
<path d="M463.087 435.376L462.084 441.005L511.045 449.739L512.039 444.164C512.039 444.164 468.639 435.921 463.913 435.493L463.087 435.376Z" fill="#C3D3DD"/>
<path d="M483.891 428.747C483.808 428.628 483.761 428.498 483.752 428.359C482.769 428.736 481.751 429.124 480.711 429.527L484.173 434.322C484.452 434.702 484.357 435.238 483.979 435.515C483.781 435.652 483.548 435.697 483.331 435.659C483.131 435.622 482.927 435.5 482.804 435.322L479.215 430.364L479.12 430.124C472.544 432.612 465.649 435.146 463.913 435.493C468.639 435.921 512.039 444.164 512.039 444.164L510.492 431.21C510.425 430.66 509.895 430.296 509.349 430.403C497.859 432.651 493.868 427.65 492.783 425.712C492.552 425.302 492.06 425.132 491.621 425.302C491.115 425.497 490.391 425.777 489.505 426.121L492.927 430.859C493.204 431.238 493.112 431.755 492.735 432.033C492.537 432.171 492.303 432.233 492.084 432.195C491.883 432.157 491.681 432.035 491.543 431.839L487.972 426.883L487.908 426.751C487.111 427.057 486.22 427.4 485.275 427.767L488.847 432.721C489.125 433.098 489.048 433.621 488.653 433.896C488.473 434.036 488.239 434.098 488.004 434.057C487.804 434.021 487.6 433.898 487.479 433.704L483.891 428.747" fill="url(#paint13_linear)"/>
<path d="M482.804 435.322C482.927 435.5 483.131 435.622 483.331 435.659C483.548 435.697 483.781 435.652 483.979 435.515C484.357 435.237 484.452 434.702 484.173 434.322L480.711 429.527C480.176 429.724 479.656 429.924 479.12 430.124L479.215 430.364L482.804 435.322" fill="#C3D3DD"/>
<path d="M485.275 427.767C484.792 427.957 484.272 428.157 483.752 428.359C483.761 428.498 483.808 428.628 483.891 428.747L487.479 433.704C487.6 433.898 487.804 434.021 488.004 434.057C488.239 434.098 488.473 434.036 488.653 433.896C489.048 433.621 489.125 433.098 488.847 432.721L485.275 427.767" fill="#C3D3DD"/>
<path d="M491.543 431.839C491.681 432.035 491.883 432.157 492.084 432.195C492.303 432.233 492.537 432.171 492.735 432.033C493.112 431.755 493.204 431.238 492.927 430.859L489.505 426.121C489.024 426.31 488.483 426.527 487.908 426.751L487.972 426.883L491.543 431.839" fill="#C3D3DD"/>
<path d="M578.847 346.58C588.875 347.084 602.272 347.796 619.767 348.469C668.716 350.34 658.743 302.944 658.743 302.944L611.965 302.327C611.965 302.327 542.416 301.299 527.764 310.653C513.113 320.009 491.745 418.729 491.745 418.729L515.041 425.236C515.041 425.236 533.919 384.656 544.941 363.044C549.469 354.157 552.744 347.627 553.025 346.916C553.623 345.325 560.789 345.643 578.847 346.58" fill="#404A54"/>
<path d="M610.473 302.311C611.433 302.319 611.965 302.327 611.965 302.327L658.743 302.944C658.743 302.944 664.335 329.528 646.581 342.091C628.911 337.816 618.379 319.885 609.105 303.797L610.473 302.311" fill="#0A2033"/>
<path d="M553.025 421.704V432.369H569.715V422.116L553.025 421.704Z" fill="#FFC8AF"/>
<path d="M553.024 346.916C552.744 347.627 549.469 354.157 544.941 363.044L548.813 421.611L553.024 421.704L569.715 422.116L574.317 422.229L578.847 346.58C560.789 345.643 553.623 345.325 553.024 346.916" fill="#2F3A44"/>
<path d="M524.724 442.857V448.575H574.459V442.912C574.459 442.912 530.284 442.419 525.556 442.827L524.724 442.857Z" fill="#C3D3DD"/>
<path d="M544.039 432.676C543.937 432.575 543.868 432.455 543.835 432.319C542.933 432.863 541.999 433.424 541.047 434.003L545.297 438.117C545.637 438.44 545.637 438.984 545.313 439.324C545.144 439.495 544.923 439.58 544.701 439.58C544.499 439.58 544.277 439.495 544.124 439.341L539.72 435.089L539.584 434.869C533.548 438.473 527.205 442.181 525.556 442.827C530.284 442.419 574.459 442.912 574.459 442.912L570.66 430.431C570.499 429.9 569.911 429.636 569.393 429.836C558.475 434.068 553.669 429.845 552.259 428.128C551.961 427.763 551.447 427.683 551.044 427.927C550.581 428.208 549.917 428.612 549.105 429.105L553.305 433.169C553.645 433.492 553.645 434.02 553.323 434.36C553.152 434.528 552.932 434.632 552.711 434.632C552.507 434.632 552.285 434.547 552.116 434.376L547.729 430.125L547.643 430.007C546.913 430.448 546.096 430.941 545.229 431.469L549.616 435.72C549.956 436.043 549.972 436.569 549.633 436.91C549.48 437.08 549.259 437.183 549.021 437.183C548.816 437.183 548.596 437.096 548.443 436.927L544.039 432.676" fill="url(#paint14_linear)"/>
<path d="M544.124 439.341C544.277 439.495 544.499 439.58 544.701 439.58C544.923 439.58 545.144 439.495 545.313 439.324C545.637 438.984 545.637 438.44 545.297 438.117L541.047 434.003C540.553 434.292 540.077 434.581 539.584 434.869L539.72 435.089L544.124 439.341" fill="#C3D3DD"/>
<path d="M545.229 431.469C544.788 431.741 544.311 432.029 543.835 432.319C543.868 432.455 543.937 432.575 544.039 432.676L548.443 436.927C548.596 437.096 548.816 437.183 549.021 437.183C549.259 437.183 549.48 437.08 549.633 436.91C549.972 436.569 549.956 436.043 549.616 435.72L545.229 431.469Z" fill="#C3D3DD"/>
<path d="M552.116 434.376C552.285 434.547 552.507 434.632 552.711 434.632C552.932 434.632 553.152 434.528 553.323 434.36C553.645 434.02 553.645 433.492 553.305 433.169L549.105 429.105C548.664 429.377 548.171 429.684 547.643 430.007L547.729 430.125L552.116 434.376" fill="#C3D3DD"/>
<path d="M525.893 289.229H553.492C553.492 289.229 595.125 282.512 603.227 277.533C606.24 275.683 611.404 270.013 616.736 263.613L597.931 247.952C594.639 253.172 591.644 257.419 590.447 257.888C587.172 259.123 556.148 276.429 552.556 276.429C548.964 276.429 531.824 276.132 525.893 289.229" fill="#EFA78B"/>
<path d="M596.657 247.559L616.736 263.613C625.829 252.704 635.355 239.644 635.355 239.644L606.881 222.468C606.881 222.468 599.573 239.84 596.657 247.559" fill="url(#paint15_linear)"/>
<path d="M613.836 208.135L634.417 200.032C634.417 200.032 658.963 202.885 660.656 262.025C660.983 273.44 660.872 336.537 657.393 338.157C643.524 344.615 607.811 302.297 607.811 302.297C607.103 300.981 608.109 287.339 607.811 285.992C608.672 285.673 609.383 285.337 609.944 285.019C613.592 282.867 620.404 273.829 627.101 264.063L605.92 247.559C605.08 248.887 604.237 250.179 603.432 251.432C602.871 219.885 613.836 208.135 613.836 208.135Z" fill="url(#paint16_linear)"/>
<path d="M607.811 285.992C608.672 285.673 609.383 285.337 609.944 285.019C613.592 282.867 620.404 273.829 627.101 264.063L616.705 255.963L627.101 240.548L645.836 228.3V236.739C645.836 236.739 637.815 258.561 628.268 275.673C623.084 284.965 614.505 289.525 607.743 291.756C607.845 288.936 607.928 286.52 607.811 285.992" fill="#3030EF"/>
<path d="M547.413 282.683C547.413 282.683 590.917 264.909 593.875 264.264C594.809 264.063 598.008 259.645 601.949 253.685C602.775 252.4 605.087 248.875 605.92 247.559L627.101 264.063C620.404 273.829 613.592 282.867 609.944 285.019C609.383 285.337 608.672 285.673 607.811 285.992L607.783 285.863L607.807 285.987C595.163 290.723 549.643 292.905 548.76 293.203C547.127 294.468 543.285 294.551 539.825 293.597C538.227 293.156 536.7 292.5 535.531 291.617C532.489 289.339 527.947 292.555 525.893 294.104C524.557 295.112 521.456 295.077 520.429 294.051C522.767 280.953 547.413 282.683 547.413 282.683" fill="url(#paint17_radial)"/>
<path d="M609.14 198.621L609.755 199.869L611.08 202.547L611.319 203.036L613.833 208.132L634.417 200.032L625.8 186.359L612.153 196.405L609.14 198.621" fill="url(#paint18_radial)"/>
<path d="M645.836 236.739L624.379 269.707L599.848 255.621C599.848 255.621 606.528 229.928 613.011 215.792C617.037 207.007 628.629 202.652 639.848 209.639C649.728 215.792 649.432 230.164 645.836 236.739" fill="url(#paint19_linear)"/>
<path d="M605.371 177.413C606.159 173.835 609.432 170.541 612.383 175.328C613.113 176.515 613.361 177.932 613.508 179.319C614.032 184.305 619.836 186.499 624.173 186.829C624.86 186.881 625.58 186.877 626.26 186.753C626.34 186.74 625.319 180.909 625.26 180.585C624.905 178.615 624.317 176.708 624.411 174.717C624.512 172.513 624.471 170.303 624.287 168.103C624.184 166.884 624.032 165.647 623.529 164.531C623.028 163.417 622.123 162.425 620.944 162.097C622.328 160.296 621.904 157.543 620.413 155.829C618.923 154.115 616.625 153.301 614.369 153.039C613.995 152.996 613.584 152.949 613.323 152.679C613.179 152.531 613.099 152.333 613.007 152.149C612.22 150.604 610.292 149.924 608.565 150.089C606.84 150.256 605.261 151.095 603.736 151.917C600.424 150.069 596.243 150.087 592.759 151.584C589.276 153.08 586.477 155.941 584.653 159.264C582.495 158.653 580.047 159.184 578.335 160.633C576.623 162.084 575.695 164.412 575.943 166.641C574.616 166.623 573.105 166.687 572.241 167.695C571.861 168.137 571.663 168.712 571.571 169.288C571.236 171.365 572.239 173.552 573.92 174.815C575.304 175.852 576.891 176.139 578.568 176.42C580.247 176.703 582.277 176.723 583.292 175.355C583.476 175.105 583.635 174.805 583.921 174.689C584.113 174.611 584.329 174.632 584.536 174.633C585.632 174.639 586.664 174.06 587.437 173.285C588.209 172.511 588.763 171.549 589.307 170.599C591.364 171.519 593.889 171.299 595.755 170.036C595.663 171.58 595.92 173.484 596.163 175.019C596.568 177.585 600.545 174.944 602.235 178.389C603.923 181.835 604.763 183.763 605.777 183.155C606.791 182.547 605.371 177.413 605.371 177.413" fill="url(#paint20_linear)"/>
<path d="M606.791 178.284C606.488 176.995 607.291 175.169 608.415 175.092C609.853 174.993 610.517 176.753 610.62 178.296C610.715 179.715 610.292 182.171 608.724 181.637C607.524 181.229 608.861 179.783 608.429 178.996C607.957 178.131 606.793 179.669 606.791 178.284Z" fill="#EFA78B"/>
<path d="M609.755 199.869L611.08 202.547C615.408 199.457 615.235 194.773 615.235 194.773C615.235 194.773 613.984 197.441 609.755 199.869" fill="#EFA78B"/>
<path d="M614.419 210.776L613.593 203.784L632.469 194.773L635.864 200.391L614.419 210.776Z" fill="url(#paint21_linear)"/>
<path d="M687.536 247.62C687.535 247.787 687.528 247.849 687.527 247.908C687.509 248.104 687.501 248.155 687.487 248.264C687.44 248.639 687.344 249.295 687.195 250.3C686.077 257.764 682.081 283.347 678.36 307.089C674.639 330.829 671.196 352.711 671.196 352.711L663.804 351.548C663.804 351.543 664.057 349.929 664.503 347.096C666.063 337.179 669.961 312.368 673.469 289.937C675.224 278.723 676.88 268.101 678.097 260.237C678.707 256.305 679.205 253.06 679.552 250.779C679.725 249.639 679.86 248.739 679.951 248.12C679.995 247.811 680.028 247.572 680.049 247.419L680.069 247.273L682.281 247.516L680.064 247.329L680.069 247.273L682.281 247.516L680.064 247.329L683.525 247.62H680.052C680.053 247.415 680.061 247.375 680.064 247.329L683.525 247.62H680.052H687.536" fill="#A5B7C6"/>
<path d="M621.411 362.815H612.347V449.204C612.347 450.403 613.317 451.372 614.515 451.372H619.243C620.44 451.372 621.411 450.403 621.411 449.204V362.815" fill="#0A2033"/>
<path d="M621.411 429.624H612.347V449.204C612.347 450.403 613.317 451.372 614.515 451.372H619.243C620.44 451.372 621.411 450.403 621.411 449.204V429.624" fill="#0A2033"/>
<path d="M641.801 364.057H591.956V365.919C591.956 369.068 594.508 371.621 597.656 371.621H636.1C639.249 371.621 641.801 369.068 641.801 365.919V364.057Z" fill="#112B46"/>
<path d="M665.448 364.289H568.308C564.635 364.289 561.655 361.309 561.655 357.636V353.288C561.655 349.613 564.635 346.635 568.308 346.635H665.448C669.124 346.635 672.103 349.613 672.103 353.288V357.636C672.103 361.309 669.124 364.289 665.448 364.289Z" fill="#878CF0"/>
<path d="M663.913 446.068C663.913 448.997 661.537 451.372 658.608 451.372C655.679 451.372 653.304 448.997 653.304 446.068C653.304 443.138 655.679 440.762 658.608 440.762C661.537 440.762 663.913 443.138 663.913 446.068Z" fill="#0A2033"/>
<path d="M580.453 446.068C580.453 448.997 578.08 451.372 575.148 451.372C572.22 451.372 569.845 448.997 569.845 446.068C569.845 443.138 572.22 440.762 575.148 440.762C578.08 440.762 580.453 443.138 580.453 446.068Z" fill="#0A2033"/>
<path d="M625.996 438.804H607.761V422.869H625.996V438.804Z" fill="#112B46"/>
<path d="M663.913 442.553H569.845V440.707C569.845 437.584 572.375 435.055 575.496 435.055H658.26C661.381 435.055 663.913 437.584 663.913 440.707V442.553Z" fill="#A5B7C6"/>
<path d="M689.767 253.788L685.773 283.391C685.204 287.611 681.321 290.571 677.101 290.001C672.881 289.431 669.921 285.549 670.492 281.329L674.484 251.727C675.053 247.507 678.936 244.547 683.156 245.116C687.376 245.685 690.336 249.568 689.767 253.788Z" fill="#878CF0"/>
<path d="M140.431 142.064C142.315 147.307 141.66 157.793 141.66 157.793C138.179 154.107 128.388 144.563 124.62 140.999C120.809 137.435 121.548 134.321 123.759 133.667C123.513 134.485 123.144 137.025 127.364 139.565C133.917 143.497 139.284 141.941 139.284 141.941L139.899 140.876C140.021 141.08 140.103 141.327 140.227 141.572C140.267 141.736 140.349 141.9 140.431 142.064Z" fill="#41417A"/>
<path d="M148.664 222.88C148.664 222.88 151.695 223.249 156.037 223.823L152.843 234.023L127.528 230.212H127.487C125.972 228.984 124.701 227.591 123.637 226.116H123.677L124.62 226.035L148.664 222.88" fill="#BDCCD6"/>
<path d="M201.545 218.784C201.585 219.112 201.628 219.481 201.668 219.849C201.668 219.849 196.016 220.545 190.117 221.243L194.336 208.339C197.9 208.584 200.891 208.584 202.775 208.584C202.775 208.584 200.891 212.763 201.545 218.784" fill="url(#paint22_linear)"/>
<path d="M137.064 249.165C132.363 249.165 126.981 248.564 120.973 246.967C120.237 246.76 119.5 246.556 118.804 246.269C118.451 246.148 118.103 246.021 117.757 245.888C96.0427 237.515 90.0574 206.943 88.0814 186.056C88.08 186.032 88.0774 186.008 88.0747 185.983C88.0747 185.976 88.0734 185.968 88.0734 185.961C88.0707 185.944 88.0693 185.927 88.068 185.909C88.0667 185.901 88.0667 185.893 88.0653 185.885C88.064 185.869 88.0627 185.852 88.0613 185.836C88.06 185.827 88.06 185.819 88.0587 185.809C88.056 185.787 88.0547 185.763 88.052 185.74C88.052 185.735 88.0507 185.732 88.0507 185.727C88.0493 185.707 88.0467 185.688 88.0454 185.668C88.044 185.659 88.044 185.649 88.0427 185.64C88.0414 185.625 88.04 185.611 88.0387 185.595C88.0374 185.585 88.0373 185.575 88.036 185.565C88.0347 185.551 88.0333 185.536 88.032 185.52C88.0307 185.511 88.0307 185.503 88.0293 185.493C88.028 185.471 88.0253 185.445 88.024 185.423C88.0227 185.42 88.0227 185.413 88.0227 185.412C88.02 185.391 88.0187 185.369 88.0173 185.349C88.016 185.341 88.016 185.333 88.0147 185.325C88.0134 185.309 88.012 185.293 88.0107 185.277C88.0107 185.269 88.0094 185.259 88.008 185.251C88.0067 185.233 88.0053 185.216 88.004 185.199C88.004 185.191 88.0027 185.185 88.0027 185.177C88 185.153 87.9987 185.129 87.996 185.105C87.996 185.101 87.996 185.097 87.9947 185.093C87.9933 185.073 87.992 185.053 87.9907 185.032C87.9893 185.025 87.9893 185.019 87.988 185.012C87.9867 184.993 87.9853 184.975 87.984 184.956C87.984 184.949 87.9827 184.943 87.9827 184.936C87.98 184.912 87.9787 184.889 87.976 184.865C87.972 184.813 87.968 184.761 87.964 184.709C87.964 184.708 87.964 184.704 87.964 184.703C87.9613 184.679 87.96 184.653 87.9573 184.629C87.9573 184.628 87.9573 184.627 87.9573 184.625C87.4747 178.337 87.8307 172.167 88.888 166.595C88.8867 166.597 88.8867 166.6 88.8853 166.604C91.336 153.68 97.5693 143.987 105.893 143.549C105.977 143.544 106.061 143.541 106.145 143.539H106.72C117.567 143.8 120.424 154.199 120.421 167.392C120.42 172.781 119.941 178.637 119.336 184.459C118.676 190.935 117.915 197.644 117.916 204.039C117.916 212.325 119.197 220.083 123.637 226.117C124.703 227.592 125.972 228.985 127.487 230.212H127.529C128.839 231.319 130.313 232.343 131.952 233.203L151.507 236.692L152.843 236.931L159.396 235.66C160.256 237.544 160.339 239.348 160.175 240.74C159.969 242.46 159.396 243.567 159.396 243.567C159.396 243.567 156.655 245.485 151.507 247.077C147.861 248.203 143.008 249.165 137.064 249.165" fill="url(#paint23_linear)"/>
<path d="M74.9693 275.744C62.4426 275.744 47.8 274.315 39.7067 273.427C35.856 272.976 33.48 272.648 33.48 272.648C33.48 272.648 33.3826 260.136 38.396 240.74C42.7466 223.907 48.5453 208.955 55.4586 195.312C61.852 182.695 69.1986 171.197 77.228 160.373C86.5666 147.839 96.7653 140.303 105.86 136.329C112.052 133.549 117.731 132.432 122.221 132.432C122.939 132.432 123.627 132.461 124.281 132.516L123.927 133.165L123.645 133.703C122.616 134.056 121.933 134.959 121.932 136.196C121.929 137.508 122.692 139.196 124.62 140.999C127.151 143.392 132.399 148.484 136.627 152.685C137.235 153.291 137.976 153.56 138.704 153.56C140.28 153.56 141.784 152.296 141.704 150.439C141.635 148.815 141.499 147.105 141.253 145.524C141.253 145.523 141.253 145.52 141.253 145.519C141.252 145.509 141.251 145.501 141.249 145.492C141.248 145.485 141.247 145.48 141.245 145.473C141.245 145.469 141.244 145.464 141.244 145.46C141.157 144.911 141.057 144.376 140.944 143.867L141.099 143.627C142.363 146.633 144.463 151.923 146.533 158.817C147.273 161.251 147.617 164.063 147.619 167.116C147.625 177.425 143.735 190.484 138.015 201.007C137.727 201.499 137.481 201.991 137.195 202.481C135.228 205.957 133.203 209.415 131.249 212.909C128.851 217.199 126.561 221.543 124.62 226.035L123.677 226.117H123.637C119.197 220.083 117.916 212.325 117.916 204.039C117.915 197.644 118.676 190.935 119.336 184.459C119.941 178.637 120.42 172.781 120.421 167.392C120.424 154.199 117.567 143.8 106.72 143.539H106.145C106.061 143.541 105.977 143.544 105.893 143.549C97.568 143.987 91.3346 153.683 88.884 166.607C86.192 174.232 85.0613 183.909 86.02 193.792C88.028 215.011 94.1707 246.223 116.741 254.005C117.38 254.268 118.053 254.46 118.731 254.649C119.168 260.656 120.319 266.177 120.319 266.177C120.319 266.177 119.212 266.628 117.288 267.364V267.407C111.676 269.495 99.0186 273.837 85.8693 275.229C84.6413 275.393 83.3707 275.475 82.1427 275.557C80.2667 275.664 78.2866 275.721 76.2386 275.739C75.8173 275.741 75.3946 275.744 74.9693 275.744V275.744ZM88.0747 185.979C88.0747 185.977 88.0747 185.975 88.0747 185.973C88.0747 185.975 88.0747 185.977 88.0747 185.979Z" fill="url(#paint24_linear)"/>
<path d="M118.732 254.649C118.731 254.649 118.731 254.649 118.731 254.649C118.528 251.876 118.477 249 118.761 246.516L118.804 246.269L118.761 246.516C118.477 249 118.528 251.876 118.732 254.649Z" fill="#DBDCD2"/>
<path d="M88.0813 186.056C88.08 186.029 88.0773 186.004 88.0747 185.979C88.0747 185.98 88.0747 185.981 88.0747 185.983C88.0773 186.008 88.08 186.031 88.0813 186.056V186.056ZM88.0747 185.973C87.428 179.225 87.7533 172.572 88.884 166.607C88.884 166.605 88.8853 166.604 88.8853 166.604C87.8293 172.172 87.4746 178.34 87.9573 184.625C87.9573 184.627 87.9573 184.628 87.9573 184.629C87.96 184.655 87.9613 184.677 87.964 184.703C87.964 184.704 87.964 184.707 87.964 184.709C87.968 184.761 87.972 184.812 87.976 184.865C87.9787 184.889 87.98 184.912 87.9827 184.936C87.9827 184.943 87.9826 184.949 87.984 184.956C87.9853 184.975 87.9866 184.993 87.988 185.012C87.9893 185.019 87.9893 185.025 87.9906 185.032C87.992 185.053 87.9933 185.073 87.9947 185.093C87.996 185.097 87.996 185.101 87.996 185.105C87.9987 185.129 88 185.153 88.0027 185.177C88.0027 185.184 88.004 185.192 88.004 185.199C88.0053 185.216 88.0067 185.233 88.008 185.251C88.0093 185.259 88.0107 185.268 88.0107 185.277C88.012 185.295 88.0133 185.308 88.0147 185.325C88.016 185.333 88.016 185.341 88.0173 185.349C88.0186 185.371 88.02 185.391 88.0226 185.412C88.0226 185.415 88.0226 185.419 88.024 185.423C88.0253 185.447 88.028 185.469 88.0293 185.493C88.0307 185.503 88.0307 185.512 88.032 185.52C88.0333 185.536 88.0347 185.549 88.036 185.565C88.0373 185.575 88.0373 185.585 88.0387 185.595C88.04 185.611 88.0413 185.625 88.0427 185.64C88.044 185.651 88.044 185.659 88.0453 185.668C88.0467 185.687 88.0493 185.708 88.0506 185.727C88.0506 185.731 88.052 185.736 88.052 185.74C88.0546 185.763 88.056 185.787 88.0587 185.809C88.06 185.819 88.06 185.827 88.0613 185.836C88.0627 185.853 88.064 185.868 88.0653 185.885C88.0667 185.893 88.0667 185.901 88.068 185.909C88.0693 185.927 88.0707 185.944 88.0733 185.961C88.0733 185.965 88.0733 185.969 88.0747 185.973" fill="#DBDCD2"/>
<path d="M88.0813 186.056C88.08 186.031 88.0773 186.008 88.0747 185.983C88.0773 186.008 88.08 186.032 88.0813 186.056ZM88.0733 185.961C88.0707 185.944 88.0693 185.927 88.068 185.909C88.0693 185.927 88.0707 185.944 88.0733 185.961ZM88.0653 185.885C88.064 185.868 88.0627 185.853 88.0613 185.836C88.0627 185.852 88.064 185.869 88.0653 185.885ZM88.0587 185.809C88.056 185.787 88.0546 185.763 88.052 185.74C88.0546 185.763 88.056 185.787 88.0587 185.809ZM88.0506 185.727C88.0493 185.708 88.0467 185.687 88.0453 185.668C88.0467 185.688 88.0493 185.707 88.0506 185.727ZM88.0427 185.64C88.0413 185.625 88.04 185.611 88.0387 185.595C88.04 185.611 88.0413 185.625 88.0427 185.64ZM88.036 185.565C88.0347 185.549 88.0333 185.536 88.032 185.52C88.0333 185.536 88.0347 185.551 88.036 185.565ZM88.0293 185.493C88.028 185.469 88.0253 185.447 88.024 185.423C88.0253 185.445 88.028 185.471 88.0293 185.493ZM88.0226 185.412C88.02 185.391 88.0186 185.371 88.0173 185.349C88.0186 185.369 88.02 185.391 88.0226 185.412ZM88.0147 185.325C88.0133 185.308 88.012 185.295 88.0107 185.277C88.012 185.293 88.0133 185.309 88.0147 185.325ZM88.008 185.251C88.0067 185.233 88.0053 185.216 88.004 185.199C88.0053 185.216 88.0067 185.233 88.008 185.251ZM88.0027 185.177C88 185.153 87.9987 185.129 87.996 185.105C87.9987 185.129 88 185.153 88.0027 185.177ZM87.9947 185.093C87.9933 185.073 87.992 185.053 87.9906 185.032C87.992 185.053 87.9933 185.073 87.9947 185.093ZM87.988 185.012C87.9866 184.993 87.9853 184.975 87.984 184.956C87.9853 184.975 87.9866 184.993 87.988 185.012ZM87.9827 184.936C87.98 184.912 87.9787 184.889 87.976 184.865C87.9787 184.889 87.98 184.912 87.9827 184.936ZM87.976 184.865C87.972 184.812 87.968 184.761 87.964 184.709C87.968 184.761 87.972 184.813 87.976 184.865ZM87.964 184.703C87.9613 184.677 87.96 184.655 87.9573 184.629C87.96 184.653 87.9613 184.679 87.964 184.703ZM87.9573 184.625C87.4746 178.34 87.8293 172.172 88.8853 166.604C88.8866 166.6 88.8866 166.597 88.888 166.595C87.8306 172.167 87.4746 178.337 87.9573 184.625Z" fill="url(#paint25_linear)"/>
<path d="M118.731 254.649C118.053 254.46 117.38 254.268 116.741 254.005C94.1706 246.223 88.028 215.011 86.02 193.792C85.0613 183.909 86.192 174.232 88.884 166.607C87.7533 172.572 87.428 179.225 88.0746 185.973C88.0746 185.975 88.0746 185.977 88.0746 185.979C88.0773 186.004 88.08 186.029 88.0813 186.056C90.088 207.275 96.2333 238.487 118.804 246.269L118.761 246.516C118.477 249 118.528 251.876 118.731 254.649Z" fill="url(#paint26_linear)"/>
<path d="M222.763 210.633C227.392 211.985 239.721 214.075 238.411 216.449C237.059 218.825 224.853 217.228 224.853 217.228C224.853 217.228 221.74 222.88 219.485 223.453C217.275 224.069 214.448 222.717 214.448 222.717C214.448 222.717 212.524 225.379 209.819 224.641C207.157 223.905 205.355 219.153 203.265 218.703C202.937 218.62 202.324 218.661 201.545 218.784C200.891 212.763 202.775 208.584 202.775 208.584H202.815C203.265 208.584 203.676 208.584 204.003 208.584C208.468 208.584 218.176 209.323 222.763 210.633" fill="url(#paint27_radial)"/>
<path d="M194.336 208.339L190.117 221.243L187.905 227.919L152.843 234.023L156.037 223.823L157.389 219.604L163.903 198.877L166.852 189.497C167.301 189.497 201.341 186.999 201.341 186.999L194.336 208.339" fill="#A5B7C6"/>
<path d="M187.905 227.919V230.212L182.007 231.319L159.396 235.66L152.843 236.931V234.023L187.905 227.919Z" fill="#8FA6B7"/>
<path d="M182.007 231.319C182.007 231.319 182.58 232.343 181.473 233.572C180.368 234.759 177.584 237.136 173.651 238.283C169.759 239.388 163.615 238.283 163.615 238.283L160.175 240.74C160.339 239.348 160.256 237.544 159.396 235.66L182.007 231.319" fill="url(#paint28_radial)"/>
<path d="M157.389 219.604C155.42 218.748 153.449 217.681 151.507 216.36C150.04 215.363 148.588 214.217 147.169 212.909C143.896 209.895 140.788 206.004 138.015 201.007C143.735 190.484 147.625 177.425 147.619 167.116C147.617 164.063 147.273 161.251 146.533 158.817C144.463 151.923 142.363 146.633 141.099 143.627L142.327 141.729C144.689 143.828 148.643 147.943 151.507 154.028C151.876 154.813 152.227 155.631 152.555 156.481C156.571 167.091 152.351 189.047 163.903 198.877L159.493 212.909L157.389 219.604" fill="url(#paint29_linear)"/>
<path d="M152.843 234.023V236.931L131.952 233.203C130.313 232.343 128.839 231.319 127.528 230.212L152.843 234.023" fill="#A5B7C6"/>
<path d="M120.299 422.619V433.284H103.607V423.029L120.299 422.619Z" fill="url(#paint30_radial)"/>
<path d="M148.009 443.771V449.486H99.5707V443.826C99.5707 443.826 143.037 443.332 147.765 443.741L148.009 443.771Z" fill="#C3D3DD"/>
<path d="M129.283 433.589C129.384 433.486 129.453 433.368 129.487 433.232C130.388 433.776 131.323 434.337 132.275 434.916L128.025 439.029C127.685 439.353 127.685 439.897 128.008 440.239C128.177 440.408 128.399 440.492 128.62 440.492C128.824 440.492 129.044 440.408 129.197 440.255L133.601 436.004L133.737 435.783C137.357 437.944 143.043 439.669 145.805 441.221C147.649 442.259 147.765 443.085 147.765 443.741C143.037 443.332 99.8573 443.825 99.8573 443.825C99.8573 443.825 100.005 440.073 100.387 438.821C100.955 436.953 102.661 431.345 102.661 431.345C102.823 430.814 103.412 430.548 103.928 430.749C114.847 434.98 119.652 430.759 121.063 429.04C121.361 428.677 121.875 428.596 122.277 428.84C122.741 429.123 123.405 429.525 124.216 430.019L120.016 434.083C119.676 434.407 119.676 434.932 119.999 435.273C120.169 435.443 120.389 435.544 120.611 435.544C120.815 435.544 121.036 435.46 121.205 435.291L125.592 431.039L125.679 430.919C126.409 431.361 127.225 431.856 128.092 432.381L123.705 436.633C123.365 436.956 123.349 437.483 123.689 437.822C123.841 437.993 124.063 438.095 124.301 438.095C124.505 438.095 124.725 438.01 124.879 437.84L129.283 433.589" fill="#11477C"/>
<path d="M129.197 440.255C129.044 440.408 128.824 440.492 128.62 440.492C128.399 440.492 128.177 440.408 128.008 440.239C127.685 439.897 127.685 439.353 128.025 439.029L132.275 434.916C132.768 435.204 133.245 435.493 133.737 435.783L133.601 436.004L129.197 440.255" fill="#C3D3DD"/>
<path d="M128.092 432.381C128.533 432.653 129.011 432.943 129.487 433.232C129.453 433.368 129.384 433.486 129.283 433.589L124.879 437.84C124.725 438.01 124.505 438.095 124.301 438.095C124.063 438.095 123.841 437.993 123.689 437.822C123.349 437.483 123.365 436.956 123.705 436.633L128.092 432.381" fill="#C3D3DD"/>
<path d="M121.205 435.291C121.036 435.46 120.815 435.544 120.611 435.544C120.389 435.544 120.169 435.443 119.999 435.273C119.676 434.932 119.676 434.407 120.016 434.083L124.216 430.019C124.657 430.291 125.151 430.596 125.679 430.919L125.592 431.039L121.205 435.291" fill="#C3D3DD"/>
<path d="M51.5533 422.196L49.3186 432.627L32.9987 429.132L35.1453 419.104L51.5533 422.196" fill="url(#paint31_radial)"/>
<path d="M74.22 448.683L73.024 454.273L25.6586 444.131L26.844 438.593C26.844 438.593 69.452 447.214 73.988 448.603L74.22 448.683Z" fill="#C3D3DD"/>
<path d="M58.0413 434.805C58.1627 434.728 58.2533 434.627 58.3147 434.5C59.084 435.221 59.88 435.965 60.6906 436.731L55.672 439.863C55.272 440.108 55.1573 440.64 55.4027 441.04C55.532 441.243 55.732 441.371 55.948 441.417C56.1467 441.461 56.3813 441.422 56.5626 441.305L61.7586 438.072L61.9373 437.884C65.0253 440.755 70.224 443.633 72.5986 445.729C74.1866 447.131 74.1266 447.963 73.988 448.603C69.452 447.214 27.124 438.653 27.124 438.653C27.124 438.653 28.056 435.016 28.6907 433.872C29.6387 432.164 32.48 427.037 32.48 427.037C32.7507 426.552 33.38 426.416 33.844 426.72C43.6347 433.144 49.2173 430.022 50.956 428.637C51.3226 428.344 51.844 428.372 52.1853 428.695C52.5813 429.069 53.144 429.601 53.8347 430.253L48.876 433.348C48.476 433.592 48.3653 434.108 48.6107 434.509C48.7427 434.71 48.936 434.857 49.152 434.903C49.352 434.945 49.5853 434.909 49.788 434.779L54.968 431.54L55.076 431.441C55.6973 432.027 56.3933 432.68 57.1306 433.376L51.9506 436.615C51.5506 436.86 51.4226 437.371 51.6853 437.775C51.7986 437.973 51.9933 438.12 52.2266 438.169C52.4253 438.212 52.66 438.176 52.8453 438.04L58.0413 434.805" fill="#11477C"/>
<path d="M56.5626 441.305C56.3813 441.422 56.1467 441.461 55.948 441.417C55.732 441.371 55.532 441.243 55.4027 441.04C55.1573 440.64 55.272 440.108 55.672 439.863L60.6906 436.731C61.112 437.116 61.5173 437.498 61.9373 437.884L61.7586 438.072L56.5626 441.305" fill="#C3D3DD"/>
<path d="M57.1307 433.376C57.5053 433.736 57.9107 434.117 58.3147 434.5C58.2534 434.627 58.1627 434.728 58.0413 434.805L52.8453 438.04C52.66 438.176 52.4253 438.212 52.2267 438.169C51.9933 438.12 51.7987 437.973 51.6853 437.775C51.4227 437.371 51.5507 436.86 51.9507 436.615L57.1307 433.376" fill="#C3D3DD"/>
<path d="M49.788 434.779C49.5853 434.909 49.352 434.945 49.152 434.903C48.936 434.857 48.7427 434.71 48.6107 434.509C48.3654 434.108 48.476 433.592 48.876 433.348L53.8347 430.253C54.2093 430.612 54.628 431.016 55.076 431.441L54.968 431.54L49.788 434.779" fill="#C3D3DD"/>
<path d="M101.621 426.916C101.621 426.916 105.163 377.953 101.723 354.972C99.3053 338.711 93.612 321.269 87.7133 308.777C87.5093 289.853 85.8693 275.229 85.8693 275.229C99.02 273.837 111.676 269.495 117.288 267.407C117.903 268.676 129.985 295.423 132.893 334.911C135.844 375.38 122.949 426.916 122.949 426.916C122.949 426.916 102.153 427.039 101.621 426.916" fill="#41417A"/>
<path d="M137.559 144.861C135.3 144.861 131.871 144.268 127.601 141.708C122.487 138.628 122.933 135.549 123.232 134.556C123.331 134.357 123.38 134.208 123.38 134.208L123.645 133.703L123.927 133.165L124.281 132.516L128.148 125.417L135.051 122.537C134.983 122.089 134.948 121.635 134.948 121.179C134.943 118.299 136.275 115.401 138.975 114.244C139.564 113.992 140.081 113.883 140.535 113.881C140.536 113.881 140.537 113.881 140.539 113.881C140.54 113.881 140.543 113.881 140.544 113.881C143.291 113.887 143.692 117.869 143.692 117.869L142.053 122.736C142.053 122.736 142.688 123.513 143.335 123.519C143.337 123.519 143.34 123.519 143.341 123.519C143.343 123.519 143.344 123.519 143.344 123.519C143.453 123.519 143.564 123.496 143.671 123.443C143.679 123.439 143.685 123.436 143.692 123.432C144.388 123.084 146.772 118.217 147.815 117.323C148.907 116.429 151.985 116.38 153.972 113.896C155.96 111.364 156.505 109.029 158.093 108.831C158.164 108.823 158.24 108.819 158.32 108.819C160.057 108.817 164.003 110.763 167.413 111.828C167.432 111.835 167.451 111.84 167.469 111.847C167.501 111.856 167.533 111.867 167.565 111.876C167.581 111.88 167.596 111.885 167.611 111.889C167.633 111.896 167.656 111.904 167.679 111.911C168.672 112.208 169.715 112.357 170.757 112.357C170.659 113.301 169.367 123.729 165.743 130.931C163.107 136.237 158.752 139.751 155.976 141.421C154.776 142.144 153.871 142.523 153.525 142.552C153.493 142.556 153.453 142.559 153.409 142.559C153.06 142.559 152.369 142.436 151.507 142.247C148.493 141.584 143.381 140.097 143.381 140.097C141.192 139.437 139.204 138.797 139.204 138.797L142.327 141.728V141.729L141.099 143.627L140.944 143.867H140.943L140.585 144.421C140.585 144.421 139.505 144.861 137.559 144.861ZM135.051 122.537C135.051 122.537 131.864 128.663 135.051 129.269C135.296 129.316 135.527 129.337 135.743 129.337C138.34 129.337 138.935 126.239 138.935 126.239C137.925 126.239 135.636 126.172 135.051 122.537ZM140.203 116.988C139.977 116.988 139.749 117.032 139.543 117.117C138.289 117.639 137.473 119.257 137.219 120.524C136.963 121.8 137.457 123.22 138.888 123.379C138.932 123.384 138.976 123.387 139.021 123.387C139.625 123.387 140.251 122.948 140.265 122.347C140.277 121.851 139.9 121.413 139.897 120.916C139.896 120.579 140.087 120.245 140.381 120.077C140.473 120.025 140.581 120.011 140.692 120.011C140.76 120.011 140.831 120.016 140.899 120.021C140.967 120.027 141.033 120.032 141.095 120.032C141.185 120.032 141.265 120.02 141.328 119.98C141.62 119.795 141.593 119.049 141.601 118.739C141.612 118.277 141.551 117.785 141.253 117.432C140.999 117.129 140.604 116.988 140.203 116.988" fill="url(#paint32_radial)"/>
<path d="M128.148 125.417C128.148 125.417 128.689 117.984 129.104 112.564C129.236 110.827 129.356 109.297 129.44 108.284C129.833 103.556 132.521 98.9 136.56 96.3587C137.628 95.688 138.857 95.2161 140.116 95.2161C140.18 95.2161 140.245 95.2174 140.309 95.22C140.34 94.7094 140.745 94.308 141.144 93.9907C143.115 92.4254 145.591 91.596 148.087 91.272C149.204 91.1267 150.351 91.0521 151.507 91.0454C151.556 91.0454 151.604 91.0454 151.653 91.0454C154.596 91.0454 157.596 91.4894 160.329 92.3427C165.109 93.8374 170.085 96.808 172.727 101.2C173.805 102.997 174.529 104.992 175.613 106.784C176.136 107.649 176.889 108.545 177.9 108.573C176.095 111.051 173.883 112.357 170.757 112.357C169.715 112.357 168.672 112.208 167.679 111.911C167.656 111.904 167.633 111.896 167.611 111.889C167.596 111.885 167.581 111.88 167.565 111.876C167.533 111.867 167.501 111.856 167.469 111.847C167.451 111.84 167.432 111.835 167.413 111.828C164.003 110.763 160.059 108.819 158.32 108.819C158.24 108.817 158.164 108.823 158.093 108.831C156.505 109.029 155.96 111.364 153.972 113.896C151.985 116.38 148.907 116.429 147.815 117.323C146.772 118.217 144.388 123.084 143.692 123.432C143.685 123.436 143.679 123.439 143.671 123.443C143.564 123.496 143.453 123.519 143.344 123.519C143.344 123.519 143.343 123.519 143.341 123.519C143.34 123.519 143.337 123.519 143.335 123.519C142.688 123.513 142.053 122.736 142.053 122.736L143.692 117.869C143.692 117.869 143.291 113.887 140.544 113.881C140.543 113.881 140.54 113.881 140.539 113.881C140.537 113.881 140.536 113.881 140.535 113.881C140.081 113.883 139.565 113.991 138.975 114.244C136.275 115.401 134.943 118.299 134.948 121.179C134.948 121.635 134.983 122.089 135.051 122.537L128.148 125.417" fill="url(#paint33_linear)"/>
<path d="M87.7133 308.777C87.508 289.853 85.8693 275.229 85.8693 275.229C84.6413 275.393 83.3707 275.475 82.1427 275.557C68.544 276.335 49.4147 274.492 39.7067 273.427C37.5773 295.547 49.2507 324.015 48.0627 354.9C47.1467 378.667 37.156 410.285 31.94 424.628L51.7693 428.568C61.5267 412.933 82.124 373.149 85.6653 347.404C87.4267 334.583 87.8773 320.819 87.7133 308.777" fill="#56548C"/>
<path d="M153.257 232.693L155.549 225.38L132.8 229.297L153.257 232.693Z" fill="#8FA6B7"/>
<path d="M135.743 129.337C135.527 129.337 135.296 129.316 135.051 129.269C131.864 128.663 135.051 122.537 135.051 122.537C135.636 126.172 137.925 126.239 138.935 126.239C138.935 126.239 138.34 129.337 135.743 129.337Z" fill="url(#paint34_radial)"/>
<path d="M139.021 123.387C138.976 123.387 138.932 123.384 138.888 123.379C137.457 123.22 136.963 121.8 137.219 120.524C137.473 119.257 138.289 117.639 139.543 117.117C139.749 117.032 139.977 116.988 140.203 116.988C140.604 116.988 140.999 117.129 141.253 117.432C141.551 117.785 141.612 118.277 141.601 118.739C141.593 119.049 141.62 119.795 141.328 119.98C141.265 120.02 141.185 120.032 141.095 120.032C141.033 120.032 140.967 120.027 140.899 120.021C140.831 120.016 140.76 120.011 140.692 120.011C140.581 120.011 140.473 120.025 140.381 120.077C140.087 120.245 139.896 120.579 139.897 120.916C139.9 121.413 140.277 121.851 140.265 122.347C140.251 122.948 139.625 123.387 139.021 123.387" fill="url(#paint35_radial)"/>
<path d="M142.327 141.728L143.381 140.097L142.327 141.728Z" fill="#DBDCD2"/>
<path d="M142.327 141.728L139.204 138.797C139.204 138.797 141.192 139.437 143.381 140.097L142.327 141.728Z" fill="url(#paint36_radial)"/>
<path d="M152.843 234.023L151.869 233.876L166.021 189.164L166.852 189.497L152.843 234.023" fill="#BDCCD6"/>
<path d="M166.021 189.164L200.581 186.639L201.341 186.999L166.852 189.497L166.021 189.164" fill="#BDCCD6"/>
<path d="M454.152 287.736C456.489 287.731 458.395 285.825 458.4 283.487L458.387 274.711H454.26V272.12H459.027C460.109 272.12 460.989 273.001 460.989 274.084V283.487C460.989 287.257 457.921 290.325 454.152 290.325H453.631V287.736H454.152Z" fill="#878CF0"/>
<path d="M438.999 296.459H449.328C452.533 296.459 455.132 293.86 455.132 290.653V269.291H433.195V290.653C433.195 293.86 435.793 296.459 438.999 296.459Z" fill="#878CF0"/>
<path d="M190.645 287.736C188.307 287.731 186.403 285.825 186.399 283.487L186.411 274.711H190.536V272.12H185.771C184.688 272.12 183.807 273.001 183.807 274.084V283.487C183.807 287.257 186.875 290.325 190.644 290.325H191.167V287.736H190.645" fill="url(#paint37_linear)"/>
<path d="M205.799 296.459H195.469C192.263 296.459 189.665 293.86 189.665 290.653V269.292H211.603V290.653C211.603 293.86 209.004 296.459 205.799 296.459Z" fill="url(#paint38_linear)"/>
<path d="M177.452 451.372H152.564V300.109H177.452V451.372Z" fill="#A5B7C6"/>
<path d="M531.399 451.372H506.511V300.109H531.399V451.372Z" fill="#A5B7C6"/>
<path d="M177.452 316.799H152.564V300.109H177.452V316.799Z" fill="#8FA6B7"/>
<path d="M531.399 316.799H506.511V300.109H531.399V316.799Z" fill="#8FA6B7"/>
<path d="M541.909 309.28H142.007C138.883 309.28 136.351 306.748 136.351 303.624V302.115C136.351 298.991 138.883 296.459 142.007 296.459H541.909C545.032 296.459 547.565 298.991 547.565 302.115V303.624C547.565 306.748 545.032 309.28 541.909 309.28Z" fill="#C3D3DD"/>
<path d="M291.913 282.015C295.524 282.015 298.46 284.952 298.46 288.563C298.46 292.172 295.524 295.109 291.913 295.109H239.151V282.015H291.913" fill="#F9FBFC"/>
<path d="M295.415 292.249H239.149V291.239H295.415V292.249" fill="#CCD9E2"/>
<path d="M296.524 290.127H239.149V289.116H296.524V290.127Z" fill="#CCD9E2"/>
<path d="M296.524 288.008H239.149V286.996H296.524V288.008Z" fill="#CCD9E2"/>
<path d="M295.417 285.888H239.149V284.876H295.417V285.888Z" fill="#CCD9E2"/>
<path d="M237.905 280.667H291.913C296.267 280.667 299.808 284.208 299.808 288.563C299.808 292.916 296.267 296.459 291.913 296.459H237.905V293.76H291.913C294.78 293.76 297.112 291.428 297.112 288.563C297.112 285.695 294.78 283.363 291.913 283.363H237.905V280.667Z" fill="#EC827D"/>
<path d="M249.473 279.535C246.447 279.535 243.985 277.073 243.985 274.047C243.985 271.021 246.447 268.559 249.473 268.559H293.705V279.535H249.473" fill="#F9FBFC"/>
<path d="M293.707 271.805H246.537V270.956H293.707V271.805Z" fill="#CCD9E2"/>
<path d="M293.707 273.584H245.608V272.736H293.707V273.584Z" fill="#CCD9E2"/>
<path d="M293.707 275.361H245.608V274.512H293.707V275.361Z" fill="#CCD9E2"/>
<path d="M293.707 277.137H246.535V276.289H293.707V277.137Z" fill="#CCD9E2"/>
<path d="M294.751 280.667H249.473C245.824 280.667 242.855 277.696 242.855 274.047C242.855 270.397 245.824 267.427 249.473 267.427H294.751V269.689H249.473C247.071 269.689 245.116 271.644 245.116 274.047C245.116 276.451 247.071 278.405 249.473 278.405H294.751V280.667" fill="#606BF1"/>
<path d="M244.525 266.297C241.497 266.297 239.035 263.835 239.035 260.808C239.035 257.783 241.497 255.32 244.525 255.32H288.756V266.297H244.525Z" fill="#F9FBFC"/>
<path d="M288.756 258.565H241.588V257.717H288.756V258.565Z" fill="#CCD9E2"/>
<path d="M288.756 260.345H240.659V259.497H288.756V260.345Z" fill="#CCD9E2"/>
<path d="M288.756 262.121H240.659V261.273H288.756V262.121Z" fill="#CCD9E2"/>
<path d="M288.756 263.899H241.585V263.051H288.756V263.899Z" fill="#CCD9E2"/>
<path d="M289.801 267.427H244.525C240.875 267.427 237.905 264.459 237.905 260.808C237.905 257.159 240.875 254.189 244.525 254.189H289.801V256.451H244.525C242.121 256.451 240.167 258.405 240.167 260.808C240.167 263.212 242.121 265.167 244.525 265.167H289.801V267.427Z" fill="#FBD15B"/>
<path d="M423.789 288.563V296.459L428.649 293.883V291.139L423.789 288.563" fill="#FFC8AF"/>
<path d="M428.649 291.139V293.883L431.24 292.511L428.649 291.139Z" fill="#606BF1"/>
<path d="M366.953 288.563H423.789V291.195H366.953V288.563Z" fill="#B1B2F3"/>
<path d="M366.953 291.195H423.789V293.825H366.953V291.195Z" fill="#878CF0"/>
<path d="M366.953 293.825H423.789V296.459H366.953V293.825Z" fill="#5566E5"/>
<path d="M359.777 288.563H366.953V296.459H359.777C358.376 296.459 357.241 295.321 357.241 293.92V291.099C357.241 289.697 358.376 288.563 359.777 288.563Z" fill="#EC827D"/>
<path d="M362.92 296.459H366.953V288.563H362.92V296.459Z" fill="#FBD15B"/>
<path d="M364.331 296.459H365.543V288.563H364.331V296.459Z" fill="#EABC4B"/>
<path d="M106.751 96.2C108.147 93.704 110.111 91.4747 112.573 89.6454C119.511 84.5214 123.637 76.3347 123.637 67.7507C123.637 52.7453 111.424 40.5333 96.4346 40.5333C95.404 40.5333 94.372 40.6 93.3413 40.6987C81.0133 42.0627 70.948 51.9787 69.4333 64.2907C68.2013 74.2227 72.4613 84.0053 80.5293 89.828C82.8933 91.5253 84.8053 93.704 86.1373 96.2" fill="#FBD15B"/>
<path d="M95.4546 96.8014C95.1946 96.8014 94.956 96.6307 94.8773 96.3707L88.988 76.3894C88.908 76.1187 89.0267 75.8307 89.272 75.6947C89.5187 75.5587 89.8267 75.6107 90.0133 75.82L91.8506 77.888L93.6866 75.82C93.9146 75.5627 94.3586 75.5627 94.584 75.82L96.4213 77.888L98.26 75.82C98.3733 75.692 98.5373 75.6187 98.7093 75.6187C98.88 75.6187 99.0426 75.692 99.1573 75.82L101 77.8894L102.841 75.82C103.027 75.6094 103.337 75.5561 103.581 75.6947C103.827 75.8307 103.945 76.1187 103.865 76.3894L97.992 96.3694C97.9 96.6881 97.5653 96.8707 97.2493 96.7761C96.9293 96.6827 96.748 96.3494 96.8413 96.0307L101.959 78.6161L101.448 79.1907C101.22 79.4467 100.779 79.4467 100.552 79.1907L98.7093 77.1227L96.8707 79.1907C96.644 79.4467 96.2 79.4467 95.9733 79.1907L94.136 77.1227L92.3 79.1907C92.072 79.4467 91.6293 79.4467 91.4013 79.1907L90.9 78.6254L96.0293 96.0294C96.124 96.3481 95.9413 96.6827 95.624 96.7761L95.4546 96.8014" fill="white"/>
<path d="M108.167 110.855H84.568V98.7893H108.167V110.855Z" fill="#A5B7C6"/>
<path d="M84.9707 110.133C84.572 110.133 84.192 110.073 83.8107 109.973C83.852 111.952 85.4507 113.551 87.448 113.551H89.3653V114.251C89.3653 115.769 90.5853 116.988 92.084 116.988H100.756C102.275 116.988 103.493 115.769 103.493 114.251V113.551H105.413C107.391 113.551 109.009 111.952 109.049 109.973C108.669 110.073 108.289 110.133 107.889 110.133H84.9707" fill="#758D9E"/>
<path d="M83.8107 107.012H109.049V103.404H83.8107V107.012Z" fill="#758D9E"/>
<path d="M83.8107 99.8147H109.049V96.2067H83.8107V99.8147Z" fill="#758D9E"/>
<path d="M624.976 36.7801C625.807 37.0881 626.633 37.4027 627.459 37.724C627.801 37.8574 628.188 37.6867 628.321 37.3441C628.455 37.0014 628.285 36.6147 627.943 36.4814C627.111 36.1574 626.277 35.84 625.439 35.5294C625.093 35.4014 624.709 35.5787 624.581 35.924C624.453 36.268 624.631 36.6521 624.976 36.7801" fill="#C3D3DD"/>
<path d="M632.281 39.6894C633.879 40.3694 635.465 41.0747 637.04 41.804C637.373 41.9587 637.771 41.8134 637.925 41.48C638.08 41.1454 637.935 40.7494 637.6 40.5947C636.013 39.8587 634.413 39.148 632.804 38.4627C632.465 38.3174 632.073 38.476 631.929 38.8147C631.785 39.1534 631.943 39.544 632.281 39.6894V39.6894ZM641.729 44.0667C643.28 44.8454 644.82 45.648 646.345 46.4747C646.669 46.6507 647.073 46.5307 647.249 46.2067C647.424 45.8827 647.304 45.4787 646.98 45.3027C645.443 44.4694 643.891 43.66 642.327 42.8747C641.999 42.7107 641.597 42.8427 641.432 43.172C641.267 43.5014 641.4 43.9014 641.729 44.0667V44.0667ZM650.884 49.0267C652.384 49.9 653.871 50.7973 655.341 51.7187C655.653 51.9133 656.065 51.8187 656.26 51.5067C656.456 51.1947 656.361 50.7827 656.049 50.588C654.565 49.66 653.068 48.756 651.556 47.8747C651.237 47.6894 650.829 47.7974 650.644 48.1147C650.459 48.4334 650.567 48.8414 650.884 49.0267V49.0267ZM659.712 54.548C661.155 55.5134 662.581 56.5027 663.993 57.5134C664.292 57.728 664.708 57.6587 664.923 57.36C665.137 57.06 665.068 56.644 664.769 56.4294C663.347 55.4107 661.908 54.4134 660.455 53.44C660.149 53.2347 659.735 53.3174 659.529 53.6227C659.325 53.9294 659.407 54.3427 659.712 54.548V54.548ZM668.177 60.612C668.711 61.0187 669.241 61.4307 669.769 61.8454C670.604 62.4987 671.433 63.164 672.247 63.8454C672.529 64.0827 672.949 64.0454 673.187 63.7627C673.423 63.48 673.385 63.06 673.103 62.824C672.275 62.1307 671.435 61.456 670.592 60.796C670.06 60.3787 669.525 59.964 668.988 59.552C668.695 59.328 668.276 59.384 668.053 59.6774C667.829 59.9694 667.885 60.388 668.177 60.612V60.612ZM676.055 67.3294C677.26 68.5587 678.375 69.8547 679.352 71.2387C679.565 71.54 679.981 71.612 680.281 71.3987C680.583 71.1867 680.655 70.7707 680.441 70.4707C679.415 69.0147 678.252 67.6654 677.007 66.396C676.748 66.1334 676.327 66.1293 676.064 66.3867C675.801 66.6453 675.797 67.0667 676.055 67.3294ZM681.805 75.6667C682.435 77.2307 682.863 78.8854 683.041 80.5414C683.081 80.908 683.411 81.172 683.776 81.132C684.143 81.0934 684.407 80.764 684.367 80.3974C684.173 78.6107 683.715 76.84 683.043 75.1694C682.905 74.8267 682.517 74.6614 682.176 74.7987C681.833 74.936 681.668 75.324 681.805 75.6667V75.6667ZM682.777 85.5147C682.504 86.684 682.072 87.8067 681.461 88.8547C681.233 89.2467 680.984 89.6214 680.717 89.9787C680.496 90.2734 680.556 90.6907 680.852 90.912C681.147 91.132 681.564 91.072 681.784 90.7774C682.083 90.38 682.36 89.9627 682.613 89.5254C683.295 88.356 683.775 87.1067 684.076 85.8173C684.16 85.4587 683.936 85.1 683.579 85.016C683.22 84.9334 682.861 85.156 682.777 85.5147V85.5147ZM677.037 93.28C675.636 94.1387 674.064 94.7867 672.413 95.2294C672.057 95.3254 671.847 95.6907 671.941 96.0467C672.037 96.4027 672.403 96.6133 672.759 96.5173C674.519 96.0453 676.208 95.352 677.733 94.4173C678.048 94.224 678.147 93.8147 677.955 93.5C677.761 93.1867 677.351 93.088 677.037 93.28ZM667.401 95.9547C667.173 95.9613 666.944 95.9654 666.716 95.9654C666.327 95.9654 665.937 95.9547 665.552 95.9347C664.503 95.8814 663.432 95.736 662.371 95.5027C662.012 95.424 661.656 95.6507 661.577 96.0107C661.497 96.3694 661.725 96.7254 662.085 96.8054C663.216 97.0534 664.359 97.2094 665.484 97.2667C665.892 97.288 666.304 97.2987 666.716 97.2987C666.957 97.2987 667.2 97.2947 667.441 97.2867C667.809 97.276 668.099 96.9694 668.088 96.6014C668.077 96.2334 667.769 95.944 667.401 95.9547V95.9547ZM657.624 93.8014C656.093 93.0094 654.717 92.0134 653.621 90.844C653.369 90.5747 652.947 90.5614 652.679 90.8134C652.409 91.0654 652.396 91.488 652.648 91.756C653.867 93.0547 655.365 94.1347 657.012 94.9867C657.339 95.156 657.741 95.028 657.911 94.7C658.079 94.3734 657.952 93.9707 657.624 93.8014V93.8014ZM651.209 86.6387C651.065 86.1 650.969 85.54 650.927 84.96C650.913 84.7747 650.907 84.588 650.907 84.4027C650.905 83.5427 651.059 82.7 651.412 82C651.577 81.6707 651.445 81.2694 651.116 81.104C650.788 80.9387 650.387 81.0707 650.221 81.4C649.748 82.344 649.573 83.3894 649.573 84.4027C649.573 84.6214 649.581 84.84 649.597 85.056C649.645 85.7213 649.756 86.3653 649.921 86.984C650.017 87.34 650.383 87.5507 650.739 87.4547C651.095 87.36 651.305 86.9934 651.209 86.6387V86.6387ZM655.155 79.2374C656.715 78.5934 658.353 78.1707 660.027 77.9547C660.392 77.908 660.649 77.5734 660.603 77.208C660.556 76.8427 660.221 76.5854 659.856 76.632C658.073 76.8627 656.32 77.3134 654.647 78.0054C654.305 78.1454 654.144 78.536 654.284 78.876C654.425 79.216 654.815 79.3774 655.155 79.2374V79.2374ZM665.087 77.9094C666.765 78.0867 668.433 78.452 670.045 78.988C670.395 79.104 670.772 78.9147 670.888 78.5654C671.004 78.216 670.816 77.8387 670.467 77.7227C668.764 77.1573 667.004 76.772 665.228 76.5827C664.861 76.544 664.533 76.8094 664.495 77.176C664.455 77.5414 664.72 77.8694 665.087 77.9094V77.9094ZM674.668 81.088C674.876 81.2107 675.083 81.3374 675.287 81.4667C676.521 82.248 677.683 83.132 678.769 84.1014C679.044 84.3467 679.465 84.3227 679.711 84.048C679.956 83.7734 679.932 83.352 679.657 83.1067C678.519 82.0907 677.299 81.1627 676 80.34C675.784 80.2027 675.565 80.0694 675.345 79.94C675.028 79.752 674.62 79.8574 674.432 80.1747C674.245 80.492 674.351 80.9 674.668 81.088V81.088ZM682.264 87.824C683.32 89.1573 684.273 90.5827 685.12 92.0747C685.303 92.3947 685.709 92.5067 686.029 92.324C686.349 92.1427 686.461 91.736 686.28 91.416C685.4 89.868 684.411 88.3867 683.309 86.996C683.081 86.7067 682.663 86.6587 682.373 86.8867C682.084 87.116 682.036 87.5347 682.264 87.824ZM687.336 96.7027C687.663 97.524 687.961 98.356 688.229 99.196C688.484 99.988 688.711 100.787 688.912 101.591C689.001 101.948 689.364 102.165 689.72 102.076C690.077 101.987 690.295 101.624 690.205 101.267C689.997 100.435 689.763 99.608 689.5 98.7893C689.221 97.9213 688.913 97.06 688.576 96.2107C688.44 95.868 688.052 95.7014 687.709 95.8374C687.368 95.9734 687.2 96.3614 687.336 96.7027V96.7027ZM689.831 106.645C690.015 108.231 690.105 109.827 690.105 111.424L690.104 111.78C690.101 112.149 690.397 112.449 690.765 112.453C691.133 112.456 691.435 112.16 691.437 111.792C691.439 111.669 691.439 111.547 691.439 111.424C691.439 109.776 691.345 108.129 691.156 106.492C691.113 106.127 690.783 105.864 690.416 105.907C690.051 105.949 689.789 106.28 689.831 106.645V106.645ZM689.752 116.913C689.535 118.616 689.216 120.305 688.801 121.973C688.712 122.331 688.929 122.692 689.287 122.78C689.644 122.869 690.007 122.652 690.095 122.295C690.523 120.577 690.851 118.837 691.075 117.084C691.121 116.719 690.864 116.384 690.499 116.337C690.133 116.291 689.799 116.548 689.752 116.913V116.913ZM687.273 126.889C686.669 128.497 685.973 130.071 685.189 131.596C685.021 131.924 685.149 132.325 685.477 132.495C685.805 132.663 686.207 132.533 686.375 132.207C687.184 130.635 687.9 129.015 688.521 127.357C688.651 127.013 688.476 126.628 688.132 126.499C687.787 126.369 687.403 126.544 687.273 126.889ZM682.569 136.025C681.609 137.448 680.563 138.811 679.436 140.103C679.193 140.38 679.221 140.801 679.499 141.043C679.776 141.285 680.197 141.256 680.44 140.979C681.604 139.645 682.684 138.239 683.675 136.772C683.88 136.467 683.8 136.052 683.495 135.847C683.189 135.64 682.776 135.72 682.569 136.025" fill="#C3D3DD"/>
<path d="M675.743 143.812C675.085 144.389 674.409 144.945 673.713 145.477C673.421 145.7 673.365 146.119 673.589 146.412C673.812 146.704 674.231 146.76 674.524 146.536C675.244 145.985 675.944 145.411 676.623 144.813C676.899 144.571 676.927 144.149 676.683 143.872C676.44 143.596 676.019 143.569 675.743 143.812" fill="#C3D3DD"/>
<path d="M369.163 390.323H363.608L364.217 382.547H369.912L369.163 390.323ZM368.26 399.679H362.876L363.448 392.372H368.965L368.26 399.679ZM367.413 408.48H362.187L362.725 401.605H368.076L367.413 408.48ZM366.613 416.78H361.536L362.044 410.297H367.239L366.613 416.78ZM365.859 424.617H360.923L361.403 418.493H366.448L365.859 424.617ZM365.144 432.029H360.343L360.796 426.238H365.701L365.144 432.029ZM361.477 390.323H355.924L356.339 382.547H362.032L361.477 390.323ZM360.809 399.679H355.425L355.815 392.372H361.332L360.809 399.679ZM360.183 408.48H354.956L355.323 401.605H360.673L360.183 408.48ZM359.589 416.78H354.513L354.859 410.297H360.052L359.589 416.78ZM359.029 424.617H354.095L354.42 418.493H359.468L359.029 424.617ZM358.501 432.029H353.699L354.008 426.238H358.915L358.501 432.029ZM353.795 390.323H348.241L348.461 382.547H354.155L353.795 390.323ZM353.36 399.679H347.973L348.183 392.372H353.699L353.36 399.679ZM352.951 408.48H347.724L347.919 401.605H353.271L352.951 408.48ZM352.565 416.78H347.488L347.673 410.297H352.867L352.565 416.78ZM352.201 424.617H347.265L347.44 418.493H352.485L352.201 424.617ZM351.859 432.029H347.056L347.22 426.238H352.127L351.859 432.029ZM346.111 390.323H340.556L340.583 382.547H346.277L346.111 390.323ZM345.909 399.679H340.524L340.548 392.372H346.067L345.909 399.679ZM345.72 408.48H340.493L340.517 401.605H345.867L345.72 408.48ZM345.541 416.78H340.465L340.487 410.297H345.681L345.541 416.78ZM345.373 424.617H340.437L340.459 418.493H345.505L345.373 424.617ZM345.213 432.029H340.412L340.431 426.238H345.339L345.213 432.029ZM338.425 390.323H332.872L332.704 382.547H338.399L338.425 390.323ZM338.459 399.679H333.073L332.916 392.372H338.432L338.459 399.679ZM338.488 408.48H333.261L333.115 401.605H338.465L338.488 408.48ZM338.517 416.78H333.44L333.301 410.297H338.495L338.517 416.78ZM338.544 424.617H333.609L333.476 418.493H338.524L338.544 424.617ZM338.571 432.029H333.768L333.643 426.238H338.549L338.571 432.029ZM330.743 390.323H325.188L324.827 382.547H330.521L330.743 390.323ZM331.008 399.679H325.623L325.283 392.372H330.8L331.008 399.679ZM331.257 408.48H326.031L325.712 401.605H331.063L331.257 408.48ZM331.493 416.78H326.417L326.116 410.297H331.308L331.493 416.78ZM331.716 424.617H326.78L326.496 418.493H331.541L331.716 424.617ZM331.927 432.029H327.125L326.856 426.238H331.761L331.927 432.029ZM323.057 390.323H317.504L316.949 382.547H322.643L323.057 390.323ZM323.557 399.679H318.172L317.649 392.372H323.167L323.557 399.679ZM324.027 408.48H318.801L318.309 401.605H323.66L324.027 408.48ZM324.471 416.78H319.392L318.929 410.297H324.124L324.471 416.78ZM324.888 424.617H319.952L319.515 418.493H324.561L324.888 424.617ZM325.283 432.029H320.481L320.068 426.238H324.973L325.283 432.029ZM315.373 390.323H309.82L309.071 382.547H314.765L315.373 390.323ZM316.107 399.679H310.721L310.017 392.372H315.533L316.107 399.679ZM316.796 408.48H311.569L310.907 401.605H316.257L316.796 408.48ZM317.445 416.78H312.368L311.744 410.297H316.937L317.445 416.78ZM318.059 424.617H313.124L312.533 418.493H317.58L318.059 424.617ZM318.639 432.029H313.837L313.28 426.238H318.187L318.639 432.029ZM306.661 380.363L313.551 447.092H365.431L372.32 380.363H306.661" fill="#DCE8EF"/>
<path d="M60.2693 75.896L40.472 80.5427C40.1146 80.6267 39.892 80.9854 39.976 81.3441C40.06 81.7027 40.4186 81.9241 40.7773 81.8401L60.5746 77.1934C60.932 77.1094 61.1546 76.7507 61.0706 76.392C60.9866 76.0347 60.628 75.812 60.2693 75.896Z" fill="#C3D3DD"/>
<path d="M63.188 82.128L54.5013 90.604C54.2387 90.8614 54.2333 91.2827 54.4906 91.5467C54.748 91.8094 55.1693 91.8147 55.4333 91.5573L64.1186 83.0827C64.3826 82.8254 64.388 82.404 64.1306 82.14C63.8733 81.876 63.452 81.8707 63.188 82.128Z" fill="#C3D3DD"/>
<path d="M60.7586 68.3401L47.4253 66.9934C47.0586 66.9561 46.732 67.2241 46.6946 67.5894C46.6573 67.9561 46.9253 68.2827 47.2906 68.3201L60.624 69.6667C60.9906 69.7041 61.3173 69.4374 61.3546 69.0707C61.392 68.7041 61.1253 68.3774 60.7586 68.3401Z" fill="#C3D3DD"/>
<defs>
<linearGradient id="paint0_linear" x1="169.192" y1="151.995" x2="583.18" y2="151.995" gradientUnits="userSpaceOnUse">
<stop stop-color="#878CF0"/>
<stop offset="1" stop-color="#6D73ED"/>
</linearGradient>
<linearGradient id="paint1_linear" x1="272.688" y1="52.5907" x2="272.688" y2="184.817" gradientUnits="userSpaceOnUse">
<stop stop-color="#68ACFF"/>
<stop offset="0.429325" stop-color="#68ACFF"/>
<stop offset="1" stop-color="#3B6BFF"/>
</linearGradient>
<radialGradient id="paint2_radial" cx="0" cy="0" r="1" gradientUnits="userSpaceOnUse" gradientTransform="translate(318.48 105.384) scale(39.7064)">
<stop stop-color="#FFC8AF"/>
<stop offset="1" stop-color="#FFBB9C"/>
</radialGradient>
<linearGradient id="paint3_linear" x1="236.023" y1="50.1654" x2="261.048" y2="93.51" gradientUnits="userSpaceOnUse">
<stop stop-color="#5B2A8D"/>
<stop offset="0.454688" stop-color="#2A2277"/>
<stop offset="1" stop-color="#2A2277"/>
</linearGradient>
<radialGradient id="paint4_radial" cx="0" cy="0" r="1" gradientUnits="userSpaceOnUse" gradientTransform="translate(296.936 129.043) scale(46.8419)">
<stop stop-color="#FFC8AF"/>
<stop offset="1" stop-color="#FFBB9C"/>
</radialGradient>
<radialGradient id="paint5_radial" cx="0" cy="0" r="1" gradientUnits="userSpaceOnUse" gradientTransform="translate(264.245 70.4187) scale(13.4932)">
<stop stop-color="#FFC8AF"/>
<stop offset="1" stop-color="#FFBB9C"/>
</radialGradient>
<linearGradient id="paint6_linear" x1="270.9" y1="329.068" x2="234.829" y2="384.102" gradientUnits="userSpaceOnUse">
<stop stop-color="#C6DFF2"/>
<stop offset="0.998965" stop-color="#9BB7FC"/>
<stop offset="0.9994" stop-color="#9BB7FC"/>
<stop offset="1" stop-color="#9BB7FC"/>
</linearGradient>
<linearGradient id="paint7_linear" x1="268.605" y1="333.693" x2="230.774" y2="391.414" gradientUnits="userSpaceOnUse">
<stop stop-color="#9BB7FC"/>
<stop offset="0.420659" stop-color="#9BB7FC"/>
<stop offset="1" stop-color="#6490FA"/>
</linearGradient>
<linearGradient id="paint8_linear" x1="203.316" y1="326.12" x2="211.72" y2="390.976" gradientUnits="userSpaceOnUse">
<stop stop-color="#C6DFF2"/>
<stop offset="0.998965" stop-color="#9BB7FC"/>
<stop offset="0.9994" stop-color="#9BB7FC"/>
<stop offset="1" stop-color="#9BB7FC"/>
</linearGradient>
<linearGradient id="paint9_linear" x1="205.479" y1="330.888" x2="214.234" y2="398.459" gradientUnits="userSpaceOnUse">
<stop stop-color="#9BB7FC"/>
<stop offset="0.420659" stop-color="#9BB7FC"/>
<stop offset="1" stop-color="#6490FA"/>
</linearGradient>
<linearGradient id="paint10_linear" x1="234.639" y1="313.617" x2="234.639" y2="390.424" gradientUnits="userSpaceOnUse">
<stop stop-color="#9BB7FC"/>
<stop offset="0.420659" stop-color="#9BB7FC"/>
<stop offset="1" stop-color="#6490FA"/>
</linearGradient>
<linearGradient id="paint11_linear" x1="234.543" y1="319.935" x2="234.543" y2="401.592" gradientUnits="userSpaceOnUse">
<stop stop-color="#C6DFF2"/>
<stop offset="0.998965" stop-color="#9BB7FC"/>
<stop offset="0.9994" stop-color="#9BB7FC"/>
<stop offset="1" stop-color="#9BB7FC"/>
</linearGradient>
<radialGradient id="paint12_radial" cx="0" cy="0" r="1" gradientUnits="userSpaceOnUse" gradientTransform="translate(606.791 185.791) rotate(-174.289) scale(32.5876)">
<stop stop-color="#FFC8AF"/>
<stop offset="1" stop-color="#FFBB9C"/>
</radialGradient>
<linearGradient id="paint13_linear" x1="487.976" y1="425.236" x2="487.976" y2="444.165" gradientUnits="userSpaceOnUse">
<stop stop-color="#68ACFF"/>
<stop offset="0.429325" stop-color="#68ACFF"/>
<stop offset="1" stop-color="#3B6BFF"/>
</linearGradient>
<linearGradient id="paint14_linear" x1="550.007" y1="427.787" x2="550.007" y2="442.912" gradientUnits="userSpaceOnUse">
<stop stop-color="#68ACFF"/>
<stop offset="0.429325" stop-color="#68ACFF"/>
<stop offset="1" stop-color="#3B6BFF"/>
</linearGradient>
<linearGradient id="paint15_linear" x1="635.353" y1="243.04" x2="596.657" y2="243.04" gradientUnits="userSpaceOnUse">
<stop stop-color="#606BF1"/>
<stop offset="0.0182604" stop-color="#606BF1"/>
<stop offset="1" stop-color="#433AFF"/>
</linearGradient>
<linearGradient id="paint16_linear" x1="667.257" y1="218.104" x2="610.653" y2="316.145" gradientUnits="userSpaceOnUse">
<stop stop-color="#606BF1"/>
<stop offset="0.0182604" stop-color="#606BF1"/>
<stop offset="1" stop-color="#433AFF"/>
</linearGradient>
<radialGradient id="paint17_radial" cx="0" cy="0" r="1" gradientUnits="userSpaceOnUse" gradientTransform="translate(573.765 271.2) rotate(180) scale(41.253)">
<stop stop-color="#FFC8AF"/>
<stop offset="1" stop-color="#FFBB9C"/>
</radialGradient>
<radialGradient id="paint18_radial" cx="0" cy="0" r="1" gradientUnits="userSpaceOnUse" gradientTransform="translate(606.787 185.792) rotate(-174.289) scale(32.5773)">
<stop stop-color="#FFC8AF"/>
<stop offset="1" stop-color="#FFBB9C"/>
</radialGradient>
<linearGradient id="paint19_linear" x1="623.988" y1="206.173" x2="623.988" y2="269.707" gradientUnits="userSpaceOnUse">
<stop stop-color="#606BF1"/>
<stop offset="0.0182604" stop-color="#606BF1"/>
<stop offset="1" stop-color="#433AFF"/>
</linearGradient>
<linearGradient id="paint20_linear" x1="598.885" y1="150.065" x2="598.885" y2="186.86" gradientUnits="userSpaceOnUse">
<stop stop-color="#56549E"/>
<stop offset="0.989805" stop-color="#2E2C71"/>
<stop offset="1" stop-color="#2E2C71"/>
</linearGradient>
<linearGradient id="paint21_linear" x1="624.729" y1="194.773" x2="624.729" y2="210.775" gradientUnits="userSpaceOnUse">
<stop stop-color="#606BF1"/>
<stop offset="0.0182604" stop-color="#606BF1"/>
<stop offset="1" stop-color="#433AFF"/>
</linearGradient>
<linearGradient id="paint22_linear" x1="196.445" y1="208.339" x2="196.445" y2="221.242" gradientUnits="userSpaceOnUse">
<stop stop-color="#DF697B"/>
<stop offset="1" stop-color="#BE2773"/>
</linearGradient>
<linearGradient id="paint23_linear" x1="123.993" y1="162.533" x2="123.993" y2="286.483" gradientUnits="userSpaceOnUse">
<stop stop-color="#DF697B"/>
<stop offset="1" stop-color="#BE2773"/>
</linearGradient>
<linearGradient id="paint24_linear" x1="70.76" y1="141.401" x2="102.283" y2="263.085" gradientUnits="userSpaceOnUse">
<stop stop-color="#DF697B"/>
<stop offset="1" stop-color="#BE2773"/>
</linearGradient>
<linearGradient id="paint25_linear" x1="123.993" y1="162.533" x2="123.993" y2="286.483" gradientUnits="userSpaceOnUse">
<stop stop-color="#CC5E69"/>
<stop offset="1" stop-color="#AE2362"/>
</linearGradient>
<linearGradient id="paint26_linear" x1="70.76" y1="141.401" x2="102.282" y2="263.085" gradientUnits="userSpaceOnUse">
<stop stop-color="#CC5E69"/>
<stop offset="1" stop-color="#AE2362"/>
</linearGradient>
<radialGradient id="paint27_radial" cx="0" cy="0" r="1" gradientUnits="userSpaceOnUse" gradientTransform="translate(219.957 216.677) scale(14.3111)">
<stop stop-color="#FFC8AF"/>
<stop offset="1" stop-color="#FFBB9C"/>
</radialGradient>
<radialGradient id="paint28_radial" cx="0" cy="0" r="1" gradientUnits="userSpaceOnUse" gradientTransform="translate(170.776 236.029) scale(8.70875)">
<stop stop-color="#FFC8AF"/>
<stop offset="1" stop-color="#FFBB9C"/>
</radialGradient>
<linearGradient id="paint29_linear" x1="182.328" y1="147.271" x2="144.45" y2="184.132" gradientUnits="userSpaceOnUse">
<stop stop-color="#DF697B"/>
<stop offset="1" stop-color="#BE2773"/>
</linearGradient>
<radialGradient id="paint30_radial" cx="0" cy="0" r="1" gradientUnits="userSpaceOnUse" gradientTransform="translate(111.952 427.951) scale(7.00284)">
<stop stop-color="#FFC8AF"/>
<stop offset="1" stop-color="#FFBB9C"/>
</radialGradient>
<radialGradient id="paint31_radial" cx="0" cy="0" r="1" gradientUnits="userSpaceOnUse" gradientTransform="translate(42.276 425.664) rotate(12.0863) scale(7.00292)">
<stop stop-color="#FFC8AF"/>
<stop offset="1" stop-color="#FFBB9C"/>
</radialGradient>
<radialGradient id="paint32_radial" cx="0" cy="0" r="1" gradientUnits="userSpaceOnUse" gradientTransform="translate(146.913 126.84) scale(21.1345)">
<stop stop-color="#FFC8AF"/>
<stop offset="1" stop-color="#FFBB9C"/>
</radialGradient>
<linearGradient id="paint33_linear" x1="153.024" y1="91.0454" x2="153.024" y2="125.418" gradientUnits="userSpaceOnUse">
<stop stop-color="#68ACFF"/>
<stop offset="0.62525" stop-color="#3B6BFF"/>
<stop offset="1" stop-color="#3B6BFF"/>
</linearGradient>
<radialGradient id="paint34_radial" cx="0" cy="0" r="1" gradientUnits="userSpaceOnUse" gradientTransform="translate(146.913 126.84) scale(21.1346)">
<stop stop-color="#E9B495"/>
<stop offset="1" stop-color="#E9A885"/>
</radialGradient>
<radialGradient id="paint35_radial" cx="0" cy="0" r="1" gradientUnits="userSpaceOnUse" gradientTransform="translate(146.913 126.84) scale(21.1346)">
<stop stop-color="#E9B495"/>
<stop offset="1" stop-color="#E9A885"/>
</radialGradient>
<radialGradient id="paint36_radial" cx="0" cy="0" r="1" gradientUnits="userSpaceOnUse" gradientTransform="translate(146.913 126.84) scale(21.1346)">
<stop stop-color="#E9B495"/>
<stop offset="1" stop-color="#E9A885"/>
</radialGradient>
<linearGradient id="paint37_linear" x1="183.807" y1="281.223" x2="191.166" y2="281.223" gradientUnits="userSpaceOnUse">
<stop stop-color="#DF697B"/>
<stop offset="1" stop-color="#BE2773"/>
</linearGradient>
<linearGradient id="paint38_linear" x1="189.665" y1="282.875" x2="211.603" y2="282.875" gradientUnits="userSpaceOnUse">
<stop stop-color="#DF697B"/>
<stop offset="1" stop-color="#BE2773"/>
</linearGradient>
</defs>
</svg>
