<svg width="730" height="457" fill="none" xmlns="http://www.w3.org/2000/svg"><path d="M421.958 365.741c-49.992 0-96.653-8.138-138.567-20.833 182.853-.61 339.439-55.964 339.416-219.04 0-1.76-.045-3.523-.133-5.293 55.352 66.707 6.533 227.059-155.886 242.975a459.265 459.265 0 0 1-44.83 2.191zM61.34 155.247c.922-38.125 20.98-78.498 77.541-96.624 11.961-3.833 24.02-5.486 35.945-5.486 51.14 0 99.613 30.434 125.309 49.828a163.732 163.732 0 0 0 18.026 11.835c-24.246-.137-47.087-6.055-70.297-11.972-23.483-5.988-47.342-11.975-73.407-11.975-15.4 0-31.569 2.089-48.885 7.503a49.99 49.99 0 0 0-4.007-.981 25.339 25.339 0 0 0-5.034-.516c-9.475 0-16.144 5.642-18.477 9.98-.886 1.648-1.716 3.28-2.413 4.987-14.612 10.076-26.537 25.376-34.3 43.421M641.034 111.056c-4.477 0-8.107-3.908-8.107-8.727 0-4.818 3.63-8.725 8.107-8.725 4.478 0 8.107 3.907 8.107 8.725 0 4.819-3.629 8.727-8.107 8.727z" fill="#D5D9E4"/><path d="M112.502 55.193c-.799 0-1.656-.155-2.553-.502-4.542-3.364-2.565-9.038 1.803-9.842a5.31 5.31 0 0 1 .956-.088c2.151 0 4.16 1.311 4.923 3.38 1.24 3.358-1.242 7.052-5.129 7.052zM618.901 34.897c-5.832 0-10.561-4.728-10.561-10.56 0-5.833 4.729-10.561 10.561-10.561s10.561 4.728 10.561 10.56c0 5.833-4.729 10.56-10.561 10.56z" fill="#C8CBE0"/><path d="M133.486 50.073c-4.664 0-8.946-3.081-10.267-7.791-1.592-5.674 1.719-11.562 7.392-13.153.963-.27 1.932-.4 2.886-.4 4.663 0 8.947 3.082 10.266 7.793 1.592 5.673-1.718 11.561-7.392 13.153a10.7 10.7 0 0 1-2.885.398z" fill="#CFD1E1"/><path d="M567.305 364.49c-.441 0-.903-.042-1.386-.13-5.088-2.461-4.201-8.405-.059-10.006a5.313 5.313 0 0 1 1.911-.356c1.789 0 3.52.9 4.479 2.497 2.027 3.379-.298 7.995-4.945 7.995M586.216 355.629a10.67 10.67 0 0 1-9.567-5.93c-2.618-5.279-.461-11.681 4.818-14.298a10.635 10.635 0 0 1 4.732-1.114c3.927 0 7.703 2.176 9.566 5.932 2.619 5.278.462 11.679-4.817 14.297a10.633 10.633 0 0 1-4.732 1.113M599.006 14.672a6.497 6.497 0 1 1 0-12.994 6.497 6.497 0 0 1 0 12.994zM280.306 344.913c-10.291 0-20.693-.172-31.122-.508C64.25 338.471 30.966 225.854 61.34 155.247c-.5 20.688 4.634 40.71 12.627 56.165 15.434 29.839 94.705 98.749 209.424 133.496-1.031.004-2.052.005-3.085.005zm116.019-209.694c-7.684 0-15.807-.575-24.451-1.85-18.882-2.788-37.045-9.142-53.713-18.569.284.002.571.002.855.002 6.974 0 14.065-.483 21.315-1.585C416.884 101.578 424.627.103 506.369.103c1.555 0 3.151.037 4.762.113 1.077.05 2.144.11 3.2.176C572.65 4.118 619.854 64.03 622.674 120.575c-8.366-10.081-19.111-18.024-32.202-23.006-14.403-5.48-27.23-7.724-39.073-7.724-26.642 0-48.322 11.343-71.889 22.686-23.566 11.343-49.017 22.688-83.185 22.688" fill="#C8CBE0"/><path d="M283.391 344.908C168.672 310.161 89.401 241.251 73.967 211.412c-7.993-15.455-13.127-35.477-12.627-56.165 7.764-18.045 19.69-33.345 34.3-43.421-2.15 5.27-3.036 11.262-.406 20.675 2.635 9.431 10.104 13.335 14.074 14.78 4.545 3.046 11.447 6.802 17.832 6.802 2.588 0 5.09-.616 7.317-2.148 1.357-.932 2.398-2.814 3.384-5.865 2.157-.413 3.732-2.882 4.392-5.564a7.71 7.71 0 0 0 2.101-.742 7.728 7.728 0 0 0 3.977-5.277c.713-3.446-1.004-6.842-3.974-8.406l-.193-.098c.528-3.255.609-6.571.179-9.769-1.201-8.939-8.549-14.896-18.751-17.858 17.316-5.414 33.485-7.503 48.885-7.503 26.065 0 49.924 5.987 73.407 11.975 23.21 5.917 46.051 11.835 70.297 11.972 16.668 9.427 34.831 15.781 53.713 18.569 8.644 1.275 16.767 1.85 24.451 1.85 34.168 0 59.619-11.345 83.185-22.688 23.567-11.343 45.247-22.686 71.889-22.686 11.843 0 24.67 2.243 39.073 7.724 13.091 4.982 23.836 12.925 32.201 23.006.089 1.77.134 3.533.134 5.293.023 163.076-156.563 218.43-339.416 219.04zM142.432 139.523c.21-1.309.196-2.616-.08-3.71-.155-.617-.37-1.082-.627-1.426a36.802 36.802 0 0 0 2.254-7.459c.068.037.135.075.202.114 2.451 1.435 3.84 4.327 3.233 7.259-.03.148-.062.292-.105.433-.055.206-.12.405-.198.602a6.781 6.781 0 0 1-2.787 3.378 6.992 6.992 0 0 1-1.468.686c-.14.045-.281.086-.424.123" fill="#C6C9DF"/><path d="M658.341 404.927c0 5.415-85.097 9.804-190.071 9.804-104.973 0-190.072-4.389-190.072-9.804s85.099-9.805 190.072-9.805c104.974 0 190.071 4.39 190.071 9.805" fill="#C2C6DF"/><path d="M597.012 377.483h-26.339v27.392h30.799v-22.932a4.459 4.459 0 0 0-4.46-4.46M521.201 377.483h-91.429v-58.697h91.429v58.697z" fill="#C2C6DF"/><path d="M591.108 404.875H338.876v-10.168c0-9.513 7.712-17.224 17.225-17.224h217.783c9.512 0 17.224 7.711 17.224 17.224v10.168zM509.996 377.483h-91.43v-58.697h91.43v58.697z" fill="#fff"/><path d="m418.566 336.809 91.43-7.32.014-10.703h-91.324l-.12 18.023" fill="#C2C6DF"/><path d="M672.273 76.403v230.182c0 6.746-5.47 12.216-12.216 12.216H269.674c-6.746 0-12.216-5.47-12.216-12.216V76.403c0-6.746 5.47-12.217 12.216-12.217h390.383c6.746 0 12.216 5.47 12.216 12.217z" fill="#C2C6DF"/><path d="M672.273 76.403v213.159h-37.766V64.186h25.55c6.746 0 12.216 5.47 12.216 12.217z" fill="#4F5058"/><path d="M656.739 76.403v230.182c0 6.746-5.469 12.216-12.215 12.216h-374.85c-6.746 0-12.216-5.47-12.216-12.216V76.403c0-6.746 5.47-12.217 12.216-12.217h374.85a11.338 11.338 0 0 1 .938.037h.015l.283.027c.158.012.314.034.472.055.104.012.204.027.308.05l.145.023c.102.015.199.034.3.058 5.567 1.14 9.754 6.063 9.754 11.967z" fill="#fff"/><path d="M640.903 268.271a3.32 3.32 0 0 1-3.324 3.322H276.618a3.32 3.32 0 0 1-3.323-3.322V83.346a3.32 3.32 0 0 1 3.323-3.322h360.961a3.32 3.32 0 0 1 3.324 3.322v184.925zm6.082-203.835a3.608 3.608 0 0 0-.3-.058l-.145-.024a3.35 3.35 0 0 0-.308-.049c-.158-.021-.314-.043-.472-.055l-.283-.027h-.015a11.208 11.208 0 0 0-.938-.037h-374.85c-6.746 0-12.216 5.47-12.216 12.217v213.159h399.281V76.402c0-5.903-4.187-10.827-9.754-11.966z" fill="#33313B"/><path d="M640.903 83.347V268.27a3.32 3.32 0 0 1-3.324 3.322H276.618a3.32 3.32 0 0 1-3.323-3.322V83.346a3.32 3.32 0 0 1 3.323-3.322h360.961a3.32 3.32 0 0 1 3.324 3.323z" fill="#C2C6DF"/><path d="M640.903 83.346v17.452H273.295V83.346a3.32 3.32 0 0 1 3.323-3.322h360.961a3.32 3.32 0 0 1 3.324 3.322z" fill="#fff"/><path d="M612.429 90.132a2.822 2.822 0 1 1-5.644.001 2.822 2.822 0 0 1 5.644 0z" fill="#F03B53"/><path d="M621.578 90.132a2.823 2.823 0 1 1-5.647-.002 2.823 2.823 0 0 1 5.647.002z" fill="#3D7FCA"/><path d="M595.206 93.119H308.028a2.64 2.64 0 0 1-2.633-2.634v-.705a2.641 2.641 0 0 1 2.633-2.635h287.178a2.642 2.642 0 0 1 2.634 2.635v.705a2.642 2.642 0 0 1-2.634 2.634" fill="#C3D1E3"/><path d="M286.568 90.132v2.764c0 .39-.423.635-.76.44l-2.394-1.382-2.394-1.383a.507.507 0 0 1 0-.878l2.394-1.382 2.394-1.383c.337-.195.76.05.76.44v2.764M290.774 90.132v2.764c0 .39.423.635.76.44l2.394-1.382 2.394-1.383a.506.506 0 0 0 0-.878l-2.394-1.382-2.394-1.383a.507.507 0 0 0-.76.44v2.764" fill="#131112"/><path d="m625.382 92.49-.125-.126a.708.708 0 0 1 0-1.002l3.79-3.79a.707.707 0 0 1 1.001 0l.127.125a.71.71 0 0 1 0 1.002l-3.791 3.791a.71.71 0 0 1-1.002 0z" fill="#33313B"/><path d="m630.048 92.49.127-.126a.71.71 0 0 0 0-1.002l-3.791-3.79a.708.708 0 0 0-1.002 0l-.125.125a.708.708 0 0 0 0 1.002l3.79 3.791a.709.709 0 0 0 1.001 0z" fill="#33313B"/><path d="M591.417 264.153H321.796a6.947 6.947 0 0 1-6.947-6.947V111.958a6.947 6.947 0 0 1 6.947-6.947h269.621a6.946 6.946 0 0 1 6.946 6.947v145.248a6.947 6.947 0 0 1-6.946 6.947" fill="#fff"/><path d="M396.91 186.438h-62.161a1.727 1.727 0 0 1 0-3.454h62.161a1.728 1.728 0 1 1 0 3.454M396.91 171.826h-62.161a1.726 1.726 0 1 1 0-3.453h62.161a1.728 1.728 0 1 1 0 3.453M396.91 201.048h-62.161a1.727 1.727 0 0 1 0-3.453h62.161a1.727 1.727 0 1 1 0 3.453M587.909 186.438h-62.161a1.727 1.727 0 0 1 0-3.454h62.161a1.728 1.728 0 1 1 0 3.454zM587.909 171.826h-62.161a1.726 1.726 0 1 1 0-3.453h62.161a1.728 1.728 0 1 1 0 3.453zM587.909 201.048h-62.161a1.727 1.727 0 0 1 0-3.453h62.161a1.727 1.727 0 1 1 0 3.453z" fill="#C2C6DF"/><path d="M314.849 239.438h283.514v23.245c0 .81-.659 1.469-1.472 1.469H316.322a1.472 1.472 0 0 1-1.473-1.469v-23.245z" fill="#33313B"/><path d="M570.516 248.599v-2.095h2.622v-1.864h-3.555a.931.931 0 0 0-.931.932v3.027h1.864zM570.516 252.328h-1.864v3.187c0 .515.416.933.931.933h3.555v-1.865h-2.622v-2.255zM578.594 248.599h1.865v-3.027a.932.932 0 0 0-.932-.932h-3.419v1.864h2.486v2.095M578.594 252.328v2.255h-2.486v1.865h3.419a.933.933 0 0 0 .932-.933v-3.187h-1.865M331.365 250.945v-5.888l5.099 2.943 5.099 2.945-5.099 2.944-5.099 2.945v-5.889M359.634 256.368h-1.339a.913.913 0 0 1-.911-.91v-8.901c0-.5.41-.908.911-.908h1.339c.501 0 .911.408.911.908v8.901c0 .501-.41.91-.911.91zM366.237 256.368h-1.339a.913.913 0 0 1-.911-.91v-8.901c0-.5.41-.908.911-.908h1.339c.501 0 .911.408.911.908v8.901c0 .501-.41.91-.911.91z" fill="#fff"/><path d="M598.363 239.439H314.849v-4.647h283.514v4.647z" fill="#C2C6DF"/><path d="M460.324 234.794v4.646H314.849v-4.646h145.475z" fill="#F03B53"/><path d="M553.028 216.709h3.199v7.007h4.282v2.48h-7.481v-9.487zM561.39 216.709h3.199v9.487h-3.199v-9.487zM576.271 216.709l-4.012 9.487h-3.144l-4.012-9.487h3.443l2.263 5.544 2.317-5.544h3.145zM584.469 223.784v2.412h-7.888v-9.487h7.712v2.413h-4.567v1.111h4.011v2.304h-4.011v1.247h4.743" fill="#33313B"/><path d="M547.763 221.376a3.902 3.902 0 1 1-7.805 0 3.902 3.902 0 0 1 7.805 0z" fill="#F03B53"/><path d="M343.587 219.415c0 .604.382.954.892.954.509 0 .891-.35.891-.954 0-.606-.382-.956-.891-.956-.51 0-.892.35-.892.956zm2.118 4.474c0-.717-.51-1.163-1.226-1.163s-1.226.446-1.226 1.163c0 .716.51 1.163 1.226 1.163s1.226-.447 1.226-1.163zm3.774.128c0 2.164-2.055 3.565-5 3.565-2.946 0-5-1.401-5-3.565 0-1.116.557-1.991 1.497-2.565-.685-.541-1.099-1.273-1.099-2.197 0-2.022 1.895-3.328 4.602-3.328 2.707 0 4.602 1.306 4.602 3.328 0 .924-.414 1.656-1.1 2.197.941.574 1.498 1.449 1.498 2.565M356.499 221.756c0-2.151-.541-2.82-1.273-2.82-.734 0-1.274.669-1.274 2.82 0 2.149.54 2.818 1.274 2.818.732 0 1.273-.669 1.273-2.818zm-6.321 0c0-3.695 2.101-5.829 5.048-5.829 2.946 0 5.047 2.134 5.047 5.829 0 3.694-2.101 5.826-5.047 5.826-2.947 0-5.048-2.132-5.048-5.826z" fill="#33313B"/><path d="M332.946 218.625a3.427 3.427 0 1 1-6.854-.002 3.427 3.427 0 0 1 6.854.002zM335.924 227.297h-12.81s1.456-4.071 6.308-4.071l.097.003.097-.003c4.852 0 6.308 4.071 6.308 4.071z" fill="#F03B53"/><path d="M368.885 141.266s-1.713 10.452-9.41 12.324c-6.216 1.509-12.076-4.461-14.101-6.812a18.615 18.615 0 0 1-.747-.917s-.463.049-1.154.038c-1.62-.022-4.502-.353-5.63-2.345-1.606-2.84 4.243-4.78 4.243-4.78s-3-2.678-2.248-4.626c.74-1.916 4.764-2.315 4.764-2.315s-4.332-2.813-2.883-5.267c2.181-3.689 6.665.369 7.021.593-.284-.324-5.897-6.133-2.825-7.177 2.682-.913 7.091 2.104 9.991 5.094.46.473.72.748.72.748s.173-.133.479-.336c1.451-.969 5.901-3.567 8.736-1.198 3.429 2.861 3.044 16.976 3.044 16.976z" fill="#F57A68"/><path d="M360.852 147.684a.611.611 0 0 1-.774-.89c1.013-1.51 1.327-3.049.93-4.576-1.016-3.914-6.249-6.622-6.302-6.649a.61.61 0 1 1 .555-1.088c.234.12 5.778 2.99 6.93 7.431.487 1.88.118 3.751-1.1 5.563l-.239.209" fill="#F14558"/><path d="M355.509 132.618c-.003.724-.301 1.299-.862 1.665a2.038 2.038 0 0 1-.396.201 4.457 4.457 0 0 1-1.101.248c.299.199.569.41.783.639.214.223.378.462.472.717.13.365.186.925-.271 1.542-.981 1.299-3.243 1.831-5.086 2.048 1.318.776 2.466 1.833 2.847 2.893.241.686.164 1.331-.237 1.863-.276.368-.745.692-1.324.973-1.441.701-3.548 1.138-4.957 1.371-.488-.563-.749-.918-.749-.918s-.466.05-1.157.04a.587.587 0 0 1 .316-.129c2.262-.264 6.135-1.057 6.897-2.07.097-.135.194-.337.059-.721-.418-1.166-2.613-2.711-4.514-3.18a.598.598 0 0 1-.459-.666.604.604 0 0 1 .613-.535c1.51.028 5.666-.23 6.774-1.706.16-.213.119-.33.094-.389-.098-.277-.444-.567-.925-.847-.979-.569-2.508-1.094-3.618-1.359a.579.579 0 0 1-.314-.191.591.591 0 0 1-.139-.544.613.613 0 0 1 .739-.454c.211.05.649.16 1.193.33 1.026.12 2.015.177 2.762.101.447-.043.805-.135 1.034-.283.14-.091.3-.248.306-.651.006-.504-.249-1.17-.658-1.853a.598.598 0 0 1 .05-.682l.013-.017a.599.599 0 0 1 .985.063c.509.856.834 1.737.83 2.501" fill="#F14558"/><path d="M351.031 121.182c1.053.652 1.972 1.257 2.862 2.103.87.827 1.417 1.245 2.013 1.791l-11.744-49.825c-.176-.764-1.318-.532-1.183.242l8.052 45.689zM361.24 148.851c-4.069 2.626-5.211.683-5.211.683l-2.064-11.703.169-.201c.457-.617.401-1.177.271-1.542a2.104 2.104 0 0 0-.472-.717 3.538 3.538 0 0 0-.475-.418l-.044-.255c.308-.05.595-.12.837-.214.148-.059.28-.122.396-.201.371-.242.63-.579.755-.988.493.472 1.108.746 1.832.821.194.022.389.025.591.019l3.415 14.716z" fill="#33313B"/><path d="M364.779 130.58c-.116.104-1.912 1.673-4.01 2.693-1.162.564-2.42.961-3.536.844-.92-.096-1.664-.516-2.21-1.249-1.937-2.602-.28-5.998.883-7.792.46.473.72.748.72.748s.173-.133.479-.336c-1.001 1.478-2.673 4.544-1.102 6.65.336.454.78.704 1.355.764 2.156.226 5.504-2.26 6.613-3.237a.607.607 0 0 1 .862.053.612.612 0 0 1-.054.862" fill="#F14558"/><path d="m427.647 118.495-.002-.023-.003-.005-.015.067-.031.147-.073.359-.162.794c-.054.269-.114.546-.179.83-.059.278-.123.559-.191.845a92.81 92.81 0 0 1-.855 3.452c-.632 2.313-1.305 4.639-2.089 6.927-.787 2.287-1.6 4.564-2.526 6.787-.471 1.107-.934 2.216-1.44 3.304-.476 1.101-1.007 2.17-1.517 3.249-1.072 2.129-2.191 4.224-3.401 6.247-.287.517-.61 1.006-.915 1.509-.315.496-.605 1.01-.936 1.491-.651.971-1.281 1.96-1.965 2.9-1.319 1.924-2.776 3.719-4.228 5.51-1.507 1.736-3.036 3.45-4.672 5.039-.408.399-.807.807-1.22 1.2l-1.267 1.146-.632.575-.157.144.08-.072.111-.095c.148-.122.307-.23.471-.333a7.397 7.397 0 0 1 2.277-1.054c.195-.05.357-.104.542-.136l.272-.041.228-.039c.15-.022.312-.031.453-.033a2.22 2.22 0 0 1 .355-.015l.169.009.125.001.239.029.149.019.069.018.029.003c.179.056-.176.002-.704-.23-.538-.224-1.255-.602-2.037-1.064a36.359 36.359 0 0 1-2.495-1.641c-1.741-1.229-3.565-2.705-5.391-4.271a141.876 141.876 0 0 1-5.491-5.012 184.015 184.015 0 0 1-5.455-5.413 292.543 292.543 0 0 1-5.382-5.657 223.236 223.236 0 0 1-2.655-2.878l-2.549-2.793-19.714 14.785.656.995.623.92 1.245 1.808c.84 1.19 1.689 2.366 2.547 3.537a205.063 205.063 0 0 0 5.347 6.9c1.856 2.258 3.754 4.505 5.75 6.718a153.686 153.686 0 0 0 3.07 3.294c1.052 1.089 2.13 2.17 3.242 3.246 2.236 2.15 4.594 4.264 7.258 6.339a65.453 65.453 0 0 0 4.289 3.064 43.52 43.52 0 0 0 5.191 2.922c1.968.922 4.215 1.822 7.095 2.425l.534.108c.186.034.386.063.58.094.388.059.78.113 1.17.161.406.045.846.073 1.269.1l.641.034c.212.011.456.005.683.005.463-.003.926-.015 1.388-.037a28.03 28.03 0 0 0 1.479-.147c.248-.031.49-.061.74-.102.261-.047.519-.098.777-.151.52-.111 1.023-.217 1.547-.371a21.33 21.33 0 0 0 6.002-2.796c.441-.307.868-.63 1.291-.961l.313-.251.284-.233.226-.2.904-.806 1.805-1.615c.588-.551 1.159-1.119 1.739-1.678 2.33-2.231 4.472-4.63 6.558-7.064 2.029-2.472 3.99-5.001 5.768-7.632 1.818-2.608 3.451-5.318 5.006-8.055l1.129-2.072c.374-.693.715-1.397 1.072-2.095.356-.698.709-1.398 1.035-2.108l.996-2.122a115.256 115.256 0 0 0 6.26-17.503c.79-2.988 1.5-5.994 2.046-9.06.273-1.534.532-3.072.736-4.651.053-.391.102-.789.148-1.19.049-.397.095-.801.136-1.212.043-.402.084-.827.121-1.251l.113-1.505-26.029-2.383" fill="#F7942C"/><path d="M365.75 152.071a1.7 1.7 0 1 0 3.386-.29 1.7 1.7 0 0 0-3.386.29M401.091 181.282a.73.73 0 0 0 .706-.551c1.363-5.455 1.189-12.299 1.182-12.587a.726.726 0 1 0-1.453.04c.002.068.175 6.936-1.139 12.195a.726.726 0 0 0 .528.88l.176.023" fill="#D1692A"/><path d="M405.738 176.022a.726.726 0 0 0 .649-1.05c-.099-.199-2.446-4.893-3.555-6.291a.725.725 0 1 0-1.138.902c1.014 1.281 3.37 5.989 3.394 6.037a.727.727 0 0 0 .65.402M360.529 166.179a.73.73 0 0 0 .521-.22c6.081-6.271 19.804-16.178 19.942-16.278a.725.725 0 1 0-.849-1.178c-.138.1-13.966 10.083-20.136 16.445a.725.725 0 0 0 .522 1.231" fill="#D1692A"/><path d="M366.404 160.818a.727.727 0 0 0 .556-1.191l-7.339-8.807a.726.726 0 0 0-1.115.929l7.338 8.808a.728.728 0 0 0 .56.261" fill="#D1692A"/><path d="M502.904 237.885s2.132 20.224-2.469 31.484c-4.602 11.261-64.166 5.465-79.348-4.669-6.225-4.157 7.035-42.512 7.035-42.512l74.782 15.697z" fill="#33313B"/><path d="M454.611 270.46c-.021.403.303.749.722.774h.006a.751.751 0 0 0 .799-.7c.135-2.765.297-5.597.475-8.426.032-.497.063-.995.097-1.492.602-9.243 1.365-18.318 1.94-24.724.049-.517.092-1.021.138-1.503.128-1.406.245-2.653.344-3.709-.507-.079-1.014-.161-1.515-.245-.099 1.057-.216 2.315-.345 3.735-.045.482-.09.985-.137 1.504-.57 6.35-1.33 15.344-1.93 24.532-.036.505-.067 1.015-.102 1.523-.184 2.93-.352 5.868-.492 8.731" fill="#4F5058"/><path d="M452.431 260.706c.239.113 1.311.612 2.672 1.023.476.145.987.277 1.51.38.48.092.965.161 1.448.188.926.052 1.819-.046 2.565-.403.929-.443 1.531-1.252 1.74-2.334.556-2.852 1.723-14.625 2.509-22.954.051-.51.097-1.01.143-1.497l.331-3.572c-.506-.062-1.014-.123-1.522-.189-.096 1.035-.207 2.262-.335 3.611-.045.482-.093.982-.14 1.497-.788 8.307-1.951 20.063-2.489 22.827-.122.638-.415 1.047-.922 1.289-.809.388-2.024.308-3.231.044a16.884 16.884 0 0 1-1.505-.41 18.705 18.705 0 0 1-2.099-.822.774.774 0 0 0-1.022.332.73.73 0 0 0 .347.99" fill="#4F5058"/><path d="M419.001 236.608c16.489 15.393 55.481 23.576 85.535 8.941 3.297-9.01 6.923-41.165 7.894-50.776.197-1.915.351-3.829.478-5.746.608-9.219.478-18.504.031-28.224l-.075-1.588c-.393-7.991-.982-16.283-1.536-25.081-1.096-17.422-6.911-28.157-17.013-29.764-4.698-.746-8.412-2.069-11.152-3.363a27.757 27.757 0 0 1-.959-.472c-3.258-1.66-5.102-3.156-5.102-3.156H454.57c-1.94 2.828-4.386 4.606-7.014 5.862-.291.138-.585.271-.883.401-7.998 3.452-17.324 2.765-19.248 12.411-1.208 6.056 3.43 18.515 2.943 43.773a207.615 207.615 0 0 1-.548 11.557 237.87 237.87 0 0 1-1.085 11.045c-.225 1.86-.474 3.764-.756 5.72-1.499 10.496-5.524 34.961-8.978 48.46" fill="#F7942C"/><path d="m496.225 241.87-.178-.024a.675.675 0 0 1-.474-.831c12.515-45.885 9.988-92.525 9.962-92.99a.676.676 0 1 1 1.35-.079c.026.468 2.564 47.33-10.008 93.425a.674.674 0 0 1-.652.499M428.32 182.274a.725.725 0 0 0 .72-.645c1.498-13.272 1.514-39.673 1.514-39.938a.725.725 0 1 0-1.451 0c0 .264-.018 26.585-1.506 39.775a.727.727 0 0 0 .641.803l.082.005M459.187 232.256c.08.936.903 1.629 1.838 1.548a1.7 1.7 0 1 0-1.838-1.548zM458.915 240.473a1.7 1.7 0 1 0 3.387-.287 1.7 1.7 0 0 0-3.387.287M437.744 133.845c-.277 2.415-1.014 11.272 2.434 15.276 1.133 1.316 2.582 1.955 4.429 1.955 1.848 0 3.295-.639 4.428-1.954 3.445-4 2.71-12.862 2.435-15.277h-13.726zm1.334 16.224c-4.423-5.137-2.764-16.575-2.691-17.058a.725.725 0 0 1 .717-.619h15.005c.36 0 .665.263.718.619.074.483 1.732 11.921-2.691 17.058-1.405 1.632-3.266 2.46-5.529 2.46s-4.124-.828-5.529-2.46" fill="#D1692A"/><path d="M479.138 41.823c-4.203-2.72-17.424-4.083-17.424-4.083s-2.179-5.718-4.628-7.35c-5.572-3.716-6.261 3.81-6.261 3.81s-5.445-7.623-10.345-5.444c-4.9 2.177 1.361 9.255 1.361 9.255s-7.351-1.36-6.534 4.9c.817 6.262 7.896 8.984 7.896 8.984s-2.179 3.539-1.089 9.256c1.089 5.717 3.539 5.99 3.539 5.99l30.489 2.721s6.261 0 7.895-7.894c1.633-7.895-3.812-11.162-3.812-11.162s3.539-5.988-1.087-8.983" fill="#33313B"/><path d="M454.23 93.546v5.728a17.93 17.93 0 0 0 2.027 1.421c9.947 5.972 20.676-1.42 20.676-1.42v-19.86l-19.995 12.446-2.708 1.685z" fill="#F57A68"/><path d="M454.23 93.38v5.894a17.93 17.93 0 0 0 2.027 1.421c8.468-3.353 14.633-12.238 14.633-12.238l-13.952 3.404-2.708 1.52" fill="#33313B"/><path d="M476.882 93.455s6.691 1.12 8.53 8.781c-6.52 6.823-12.286 12.737-21.616 14.464v-13.702s8.235-2.059 13.086-9.543M454.022 95.435s-5.978 1.283-8.302 8.931c6.027 7.333 9.246 10.093 18.076 12.334v-13.702s-4.923-.079-9.774-7.563" fill="#F7942C"/><path d="m450.653 201.936 3.875 9.354v.003l1.739 4.203 4.917 11.875 2.372-4.585.843-1.624 1.905-3.677.839-1.624 1.905-3.677.84-1.622 1.906-3.677v-.003l.841-1.621 1.789-3.456-.037-.374-.279-2.742-.633-6.215-.279-2.746-.634-6.214-.277-2.743-.634-6.214-.279-2.741-.633-6.218-.279-2.743-.633-6.214-.279-2.743-.634-6.214-.277-2.746-.634-6.211-.279-2.745-.633-6.215-.279-2.741-.653-6.425-4.749-.185-.14 1.068-.287 2.175-.651 4.932-.287 2.175-.65 4.931-.288 2.179-.651 4.931-.287 2.176-.651 4.931-.287 2.175-.651 4.935-.288 2.175-.65 4.932-.288 2.174-.649 4.933-.289 2.177-.65 4.932-.288 2.176-.65 4.931-.287 2.178-.652 4.932-.286 2.175-.652 4.932-.287 2.177-.011.088" fill="#33313B"/><path d="m460.983 123.659 6.108 6.108-.279-2.742-5.542-5.541-.287 2.175M460.045 130.766l7.958 7.961-.279-2.745-7.392-7.391-.287 2.175M459.107 137.876l9.807 9.808-.277-2.746-9.242-9.241-.288 2.179zM458.169 144.983l11.658 11.658-.279-2.743-11.092-11.091-.287 2.176M457.231 152.089l13.508 13.509-.279-2.743-12.942-12.941-.287 2.175zM456.292 159.199l15.359 15.358-.279-2.741-14.792-14.792-.288 2.175zM455.354 166.305l17.208 17.209-.277-2.743-16.643-16.64-.288 2.174M454.416 173.415l19.059 19.059-.279-2.746-18.491-18.49-.289 2.177zM453.478 180.523l20.909 20.908-.279-2.742-20.342-20.342-.288 2.176M452.541 187.632l19.253 19.25.841-1.621-19.807-19.807-.287 2.178M451.603 194.739l17.445 17.445.84-1.622-17.999-17.998-.286 2.175M450.664 201.848l15.64 15.637.839-1.624-16.191-16.19-.288 2.177zM454.528 211.293l1.739 4.203 7.289 7.29.843-1.624-9.871-9.869" fill="#4F5058"/><path d="m466.161 120.602-2.365 3.512-2.385-3.698-.417 3.161 2.765 2.814 2.65-3.342-.248-2.447z" fill="#4F5058"/><path d="m470.13 114.699-6.334 9.415-6.069-9.415 6.069-7.865 6.334 7.865z" fill="#33313B"/><path d="M473.811 121.141a.723.723 0 0 0 .452-.158c6.272-5.001 11.612-17.924 11.837-18.471a.727.727 0 0 0-1.344-.551c-.052.127-5.081 12.295-10.821 17.399l-9.538-12.956a.723.723 0 0 0-1.178.013l-8.901 12.635c-1.358-2.452-4.931-8.969-7.933-15.009a.726.726 0 0 0-1.3.646c3.788 7.625 8.481 15.997 8.528 16.082a.725.725 0 0 0 1.227.063l8.984-12.756 9.402 12.767a.725.725 0 0 0 .49.29l.095.006" fill="#D1692A"/><path d="M463.812 107.56a.725.725 0 0 0 .726-.726v-3.243a.726.726 0 0 0-1.451 0v3.243c0 .402.324.726.725.726z" fill="#D1692A"/><path d="M447.073 68.163s-3.254-3.843-5.091 0c-1.839 3.843-.426 11.622 4.526 10.35l.565-10.35z" fill="#F14558"/><path d="M443.603 81.64s-.017 11.842 12.301 11.815c12.241-.022 20.582-9.636 21.017-10.08l.012-.012.135-2.488.696-12.919.373-6.904s1.563-12.432-10.252-14.7c-8.632-1.656-16.728-.222-20.812 4.281a9.165 9.165 0 0 0-.381.447c-1.286 1.582-2.105 3.513-2.324 5.79l-.383 12.402-.092 3.038-.29 9.33" fill="#F57A68"/><path d="M457.746 60.377s5.168 3.85 8.243 1.396c3.078-2.455-4.089-5.129-6.446-4.926-2.355.2-3.333 2.657-1.797 3.53zM452.121 60.377s-5.167 3.85-8.244 1.396c-3.077-2.455 4.09-5.129 6.446-4.926 2.357.2 3.333 2.657 1.798 3.53z" fill="#33313B"/><path d="M456.194 83.187c1.972.178 3.445-1.064 3.521-1.129a.546.546 0 0 0-.71-.826c-.079.067-1.783 1.478-3.785.588a.543.543 0 0 0-.718.277.543.543 0 0 0 .276.718c.49.219.967.332 1.416.372z" fill="#F14558"/><path d="M461.532 74.734s-7.515 1.513-11.311 1.172c0 0 1.412 5.593 7.006 4.181 4.352-1.098 4.305-5.353 4.305-5.353" fill="#fff"/><path d="M446.692 51.08c1.934-.685 3.329-.048 6.34 1.275 4.352 1.912 9.217.19 13.519-2.006 4.3-2.2 6.88.86 5.416 2.866-1.465 2.007-1.306 3.632.319 6.191 1.625 2.557-3.075 3.748-.479 5.756 1.094.846 1.028 2.108.586 3.286-.481 1.285.647 2.598 1.995 2.347 1.401-.356 3.376-2.839 3.376-2.839l.373-6.903s1.563-12.433-10.252-14.7c-8.632-1.657-16.728-.223-20.812 4.28a9.167 9.167 0 0 0-.381.447" fill="#33313B"/><path d="M460.05 70.795c0 .862 1.776 1.56 3.967 1.56 2.189 0 3.966-.698 3.966-1.56 0-.861-1.777-1.56-3.966-1.56-2.191 0-3.967.699-3.967 1.56zM443.892 72.31a9.4 9.4 0 0 0 .955.047c2.189 0 3.964-.7 3.964-1.562 0-.861-1.775-1.561-3.964-1.561-.296 0-.585.013-.862.038l-.093 3.038z" fill="#F14558"/><path d="M458.333 66.05c0 1.184.537 2.144 1.2 2.144.662 0 1.2-.96 1.2-2.144 0-1.184-.538-2.144-1.2-2.144-.663 0-1.2.96-1.2 2.144zM446.434 66.05c0 1.184.537 2.144 1.2 2.144.663 0 1.199-.96 1.199-2.144 0-1.184-.536-2.144-1.199-2.144s-1.2.96-1.2 2.144zM473.065 78.57c.056.131 1.615 3.747 3.856 4.805l.012-.012.134-2.49s-1.945-.33-4.002-2.304" fill="#33313B"/><path d="M475.234 70.346s4.734-6.36 8.203-1.362c2.859 4.118-2.546 14.85-8.203 11.173v-9.811z" fill="#F57A68"/><path d="M475.882 78.242a.487.487 0 0 0 .483-.434c.526-4.813 4.559-6.492 4.73-6.561a.488.488 0 0 0-.363-.904c-.192.076-4.744 1.95-5.335 7.359a.487.487 0 0 0 .43.537l.055.003" fill="#33313B"/><path d="M480.427 75.288a.488.488 0 0 0 .308-.864c-.195-.159-1.941-1.535-3.404-1.16a.486.486 0 1 0 .241.944c.842-.215 2.125.628 2.549.972.09.073.198.108.306.108zM454.488 72.01a.487.487 0 1 0 0-.973c-1.793 0-2.63-.948-2.908-1.356 1.943-4.006 3.874-8.043 3.894-8.084a.488.488 0 1 0-.879-.42c-.02.041-2.025 4.234-4.005 8.313a.48.48 0 0 0-.003.419c.039.085 1.015 2.102 3.901 2.102" fill="#33313B"/><path d="M572.346 115.916s6.559 6.622 13.034 4.041c5.228-2.087 6.388-9.358 6.641-12.076.061-.652.069-1.04.069-1.04s.356-.201.847-.561c1.15-.842 3.049-2.549 2.842-4.553-.295-2.856-5.481-1.265-5.481-1.265s.786-3.45-.747-4.466c-1.508-.996-4.597.77-4.597.77s1.673-4.227-.618-5.248c-3.446-1.534-4.592 3.663-4.734 4.006.038-.378 1.677-16.309-1.059-15.492-2.388.713-4.589 14.03-5.145 17.652-.088.573-.135.903-.135.903s-.19-.006-.514.005c-1.535.043-6.052.45-6.878 3.594-1 3.802 6.475 13.73 6.475 13.73" fill="#F57A68"/><path d="M585.765 104.659c-.548 1.231-.834 2.574-.566 3.53.176.616.562 1.037 1.121 1.215.384.123.886.115 1.444.021 1.391-.232 3.124-.992 4.256-1.544.063-.653.069-1.04.069-1.04s.358-.2.849-.561a.523.523 0 0 0-.293.069c-1.756.964-4.937 2.37-6.001 2.03-.138-.045-.312-.143-.41-.483-.296-1.051.492-3.28 1.616-4.584a.532.532 0 0 0-.01-.715.534.534 0 0 0-.714-.069c-1.071.79-4.181 2.723-5.727 2.231-.225-.073-.256-.177-.268-.232-.072-.249.031-.633.232-1.079.41-.907 1.24-2.064 1.902-2.819a.533.533 0 0 0 .13-.297.54.54 0 0 0-.941-.412c-.295.337-1.32 1.551-1.937 2.801-.223.455-.394.916-.453 1.341-.04.269-.034.526.029.756.092.327.337.76.978.966 1.369.433 3.263-.338 4.694-1.125" fill="#F14558"/><path d="M577.542 100.133a.529.529 0 0 1 .385.463c.055.699.212 1.305.471 1.666.21.284.405.316.553.31.239-.01.542-.128.884-.324.851-.486 1.941-1.449 2.877-2.389a.527.527 0 0 1-.127.297c-.663.755-1.492 1.912-1.903 2.819-.107.07-.216.136-.322.197-.342.192-.673.34-.976.417a1.963 1.963 0 0 1-.386.058c-.589.024-1.096-.238-1.468-.757-.394-.545-.609-1.341-.68-2.215a.526.526 0 0 1 .675-.547l.017.005" fill="#F14558"/><path d="M569.841 106.156c.136.016 2.224.225 4.25-.113 1.122-.187 2.227-.544 2.967-1.197.611-.538.93-1.218.949-2.023.062-2.853-2.859-4.446-4.609-5.139-.088.573-.135.903-.135.903s-.19-.006-.514.005c1.472.55 4.234 1.895 4.182 4.207a1.615 1.615 0 0 1-.583 1.239c-1.43 1.262-5.101 1.186-6.394 1.051a.537.537 0 0 0-.113 1.067M581.381 116.423a.537.537 0 0 0 .101-1.034c-1.497-.565-2.506-1.509-3-2.807-1.268-3.325 1.106-7.937 1.129-7.983a.536.536 0 1 0-.952-.498c-.108.205-2.62 5.092-1.182 8.864.608 1.598 1.828 2.752 3.625 3.43l.279.028" fill="#F14558"/><path d="m501.574 108.186 11.211 9.735a643.83 643.83 0 0 0 5.394 4.983 626.516 626.516 0 0 0 5.398 4.927c1.808 1.618 3.602 3.237 5.401 4.819a257.322 257.322 0 0 0 5.389 4.61c1.774 1.488 3.554 2.928 5.22 4.166a47.007 47.007 0 0 0 2.281 1.6l.432.277.178.111.065.055.139.147.123.195c.071.062.241.106.554.086.624-.039 1.801-.441 3.144-1.222 1.346-.775 2.833-1.902 4.307-3.218a57.935 57.935 0 0 0 4.428-4.446c2.906-3.256 5.712-6.922 8.359-10.768 2.662-3.841 4.543-6.805 6.948-10.892 3.889 4.699 9.856 7.025 16.334 6.246-1.828 4.966-3.935 9.792-6.317 14.579-2.407 4.771-5.071 9.498-8.313 14.124-1.625 2.312-3.373 4.622-5.395 6.867-2.024 2.247-4.276 4.469-7.026 6.561-1.377 1.041-2.88 2.057-4.576 2.971a30.149 30.149 0 0 1-5.676 2.365c-2.1.621-4.422 1.037-6.853 1.082a24.92 24.92 0 0 1-7.259-.925 26.31 26.31 0 0 1-3.358-1.191l-.779-.352-.656-.319c-.226-.111-.413-.21-.616-.315-.197-.103-.411-.211-.591-.312a67.3 67.3 0 0 1-4.059-2.398c-2.467-1.572-4.687-3.131-6.861-4.704a240.74 240.74 0 0 1-6.291-4.783 263.38 263.38 0 0 1-6.043-4.863 463.87 463.87 0 0 1-5.886-4.942 684.48 684.48 0 0 1-5.764-5.028 538.49 538.49 0 0 1-5.661-5.118l-2.797-2.598-1.39-1.318a137.15 137.15 0 0 1-1.41-1.354l18.272-19.44" fill="#F7942C"/><path d="M512.271 154.173a.673.673 0 0 1-.387-.123c-7.401-5.18-20.562-16.094-20.693-16.205a.676.676 0 1 1 .864-1.04c.132.109 13.249 10.989 20.605 16.137a.678.678 0 0 1-.389 1.231" fill="#D1692A"/><path d="m496.962 142.367-.098-.008-5.214-.757a.676.676 0 0 1-.571-.767.672.672 0 0 1 .766-.571l5.214.757a.676.676 0 0 1-.097 1.346M583.239 128.01a.688.688 0 0 0-.465-1.284c-9.818 2.138-14.708-7.226-14.755-7.321a.689.689 0 0 0-.927-.301l-.006.002a.69.69 0 0 0-.295.924c.053.104 5.431 10.404 16.276 8.042l.172-.062" fill="#D1692A"/><path d="M578.192 128.191a.694.694 0 0 0 .316-.34l3.231-7.548a.69.69 0 0 0-1.266-.542l-3.232 7.548a.69.69 0 0 0 .951.882M572.403 120.935a1.194 1.194 0 1 0 2.117-1.1 1.194 1.194 0 0 0-2.117 1.1zM541.247 152.292a.692.692 0 0 0 .362-.499c.006-.043.729-4.343 2.01-6.856a.69.69 0 0 0-1.228-.625c-1.376 2.703-2.11 7.071-2.141 7.255a.688.688 0 0 0 .997.725" fill="#D1692A"/><path d="m545.719 150.743.125-.083a.691.691 0 0 0 .086-.971c-.02-.022-1.936-2.332-2.394-4.583a.688.688 0 1 0-1.349.275c.529 2.598 2.599 5.088 2.687 5.193a.69.69 0 0 0 .845.169" fill="#D1692A"/><path d="M314.129 446.799c0 5.266-70.15 9.534-156.682 9.534-86.532 0-156.682-4.268-156.682-9.534 0-5.266 70.15-9.536 156.682-9.536 86.532 0 156.682 4.27 156.682 9.536" fill="#C2C6DF"/><path d="m147.673 181.406 15.826 57.871-5.641-6.505c2.091 1.111 4.508 1.966 7.186 2.565 2.675.603 5.595.95 8.644 1.109 3.052.158 6.234.131 9.485-.004 3.253-.137 6.577-.38 9.951-.668l.017-.001a9.044 9.044 0 0 1 9.781 8.243c.405 4.746-2.962 8.952-7.588 9.701-3.479.554-7.018 1.08-10.649 1.5-3.63.418-7.351.734-11.206.822-3.852.082-7.845-.061-11.972-.659-4.118-.598-8.392-1.671-12.567-3.474a9.846 9.846 0 0 1-5.442-5.902l-.2-.601-18.987-56.91c-2.134-6.398 1.322-13.313 7.72-15.448 6.396-2.134 13.312 1.322 15.446 7.719.067.201.14.441.196.642" fill="#F57A68"/><path d="M153.767 391.198c-.235 0-.475-.039-.709-.125l-82.911-29.892a2.09 2.09 0 1 1 1.419-3.933l82.91 29.891a2.091 2.091 0 0 1-.709 4.059" fill="#D1692A"/><path d="M67.412 391.198a2.092 2.092 0 0 1-.712-4.058l83.895-30.383a2.09 2.09 0 0 1 2.678 1.253 2.09 2.09 0 0 1-1.254 2.678l-83.895 30.384a2.068 2.068 0 0 1-.712.126" fill="#D1692A"/><path d="M161.141 444.62a3.58 3.58 0 0 1-3.543-3.105L142.622 329.7H79.955L65.214 441.508a3.579 3.579 0 1 1-7.096-.936L73.27 325.653a3.578 3.578 0 0 1 3.548-3.111h68.936a3.579 3.579 0 0 1 3.547 3.103l15.391 114.92a3.577 3.577 0 0 1-3.551 4.055" fill="#F7942C"/><path d="M125.788 326.12H81.016c-14.184 0-29.373-7.762-31.551-21.779a265.88 265.88 0 0 1-2.82-53.549c.92-18.836 9.915-36.362 24.724-48.04 0 0 8.943 38.975-2.302 92.766 4.294 20.44 56.721 30.602 56.721 30.602" fill="#F7942C"/><path d="M116.458 97.534s-5.326-12.827-19.413-10.411C87.196 88.81 83 101.08 83.58 120.025c.845 27.573-8.483 44.19-8.483 44.19l12.38 2.814s31.512-47.269 28.98-69.495M229.368 396.706h-19.997s-4.628-22.196-6.18-34.642c-1.555-12.447-2.36-41.955-2.36-41.955s-15.937 5.176-49.296 3.225c-73.917-4.318-45.889-58.623-45.889-58.623 2.497 3.449 17.794 1.057 28.251 2.706 32.091 3.08 59.922 15.674 76.626 22.881 4.022 1.734 7.597 3.57 10.729 5.501 4.027 2.482 6.546 10.014 8.064 19.918 4.564 29.772.052 80.989.052 80.989" fill="#33313B"/><path d="M211.851 386.01a.715.715 0 0 1-.701-.574c-2.884-14.279-3.852-32.051-4.631-46.331-.646-11.841-1.255-23.026-2.776-24.369-1.232-1.089-6.347-.24-12.824.835-12.882 2.14-32.351 5.371-53.82.375-11.695-2.721-20.292-8.402-25.553-16.884-9.073-14.628-4.937-32.765-4.894-32.946a.716.716 0 0 1 1.393.329c-.041.176-4.039 17.756 4.724 31.873 5.054 8.141 13.349 13.603 24.653 16.234 21.193 4.931 40.492 1.728 53.263-.393 7.648-1.27 12.263-2.035 14.006-.496 1.882 1.664 2.411 9.841 3.257 25.364.777 14.233 1.742 31.949 4.605 46.127a.714.714 0 0 1-.559.842l-.143.014" fill="#4F5058"/><path d="M229.751 386.387h-.016l-22.238-.477a.717.717 0 0 1-.7-.731.708.708 0 0 1 .732-.7l22.237.477a.715.715 0 0 1-.015 1.431" fill="#4F5058"/><path d="M228.816 422.328h-14.114l-2.719-16.56-1.488-9.062h17.537l.278 9.062.506 16.56" fill="#F57A68"/><path d="M228.816 422.328h-14.114l-2.024-12.33-.695-4.23h16.327l.135 4.386.371 12.174" fill="#F7942C"/><path d="m228.445 410.154-15.767-.156-.695-4.23h16.327l.135 4.386" fill="#D1692A"/><path d="M263.649 444.62h-53.388c-.396-.721-.612-1.744-.701-2.965-.334-4.517 1.105-11.723 1.811-16.266.086-.531.16-1.026.216-1.474.099-.761.16-1.393.16-1.858 0-3.707 3.282-3.073 3.282-3.073 5.403 5.299 11.52-2.644 15.092-.039 0 0 .145.106.472.362.3.236.756.601 1.388 1.133.91.761 2.187 1.866 3.917 3.421 4.236 3.812 11.445 6.329 17.584 8.895.782.328 1.507.655 2.181.98.512.246.995.495 1.449.74 5.017 2.709 6.614 5.298 6.975 7.179.347 1.807-.438 2.965-.438 2.965" fill="#2F67BA"/><path d="M257.112 434.476c-1.375 1.095-4.433 3.284-6.885 3.284-.109 0-.217-.003-.324-.011-1.732-.145-8.094-3.273-13.27-6.117-2.967-1.631-5.676-3.235-7.624-4.521-3.197-2.108-3.749-2.911-3.876-3.47-.466-2.106 3.017-3.575 5.46-4.334.3.236.756.602 1.388 1.134-3.034.826-5.526 2.123-5.41 2.861.297.624 3.456 3.033 11.012 7.168 5.764 3.155 11.231 5.707 12.443 5.808 1.645.131 4.06-1.363 5.637-2.542.512.246.995.495 1.449.74M263.649 444.62h-53.387c-.397-.721-.612-1.745-.702-2.965h54.527c.347 1.805-.438 2.965-.438 2.965z" fill="#304DA8"/><path d="M215.71 444.62h-1.587c1.584-1.809 3.064-4.582 2.87-8.548-.258-5.275-3.422-8.83-5.622-10.683.087-.531.159-1.027.217-1.475 2.371 1.811 6.364 5.777 6.676 12.094.185 3.787-1.058 6.614-2.554 8.612" fill="#304DA8"/><path d="M234.992 427.009a.88.88 0 0 1-.211-1.734l3.334-.828a.88.88 0 1 1 .425 1.709l-3.335.826-.213.027M231.679 424.233a.879.879 0 0 1-.212-1.734l3.335-.828a.878.878 0 0 1 1.065.642.877.877 0 0 1-.641 1.065l-3.335.828-.212.027M238.327 428.948a.882.882 0 0 1-.212-1.735l3.335-.827a.88.88 0 1 1 .424 1.708l-3.334.827-.213.027M241.662 430.812a.88.88 0 0 1-.212-1.735l3.335-.828a.88.88 0 1 1 .424 1.708l-3.335.827-.212.028M245.298 432.535a.879.879 0 0 1-.211-1.733l3.335-.829a.88.88 0 1 1 .423 1.707l-3.334.829-.213.026M249.242 434.005a.88.88 0 0 1-.212-1.734l3.335-.828a.88.88 0 1 1 .424 1.707l-3.335.828-.212.027z" fill="#fff"/><path d="M68.63 247.497s-.634 4.311 5.145 5.524l60.228 2.007s4.07-2.045 3.336-7.088c0 0-25.43-14.283-68.71-.443" fill="#304DA8"/><path d="M134.829 267.417c-31.264 17.195-65.4 3.348-65.4 3.348 1.67-4.557 2.907-9.695 3.805-14.368a158.821 158.821 0 0 0 1.893-12.765c13.3-.729 45.896-2.116 58.668.914l.102 5.119.932 17.752" fill="#F57A68"/><path d="M111.736 259.168c-.232 1.612-.959 2.841-1.626 2.746-.666-.097-1.02-1.48-.789-3.093.232-1.612.96-2.841 1.626-2.745.668.096 1.02 1.479.789 3.092zM133.897 249.665c-13.312-.81-39.51-1.09-60.663 6.732a158.775 158.775 0 0 0 1.893-12.765c13.3-.729 45.896-2.116 58.668.914l.102 5.119z" fill="#F14558"/><path d="M148.75 224.929a8.594 8.594 0 0 1-.649 1.466c-1.673 3.106-4.266 5.797-6.436 7.712-.451.396-.885.761-1.286 1.087a40.098 40.098 0 0 1-1.95 1.49c-.43.308-.682.467-.682.467l-.009.093c-.024.232-.042.476-.063.734a90.069 90.069 0 0 0-.189 3.493 236.097 236.097 0 0 0-.101 3.522c-.016.94-.034 1.923-.045 2.947-17.668-7.893-54.053-2.912-68.709-.444.269-1.267.513-2.505.738-3.717 1.036-5.589 1.618-10.623 1.85-15.128.347-6.71-.24-16.794-1.664-27.211a164.6 164.6 0 0 0-.486-3.346c-.5-3.271-1.081-6.546-1.745-9.723-2.89-13.864-.86-28.416 13.195-30.137a211.252 211.252 0 0 1 16.592-1.35l.42-.016 27.173 7.892 2.584.75c1.485.477 2.858.94 4.128 1.391.542.197 1.068.388 1.573.577 1.318.494 2.513.978 3.597 1.456 2.175.961 3.9 1.899 5.263 2.869 5.96 4.231 5.036 9.013 4.884 18.456l-.002.128c-.002.119-.002.239-.006.365v.161a67.131 67.131 0 0 0 .123 4.803c.101 1.783.26 3.554.454 5.292a173.33 173.33 0 0 0 .489 3.998c1.089 8.267 2.436 15.51.959 19.923" fill="#2F67BA"/><path d="M146.731 190.387c-.003.119-.003.239-.006.365v.161c-.005.385-.005.77-.002 1.156l-5.709 3.583a.79.79 0 0 1-.561.111.797.797 0 0 1-.286-1.46l6.054-3.799a.803.803 0 0 1 .51-.117zM109.084 220.972a.8.8 0 0 1-.534-1.391l5.314-4.781a.796.796 0 1 1 1.065 1.185l-5.312 4.782a.791.791 0 0 1-.533.205M147.791 205.006l-3.639 3.275a.791.791 0 0 1-.535.205.8.8 0 0 1-.534-1.39l4.46-4.013c.08.645.162 1.288.248 1.923M98.31 201.745a.798.798 0 0 1 .837-1.231l6.956 1.64a.797.797 0 1 1-.365 1.552l-6.957-1.639a.8.8 0 0 1-.472-.322M73.487 215.393a.797.797 0 0 1-.533-1.389l5.312-4.782a.796.796 0 1 1 1.067 1.184l-5.312 4.781a.792.792 0 0 1-.534.206zM135.325 214.255a.795.795 0 0 1 1.486-.066l2.855 6.552a.797.797 0 1 1-1.462.637l-2.854-6.553a.788.788 0 0 1-.025-.57M148.75 224.929a7.568 7.568 0 0 1-.449 1.087 9.23 9.23 0 0 1-.2.38l-3.88-1.225a.782.782 0 0 1-.447-.356.795.795 0 0 1 .925-1.163l4.051 1.277M126.812 225.502a.797.797 0 0 1 .671 1.327l-4.804 5.294a.796.796 0 0 1-1.125.053.796.796 0 0 1-.055-1.125l4.804-5.293a.783.783 0 0 1 .509-.256zM123.985 213.295a.795.795 0 0 1-.288-1.459l6.053-3.8a.797.797 0 0 1 .847 1.35l-6.053 3.8a.788.788 0 0 1-.559.109zM127.841 190.278a.794.794 0 0 1-.68 1.323l-7.106-.775a.798.798 0 0 1-.707-.878.798.798 0 0 1 .88-.705l7.105.774a.79.79 0 0 1 .508.261M117.509 174.865a.797.797 0 0 1 1.477-.188l3.382 6.297a.797.797 0 0 1-1.403.754l-3.383-6.297a.795.795 0 0 1-.073-.566zM141.665 234.107c-.451.396-.885.761-1.286 1.087l-.935-2.38a.794.794 0 0 1 .449-1.034.795.795 0 0 1 1.033.449l.739 1.878M76.329 221.997a.797.797 0 0 1 .971-1.126l6.727 2.42a.797.797 0 0 1-.54 1.499l-6.726-2.42a.782.782 0 0 1-.432-.373zM79.624 231.089a.798.798 0 0 1 .522 1.394l-5.354 4.735a.798.798 0 0 1-1.057-1.194l5.355-4.736a.792.792 0 0 1 .534-.199zM89.323 238.61a.795.795 0 0 1-.758 1.279l-7.047-1.2a.795.795 0 0 1-.651-.92.796.796 0 0 1 .92-.651l7.045 1.201a.783.783 0 0 1 .491.291M95.216 171.692a.796.796 0 0 1 1.2-.878l6.008 3.874a.798.798 0 0 1-.864 1.34l-6.006-3.875a.797.797 0 0 1-.338-.461M136.198 176.259a.796.796 0 0 1 1.131.966l-2.391 6.738a.796.796 0 0 1-1.502-.534l2.391-6.737a.788.788 0 0 1 .371-.433zM132.989 167.478l-3.693 4.733a.794.794 0 0 1-1.117.139.795.795 0 0 1-.139-1.119l3.376-4.33c.542.197 1.068.389 1.573.577z" fill="#304DA8"/><path d="M96.89 232.856a.649.649 0 0 0 .49.431.628.628 0 0 0 .332-.019c.118-.039 11.679-3.783 23.845 1.258 6.181 2.56 11.678 3.54 16.119 3.452.019-.258.038-.503.062-.735l.009-.091s.252-.161.682-.468c-4.367.213-9.968-.71-16.373-3.361-12.628-5.23-24.266-1.453-24.753-1.288a.649.649 0 0 0-.413.821M124.702 164.761c-1.521 2.361-4.665 5.035-11.025 4.573-8.775-.637-14.549-9.008-16.566-12.45.274-.011.418-.014.418-.014l27.173 7.891" fill="#304DA8"/><path d="M115.37 180.293c.258.053.517.09.775.111 2.428.195 4.392-.509 5.841-2.091 4.219-4.611 2.487-15.12 2.411-15.565a.651.651 0 0 0-1.283.219c.018.103 1.704 10.328-2.089 14.468-1.18 1.289-2.741 1.836-4.775 1.672-8.505-.684-18.03-22.28-18.126-22.498a.65.65 0 1 0-1.19.521c.39.894 9.423 21.337 18.436 23.163z" fill="#fff"/><path d="M141.849 171.803c-.56 6.235.973 16.52 4.997 23.913a68.59 68.59 0 0 1-.121-4.803l-.001-.162c.005-.166.007-.328.01-.49.151-9.444 1.074-14.228-4.885-18.458M91.866 182.772c-3.118 12.028-14.515 21.68-22.31 18.669-.093-.677-.188-1.349-.287-2.027-.063-.44-.13-.879-.2-1.32a181.416 181.416 0 0 0-1.747-9.723c-2.889-13.863-.86-28.415 13.194-30.137 1.022-.124 2.028-.239 3.004-.343 7.038 2.999 11.936 11.03 8.346 24.881" fill="#F57A68"/><path d="m93.473 173.599 18.264 66.786-6.51-7.504c2.414 1.279 5.203 2.267 8.293 2.958 3.087.696 6.457 1.097 9.976 1.28 3.522.183 7.195.15 10.947-.006 3.754-.156 7.591-.437 11.484-.77l.021-.001c5.744-.49 10.798 3.769 11.287 9.514.468 5.476-3.42 10.33-8.757 11.195-4.016.641-8.1 1.246-12.29 1.731-4.19.484-8.485.847-12.933.948-4.445.096-9.053-.068-13.817-.76-4.752-.691-9.684-1.93-14.503-4.008a11.362 11.362 0 0 1-6.28-6.812l-.23-.694-21.914-65.68c-2.463-7.383 1.525-15.364 8.908-17.827 7.383-2.463 15.365 1.525 17.829 8.908.077.232.159.509.225.742" fill="#F57A68"/><path d="M101.646 238.248a.541.541 0 0 1-.269-1.011c.168-.096 4.165-2.353 8.343-2.674a.539.539 0 0 1 .581.497.543.543 0 0 1-.498.581c-3.931.303-7.85 2.514-7.889 2.536l-.268.071" fill="#F14558"/><path d="m108.282 235.836-.279-.078c-2.52-1.528-5.568-1.76-5.599-1.762a.54.54 0 1 1 .076-1.079c.136.01 3.343.252 6.083 1.917a.538.538 0 0 1-.281 1.002z" fill="#F14558"/><path d="M124.57 200.635c8.084 1.637 11.62-6.721 11.655-6.806a.65.65 0 0 0-1.204-.494c-.13.316-3.175 7.447-10.193 6.024-7.362-1.491-21.099-15.982-21.238-16.128a.65.65 0 0 0-.946.893c.574.609 14.162 14.938 21.926 16.511" fill="#304DA8"/><path d="M111.862 148.033s-12.97-2.442-16.628-15.532c-3.481-12.464-.802-18.929 2.82-25.662 2.727-5.07 11.379-11.923 23.511-9.464 12.25 2.482 21.404 8.768 22.758 18.839 2.532 18.847-12.673 41.838-32.461 31.819" fill="#33313B"/><path d="M95.852 134.519a.675.675 0 0 1-.589-.341c-.234-.412-5.694-10.226-1.162-23.142 2.83-8.066 8.408-11.676 12.588-13.286 4.517-1.738 8.323-1.574 8.484-1.566a.676.676 0 0 1-.065 1.35c-.037-.002-3.725-.154-7.984 1.497-5.667 2.198-9.618 6.387-11.747 12.453-4.32 12.311 1.007 21.929 1.062 22.024a.677.677 0 0 1-.587 1.011" fill="#F7942C"/><path d="M137.021 134.732s4.221-3.334 5.331 1.081c1.11 4.413-2.022 12.259-6.935 9.876l1.604-10.957z" fill="#F14558"/><path d="M132.9 142.842c-2.095.693-3.953 2.548-4.422 4.861a6.362 6.362 0 0 0 4.968 7.491 6.361 6.361 0 0 0 7.491-4.967 6.366 6.366 0 0 0-2.634-6.504 6.3 6.3 0 0 0-2.332-.987l-.063-.011c-.121.433-.071.781.176 1.05a5.374 5.374 0 0 1 3.886 6.256 5.375 5.375 0 0 1-6.329 4.196 5.377 5.377 0 0 1-4.196-6.328c.429-2.109 1.986-3.607 3.954-4.08l-.499-.977" fill="#F7942C"/><path d="m124.232 153.643-1.768 11.05s-8.272 8.444-23.383-6.704c4.056-3.023 5.604-10.024 5.129-14.552 0 0 1.193.717 3.028 2.379.358.324.818.576 1.269.884 3.994 2.718 10.113 6.252 15.725 6.943" fill="#F57A68"/><path d="m124.232 153.643-.838 5.239c-4.533-2.02-12.546-6.339-16.156-13.066.394.281.818.576 1.269.884 3.994 2.718 10.113 6.252 15.725 6.943" fill="#33313B"/><path d="M141.109 132.069c-.236 1.169-.459 2.28-.678 3.338a212.66 212.66 0 0 1-.692 3.25c-1.671 7.649-3.051 11.744-5.282 13.278-11.28 7.757-29.641-7.95-30.232-8.457l-.015-.015c-.015-.9-.015-1.793.003-2.67a69.024 69.024 0 0 1 3.416-20.308c1.002-6.747 6.238-12.157 12.982-13.176 6.989-1.051 12.245 2.993 15.534 4.783 4.964 2.706 6.908 10.224 4.964 19.977" fill="#F57A68"/><path d="M108.015 113.549s7.894-15.185 23.646-10.947c15.751 4.236 16.587 11.553 16.864 15.21.278 3.659-8.155-2.822-8.155-2.822s-.29 7.316-3.101 5.061c-3.448-2.763-7.307-8.729-7.307-8.729s-9.38 9.219-18.294 6.733c-5.063-1.412-3.653-4.506-3.653-4.506" fill="#33313B"/><path d="M127.364 146.962c-2.047 0-3.449-1.414-3.52-1.487a.563.563 0 0 1 .806-.785c.075.075 1.699 1.686 3.842.955a.562.562 0 1 1 .364 1.064 4.582 4.582 0 0 1-1.492.253" fill="#F14558"/><path d="M122.648 137.767s7.597 2.251 11.535 2.251c0 0-1.968 5.628-7.597 3.658-4.379-1.533-3.938-5.909-3.938-5.909z" fill="#fff"/><path d="M136.747 121.956s-1.973-.201-1.653 1.711c.32 1.911 4.599.743 6.715 4.573 0 0 2.042-4.015-5.062-6.284zM127.979 120.179s1.896.583.857 2.22c-1.038 1.635-4.525-1.106-7.965 1.599 0 0-.319-4.494 7.108-3.819" fill="#33313B"/><path d="M124.554 133.886c-.182.903-2.19 1.258-4.484.794-2.294-.465-4.005-1.574-3.821-2.476.183-.903 2.191-1.258 4.484-.793 2.293.464 4.003 1.573 3.821 2.475" fill="#F14558"/><path d="m146.972 134.481-6.135-1.046c-.032.261-.095.515-.153.77l-.043.125 6.177 1.053a.457.457 0 0 0 .528-.374.447.447 0 0 0-.374-.528M121.49 135.9l-.111-.026a6.797 6.797 0 0 1-4.425-3.272 6.79 6.79 0 0 1-.464-5.761l.023-.062a6.828 6.828 0 0 1 5.947-4.351 6.689 6.689 0 0 1 1.786.129 6.748 6.748 0 0 1 3.32 1.743 6.815 6.815 0 0 1 1.975 6.309c-.761 3.677-4.372 6.054-8.051 5.291zm9.106-6.659a7.746 7.746 0 0 0-2.123-5.326 7.655 7.655 0 0 0-3.964-2.236l-.075-.018c-3.592-.741-7.127 1.148-8.591 4.349-.128.277-.24.56-.331.857a7.706 7.706 0 0 0 2.003 7.927 7.644 7.644 0 0 0 3.789 2.003 7.726 7.726 0 0 0 6.722-1.816 7.685 7.685 0 0 0 2.41-4.188l.005-.02a7.784 7.784 0 0 0 .155-1.532" fill="#fff"/><path d="M147.414 134.301c-.03.148-.062.292-.105.433-.055.206-.12.405-.198.602a6.781 6.781 0 0 1-2.787 3.378 6.723 6.723 0 0 1-2.755.969 6.772 6.772 0 0 1-2.207-.088l-.204-.045-.123-.029a6.764 6.764 0 0 1-2.855-1.544 6.798 6.798 0 0 1-1.631-7.892 6.834 6.834 0 0 1 3.308-3.329 6.829 6.829 0 0 1 2.891-.648 6.719 6.719 0 0 1 1.373.144 6.603 6.603 0 0 1 1.446.473c.209.093.416.201.614.317 2.451 1.435 3.84 4.327 3.233 7.259zm-3.077-8.22a7.286 7.286 0 0 0-1.45-.581 7.704 7.704 0 0 0-2.954-.262 7.758 7.758 0 0 0-3.281 1.133 7.683 7.683 0 0 0-2.634 2.749c-.168.288-.313.59-.439.903l-.018.05a7.734 7.734 0 0 0 4.97 10.255c.141.042.286.081.429.111l.219.052c.745.153 1.49.196 2.213.131a4.85 4.85 0 0 0 .347-.035 7.71 7.71 0 0 0 2.595-.823 7.725 7.725 0 0 0 3.977-5.277c.713-3.446-1.004-6.842-3.974-8.406M106.071 127.401l-.155-.063a.458.458 0 0 1-.138-.633c3.071-4.801 10.456-.49 10.528-.445a.457.457 0 0 1-.466.786c-.067-.04-6.696-3.903-9.292.154a.458.458 0 0 1-.477.201" fill="#fff"/><path d="M133.917 130.289a.461.461 0 0 1-.291-.199c-.982-1.516-3.085-.837-3.104-.83a.46.46 0 0 1-.58-.288c-.079-.24.05-.5.29-.579.963-.321 3.071-.485 4.162 1.2a.455.455 0 0 1-.135.631.45.45 0 0 1-.342.065z" fill="#fff"/><path d="M139.739 138.656c-2.084-.504-3.588-1.537-3.417-2.387.13-.633 1.159-.996 2.551-.996.483 0 1.009.044 1.558.134-.236 1.149-.466 2.23-.692 3.249" fill="#F24F5B"/><path d="M126.167 129.352c-.251 1.24-1.017 2.131-1.711 1.991-.694-.141-1.053-1.259-.801-2.5.251-1.24 1.017-2.131 1.71-1.991.695.141 1.054 1.261.802 2.5zM138.434 131.838c-.251 1.24-1.017 2.13-1.712 1.99-.693-.14-1.052-1.26-.8-2.499.251-1.24 1.017-2.131 1.71-1.991.693.141 1.053 1.259.802 2.5zM132.101 135.166a4.497 4.497 0 0 0 1.052.1.515.515 0 0 0 .374-.188.516.516 0 0 0 .115-.402l-.792-5.79a.521.521 0 1 0-1.031.141l.705 5.155c-.517-.079-1.3-.293-1.998-.873a.52.52 0 1 0-.665.801 5.078 5.078 0 0 0 2.24 1.056M109.278 139.266c-.086.126-2.483 3.576-5.053 4.212l-.004.001-.01-.015a72.1 72.1 0 0 1 .001-2.672c.091.003 2.542.071 5.066-1.526" fill="#33313B"/><path d="M108.752 130.195s-3.608-7.664-8.301-3.167c-3.866 3.706-.485 16.09 6.219 13.439l2.082-10.272" fill="#F57A68"/><path d="M99.87 136.801c-2.094.694-3.953 2.548-4.421 4.861a6.363 6.363 0 0 0 4.966 7.492 6.364 6.364 0 0 0 7.493-4.968 6.364 6.364 0 0 0-4.968-7.492l-.061-.009c-.122.432-.071.781.175 1.05a5.376 5.376 0 0 1 3.887 6.256 5.375 5.375 0 0 1-6.329 4.195 5.376 5.376 0 0 1-4.196-6.329c.427-2.108 1.986-3.605 3.954-4.079l-.5-.977" fill="#F7942C"/><path d="m106.399 138.325.057.008a.52.52 0 0 0 .565-.471c.529-5.789-3.841-8.716-4.027-8.837a.52.52 0 0 0-.57.87c.165.109 4.031 2.721 3.56 7.873a.522.522 0 0 0 .415.557" fill="#33313B"/><path d="M102.265 134.268a.508.508 0 0 0 .344-.049c.517-.269 2.041-.88 2.875-.477a.52.52 0 0 0 .454-.937c-1.455-.703-3.574.368-3.811.493a.519.519 0 0 0 .138.97M113.407 117.199s-4.855 13.186-5.121 15.843c-.362 3.623-5.149-8.789-.33-19.395l5.451 3.552M194.553 396.775h-19.996s-4.628-22.196-6.18-34.643c-1.556-12.447-2.36-41.955-2.36-41.955s-15.937 5.176-49.296 3.226c-73.916-4.318-45.89-58.624-45.89-58.624 2.497 3.45 21.23 8.203 31.686 9.852 32.092 3.08 56.488 8.529 73.191 15.735 4.023 1.735 7.597 3.57 10.73 5.501 4.027 2.483 6.545 10.014 8.064 19.919 4.563 29.771.051 80.989.051 80.989z" fill="#33313B"/><path d="M177.037 386.08a.716.716 0 0 1-.701-.575c-2.884-14.278-3.853-32.051-4.632-46.331-.645-11.842-1.255-23.026-2.776-24.37-1.231-1.089-6.347-.239-12.824.836-12.882 2.139-32.351 5.371-53.819.374-11.695-2.72-20.292-8.4-25.553-16.884-9.074-14.627-4.938-32.764-4.894-32.944a.716.716 0 1 1 1.393.328c-.041.176-4.04 17.757 4.723 31.873 5.054 8.142 13.349 13.603 24.654 16.233 21.193 4.932 40.491 1.728 53.262-.393 7.648-1.269 12.264-2.035 14.006-.496 1.883 1.664 2.412 9.842 3.258 25.364.776 14.236 1.742 31.95 4.605 46.127a.715.715 0 0 1-.56.842l-.142.016" fill="#4F5058"/><path d="M194.936 386.456h-.015l-22.238-.478a.715.715 0 0 1-.701-.731.708.708 0 0 1 .731-.7l22.238.477a.717.717 0 0 1-.015 1.432" fill="#4F5058"/><path d="M194.002 422.396h-14.114l-2.719-16.559-1.488-9.062h17.537l.277 9.062.507 16.559z" fill="#F57A68"/><path d="M194.002 422.396h-14.114l-2.026-12.327-.693-4.232h16.326l.135 4.385.372 12.174" fill="#F7942C"/><path d="m193.63 410.222-15.768-.153-.693-4.232h16.326l.135 4.385z" fill="#D1692A"/><path d="M228.835 444.689h-53.388c-.396-.72-.612-1.745-.701-2.965-.335-4.516 1.105-11.723 1.811-16.267.085-.531.16-1.026.216-1.474.099-.76.16-1.392.16-1.858 0-3.706 3.282-3.072 3.282-3.072 5.403 5.299 11.519-2.645 15.091-.04 0 0 .146.107.473.362.3.236.755.602 1.387 1.134.91.76 2.187 1.866 3.918 3.42 4.236 3.813 11.444 6.331 17.582 8.897.782.327 1.509.653 2.183.978.512.247.993.495 1.449.742 5.017 2.708 6.613 5.296 6.975 7.178.346 1.806-.438 2.965-.438 2.965" fill="#2F67BA"/><path d="M222.298 434.546c-1.376 1.093-4.433 3.284-6.887 3.284-.108 0-.216-.002-.322-.013-1.732-.145-8.094-3.271-13.271-6.115-2.966-1.632-5.675-3.236-7.624-4.523-3.196-2.105-3.75-2.91-3.875-3.47-.467-2.104 3.016-3.574 5.46-4.334.3.236.755.602 1.387 1.134-3.034.827-5.525 2.123-5.409 2.862.297.624 3.456 3.033 11.012 7.169 5.763 3.154 11.231 5.705 12.443 5.807 1.643.132 4.06-1.364 5.637-2.543.512.247.993.495 1.449.742M228.834 444.689h-53.386c-.397-.721-.613-1.746-.702-2.966h54.527c.346 1.805-.439 2.966-.439 2.966z" fill="#304DA8"/><path d="M180.895 444.689h-1.586c1.582-1.808 3.063-4.583 2.87-8.549-.258-5.275-3.423-8.83-5.622-10.683.085-.531.159-1.027.216-1.475 2.37 1.812 6.365 5.778 6.677 12.095.184 3.789-1.058 6.613-2.555 8.612" fill="#304DA8"/><path d="M200.178 427.077a.879.879 0 0 1-.212-1.733l3.335-.827a.88.88 0 1 1 .424 1.707l-3.335.828-.212.025M196.863 424.302a.88.88 0 0 1-.21-1.735l3.335-.827a.879.879 0 1 1 .423 1.708l-3.335.827-.213.027M203.513 429.016a.879.879 0 0 1-.212-1.733l3.335-.828a.878.878 0 0 1 1.066.642.878.878 0 0 1-.642 1.065l-3.335.828-.212.026zM206.847 430.88a.88.88 0 0 1-.211-1.735l3.335-.826a.879.879 0 1 1 .424 1.707l-3.335.828-.213.026zM210.484 432.604a.88.88 0 0 1-.211-1.734l3.334-.828a.88.88 0 1 1 .424 1.707l-3.335.828-.212.027M214.427 434.073a.88.88 0 0 1-.211-1.733l3.335-.829a.879.879 0 1 1 .424 1.707l-3.335.829-.213.026" fill="#fff"/><path d="M268.219 263.983v4.432c0 2.552-1.541 4.619-3.444 4.619H25.207c-1.901 0-3.442-2.067-3.442-4.619v-4.432c0-2.549 1.541-4.616 3.442-4.616h239.568c1.903 0 3.444 2.067 3.444 4.616z" fill="#12AD6D"/><path d="M268.219 265.388v2.029H21.765v-2.029h246.454zM261.02 284.428H35.827a1.824 1.824 0 0 1-1.824-1.825v-9.622h228.843v9.622a1.825 1.825 0 0 1-1.826 1.825zM250.906 348.793H49.52v-7.849h201.386v7.849z" fill="#1A825A"/><path d="m34.998 446.087 38.989-161.659H60.295l-38.99 161.659h13.693zM265.159 446.087l-38.99-161.659h13.693l38.99 161.659h-13.693z" fill="#12AD6D"/><path d="m48.53 254.073-4.229.647-4.883-31.874 4.228-.647 4.883 31.874z" fill="#F7942C"/><path d="m43.646 222.201-4.227.646.93-3.229.482-1.671.96 1.451 1.855 2.803z" fill="#F57A68"/><path d="m48.53 254.073-4.229.647-.355-2.315 4.228-.648.355 2.316" fill="#33313B"/><path d="m48.53 255.962-3.665.56a.283.283 0 0 1-.325-.237l-.24-1.565 4.229-.647.24 1.564a.285.285 0 0 1-.239.325z" fill="#F03B53"/><path d="m41.792 219.398-1.443.22.482-1.671.96 1.451z" fill="#33313B"/><path d="m43.692 250.745 4.228-.648.254 1.66-4.227.648-.255-1.66zM40.71 224.257l3.616 23.604a.325.325 0 0 0 .372.272.326.326 0 0 0 .274-.372l-3.616-23.604a.327.327 0 0 0-.646.1M42.364 224.001l3.616 23.604a.327.327 0 1 0 .646-.099l-3.616-23.603a.328.328 0 0 0-.373-.274.328.328 0 0 0-.273.372z" fill="#D1692A"/><path d="m51.396 254.591-4.278.014-.105-32.244 4.277-.015.106 32.245z" fill="#12AD6D"/><path d="m51.29 222.348-4.277.013 1.399-3.055.725-1.582.734 1.576 1.42 3.048" fill="#F57A68"/><path d="m51.396 254.591-4.278.014-.007-2.343 4.277-.014.008 2.343" fill="#33313B"/><path d="m51.117 256.46-3.708.012a.285.285 0 0 1-.285-.284l-.006-1.582 4.278-.015.004 1.583a.284.284 0 0 1-.283.286z" fill="#F03B53"/><path d="m49.871 219.3-1.459.006.725-1.582.734 1.576z" fill="#33313B"/><path d="m47.105 250.582 4.278-.014.005 1.68-4.277.014-.005-1.68zM48.081 223.945l.078 23.879a.326.326 0 1 0 .654-.002l-.078-23.879a.328.328 0 0 0-.654.002M49.755 223.939l.078 23.878a.326.326 0 1 0 .653-.001l-.078-23.879a.327.327 0 1 0-.654.002" fill="#1A825A"/><path d="m54.134 254.726-4.234-.602 4.535-31.925 4.235.602-4.536 31.925" fill="#2F67BA"/><path d="m58.67 222.801-4.235-.602 1.823-2.822.945-1.46.501 1.666.966 3.218z" fill="#F57A68"/><path d="m54.134 254.726-4.234-.602.33-2.319 4.234.601-.33 2.32z" fill="#33313B"/><path d="m53.59 256.534-3.671-.521a.286.286 0 0 1-.242-.323l.223-1.566 4.235.602-.223 1.566a.284.284 0 0 1-.322.242" fill="#F03B53"/><path d="m57.704 219.583-1.446-.206.945-1.46.501 1.666z" fill="#33313B"/><path d="m50.466 250.141 4.234.602-.236 1.663-4.234-.601.236-1.664zM55.264 223.923l-3.359 23.64a.327.327 0 1 0 .647.092l3.36-23.642a.326.326 0 1 0-.647-.09M56.92 224.155l-3.358 23.642a.328.328 0 0 0 .277.37c.18.025.345-.1.37-.278l3.359-23.642a.327.327 0 0 0-.647-.092z" fill="#304DA8"/><path d="m60.058 235.102-.223 1.729-.203 1.57-.308 2.386-.2 1.553-.31 2.406-.199 1.533-.313 2.425-.194 1.511-.317 2.444-.192 1.494-.317 2.465-.192 1.475-.164 1.274H40.117l-.164-1.274-.192-1.475-.317-2.465-.192-1.494-.316-2.444-.196-1.511-.312-2.425-.2-1.533-.31-2.406-.199-1.553-.309-2.386-.203-1.57-.222-1.729h23.073z" fill="#F03B53"/><path d="m59.835 236.831-.203 1.57H37.41l-.202-1.57h22.627zM59.324 240.787l-.2 1.552H37.92l-.2-1.552h21.605zM58.814 244.746l-.199 1.533H38.428l-.2-1.533h20.586M58.303 248.703l-.195 1.512H38.936l-.195-1.512h19.562zM57.791 252.659l-.192 1.494H39.444l-.192-1.494h18.54zM57.282 256.618l-.192 1.475H39.953l-.192-1.475h17.52z" fill="#C8232E"/><path d="m266.824 173.636-14.334 60.617-.378 1.594-.964 4.082a3.91 3.91 0 0 1-3.81 3.017H150.78c-2.527 0-4.394-2.359-3.812-4.818l15.675-66.293a3.91 3.91 0 0 1 3.809-3.013h96.56c2.527 0 4.394 2.356 3.812 4.814z" fill="#33313B"/><path d="m252.489 234.253-.377 1.594H151.853v-1.594h100.636z" fill="#4F5058"/><path d="M189.693 183.822c-.801 4.297-4.934 7.78-9.231 7.78s-7.13-3.483-6.328-7.78c.801-4.297 4.935-7.78 9.231-7.78 4.297 0 7.129 3.483 6.328 7.78z" fill="#F7942C"/><path d="M180.906 182.334c-.161.859-.593 1.556-.966 1.556-.375 0-.548-.697-.387-1.556.16-.859.593-1.556.966-1.556.375 0 .548.697.387 1.556zM184.965 182.334c-.161.859-.594 1.556-.967 1.556-.374 0-.546-.697-.386-1.556.16-.859.593-1.556.967-1.556.373 0 .546.697.386 1.556z" fill="#33313B"/><path d="M181.274 187.61c-3.346 0-3.487-3.345-3.488-3.378-.006-.182.144-.362.334-.402.189-.039.348.075.354.258.004.121.135 2.846 2.927 2.846 2.794 0 3.941-2.73 3.988-2.846.075-.183.277-.297.451-.257.175.04.258.219.183.401-.014.033-1.403 3.378-4.749 3.378z" fill="#33313B"/><path d="M234.329 220.143c.086 4.024 6.903 9.063 6.903 9.063s7.918-5.039 8.88-9.063c1.044-4.362-3.938-5.701-7.629-2.411-2.97-3.29-8.246-1.951-8.154 2.411z" fill="#F03B53"/><path d="M219.905 208.475c-.46 4.172-4.215 7.555-8.387 7.555-4.173 0-7.183-3.383-6.723-7.555.46-4.172 4.215-7.555 8.388-7.555s7.183 3.383 6.722 7.555M170.28 168.821l-16.69 74.124h-2.811a3.916 3.916 0 0 1-3.811-4.816l15.674-66.294a3.916 3.916 0 0 1 3.81-3.014h3.828" fill="#4F5058"/><path d="m198.248 242.945-2.929 16.472h9.674l2.929-16.472h-9.674z" fill="#fff"/><path d="m180.84 256.583 1.98-2.785a3.771 3.771 0 0 1 3.072-1.584h26.526c1.403 0 2.69.78 3.341 2.023l1.334 2.554a1.794 1.794 0 0 1-1.589 2.626h-33.203c-1.457 0-2.307-1.646-1.461-2.834" fill="#fff"/><path d="M125.573 259.41h79.682l.865-3.008a2.957 2.957 0 0 0-2.844-3.775h-73.525a2.955 2.955 0 0 0-2.842 2.14l-1.336 4.643" fill="#fff"/><path d="m230.052 149.033-35.243-.025a2.475 2.475 0 0 1-2.473-2.476l.015-21.655a2.475 2.475 0 0 1 2.477-2.473l35.242.025a2.474 2.474 0 0 1 2.474 2.476l-.016 21.655a2.475 2.475 0 0 1-2.476 2.473z" fill="#F03B53"/><path d="m227.953 145.036-3.216 12.136-5.616-11.407 8.832-.729z" fill="#F03B53"/><path d="M221.34 133.753c-.718 4.548-9.205 10.238-9.205 10.238s-8.17-5.702-8.634-10.251c-.503-4.931 5.335-6.44 8.996-2.72 3.868-3.714 9.623-2.198 8.843 2.733z" fill="#fff"/><path d="M729.873 447.24c0 3.275-26.868 5.93-60.011 5.93-33.144 0-60.011-2.655-60.011-5.93s26.867-5.93 60.011-5.93c33.143 0 60.011 2.655 60.011 5.93z" fill="#C2C6DF"/><path d="M706.602 404.367h-75.76a2.607 2.607 0 0 1-2.607-2.608v-1.197a2.607 2.607 0 0 1 2.607-2.608h75.76a2.608 2.608 0 0 1 2.609 2.608v1.197a2.608 2.608 0 0 1-2.609 2.608z" fill="#33313B"/><path d="M631.793 326.885h74.021c1.23 0 2.227.997 2.227 2.228v9.094a2.227 2.227 0 0 1-2.227 2.228h-74.021a2.229 2.229 0 0 1-2.229-2.228v-9.094c0-1.231.999-2.228 2.229-2.228" fill="#4F5058"/><path d="M649.271 269.234s-31.212-6.169-39.921-27.945c-8.711-21.776 23.135-38.107 39.921-26.414 17.958 12.51 0 54.359 0 54.359z" fill="#12AD6D"/><path d="M667.83 326.443a.563.563 0 0 1-.557-.483c-2.991-20.224-15.043-49.326-24.626-70.175-10.392-22.611-20.202-40.655-20.299-40.834a.564.564 0 1 1 .992-.54c.097.179 9.924 18.258 20.333 40.902 9.614 20.917 21.708 50.124 24.716 70.482a.563.563 0 0 1-.475.641l-.084.007" fill="#33313B"/><path d="M648.1 267.128a.567.567 0 0 1-.499-.298c-13.576-25.286-35.621-43.63-35.841-43.812a.565.565 0 0 1 .718-.872c.223.183 22.436 18.663 36.119 44.15a.565.565 0 0 1-.231.765l-.266.067" fill="#33313B"/><path d="M648.716 268.938a.56.56 0 0 1-.43-.199c-9.901-11.654-20.04-18.899-26.803-22.924-7.329-4.364-12.383-5.989-12.433-6.007a.564.564 0 1 1 .342-1.076c.207.067 5.198 1.67 12.631 6.09 6.847 4.071 17.109 11.398 27.123 23.187a.564.564 0 0 1-.43.929M645.969 262.31a.563.563 0 0 1-.534-.383c-7.61-22.334-4.811-49.478-4.782-49.749a.565.565 0 1 1 1.123.12c-.028.269-2.8 27.172 4.727 49.265a.563.563 0 0 1-.351.716l-.183.031" fill="#33313B"/><path d="M647.884 266.731a.565.565 0 0 1-.557-.474c-2.328-14.137-.539-25.67 1.372-32.855 2.076-7.804 4.669-12.197 4.78-12.38a.564.564 0 0 1 .969.579c-.026.044-2.636 4.473-4.669 12.138-1.876 7.069-3.63 18.416-1.338 32.334.051.31-.157.6-.464.65l-.093.008" fill="#33313B"/><path d="M682.196 274.924s31.521-4.312 41.506-25.534c9.983-21.222-20.841-39.41-38.289-28.731-18.667 11.425-3.217 54.265-3.217 54.265" fill="#12AD6D"/><path d="M670.238 324.592h-.006a.565.565 0 0 1-.558-.571c.124-10.417 2.396-22.281 6.753-35.267 3.478-10.37 8.289-21.478 14.296-33.014 10.225-19.634 20.522-33.901 20.625-34.043a.566.566 0 0 1 .914.664c-.101.141-10.358 14.352-20.544 33.916-9.388 18.028-20.637 44.418-20.915 67.758a.564.564 0 0 1-.565.557" fill="#33313B"/><path d="M683.523 272.89a.564.564 0 0 1-.48-.861c15.167-24.632 38.435-41.763 38.668-41.933a.564.564 0 1 1 .666.911c-.232.17-23.324 17.177-38.373 41.614a.561.561 0 0 1-.481.269" fill="#33313B"/><path d="M682.801 274.661a.565.565 0 0 1-.408-.955c10.694-11.174 21.372-17.881 28.447-21.54 7.682-3.972 12.759-5.278 12.97-5.332a.566.566 0 0 1 .278 1.096c-.052.013-5.192 1.338-12.768 5.26-6.989 3.618-17.538 10.249-28.111 21.297a.562.562 0 0 1-.408.174M685.934 268.206l-.213-.041a.566.566 0 0 1-.309-.737c8.822-21.608 7.647-48.627 7.635-48.898a.566.566 0 0 1 1.128-.054c.012.273 1.201 27.536-7.717 49.38a.567.567 0 0 1-.524.35z" fill="#33313B"/><path d="m683.762 272.507-.124-.014a.565.565 0 0 1-.427-.676c3.112-13.757 2.032-25.189.579-32.357-1.576-7.773-3.919-12.347-3.943-12.393a.565.565 0 0 1 1.002-.521c.099.189 2.429 4.729 4.038 12.641 1.483 7.286 2.586 18.905-.574 32.879a.566.566 0 0 1-.551.441" fill="#33313B"/><path d="M670.059 233.859s-26.71-17.288-26.737-40.742c-.027-23.453 35.603-26.83 46.865-9.754 12.05 18.271-20.128 50.496-20.128 50.496z" fill="#12AD6D"/><path d="m666.326 293.913-.131-.015a.564.564 0 0 1-.42-.68c4.711-19.894 4.292-51.389 3.11-74.306-1.282-24.851-3.71-45.244-3.734-45.448a.564.564 0 1 1 1.12-.134c.024.203 2.458 20.634 3.742 45.523 1.186 22.991 1.603 54.601-3.139 74.624a.565.565 0 0 1-.548.436" fill="#33313B"/><path d="M669.958 231.508a.565.565 0 0 1-.56-.501c-3.248-28.515-16.933-53.719-17.07-53.97a.564.564 0 1 1 .989-.544c.139.254 13.93 25.644 17.204 54.385a.566.566 0 0 1-.498.626l-.065.004" fill="#33313B"/><path d="M669.862 233.418a.566.566 0 0 1-.536-.385c-4.881-14.491-11.617-24.975-16.408-31.218-5.193-6.768-9.285-10.15-9.326-10.184a.564.564 0 0 1 .717-.874c.168.139 4.211 3.477 9.479 10.335 4.852 6.316 11.672 16.923 16.608 31.581a.563.563 0 0 1-.355.716l-.179.029zM669.766 226.243h-.03a.565.565 0 0 1-.535-.593c1.201-23.564 13.852-47.742 13.98-47.983a.565.565 0 0 1 .999.528c-.127.239-12.663 24.203-13.851 47.512a.565.565 0 0 1-.563.536z" fill="#33313B"/><path d="m669.907 231.059-.122-.012a.568.568 0 0 1-.431-.674c3.073-13.993 9.024-24.123 13.476-30.155 4.833-6.551 8.885-9.742 9.056-9.874a.565.565 0 0 1 .695.89c-.041.032-4.124 3.252-8.869 9.692-4.377 5.94-10.23 15.911-13.254 29.689a.566.566 0 0 1-.551.444" fill="#33313B"/><path d="m702.69 290.877-.932 2.469-.587 1.567-1.69 4.482-.59 1.566-1.734 4.605-.589 1.564-7.44 19.755h-40.647l-7.44-19.755-.589-1.564-1.735-4.605-.591-1.566-1.688-4.482-.588-1.567-.932-2.469a2.588 2.588 0 0 1 2.423-3.502h62.927c1.806 0 3.058 1.808 2.422 3.502" fill="#2F67BA"/><path d="m701.758 293.346-.587 1.567h-64.733l-.588-1.567h65.908M699.481 299.396l-.59 1.565h-60.174l-.591-1.565h61.355zM697.157 305.566l-.589 1.564h-55.527l-.589-1.564h56.705z" fill="#304DA8"/><path d="m657.915 340.436-2.254 7.266-31.379 101.144h-6.132l19.9-99.077 1.874-9.333h17.991M719.641 448.846h-6.133L681.202 344.71l-1.326-4.274h17.988l.454 2.265h.003l21.32 106.145z" fill="#33313B"/><path d="M706.602 390.422h-75.76a2.607 2.607 0 0 1-2.607-2.608v-1.198a2.607 2.607 0 0 1 2.608-2.608h75.759a2.608 2.608 0 0 1 2.609 2.608v1.198a2.608 2.608 0 0 1-2.609 2.608" fill="#4F5058"/><path d="M241.907 51.554c0 15.998-13.133 28.968-29.333 28.968-16.199 0-29.332-12.97-29.332-28.968s13.133-28.968 29.332-28.968c16.2 0 29.333 12.97 29.333 28.968z" fill="#C2C6DF"/><path d="M241.907 47.783c0 15.999-13.133 28.968-29.333 28.968-16.199 0-29.332-12.97-29.332-28.968 0-16 13.133-28.969 29.332-28.969 16.2 0 29.333 12.97 29.333 28.969z" fill="#2F67BA"/><path d="M212.574 71.332c-13.149 0-23.846-10.564-23.846-23.55 0-12.985 10.697-23.55 23.846-23.55 13.149 0 23.846 10.565 23.846 23.55 0 12.986-10.697 23.55-23.846 23.55z" fill="#fff"/><path d="M236.42 47.784c0 .626-.025 1.247-.073 1.86-.964-12.12-11.259-21.69-23.772-21.69-12.516 0-22.809 9.57-23.773 21.69a23.851 23.851 0 0 1-.073-1.86c0-12.988 10.695-23.55 23.846-23.55 13.147 0 23.845 10.562 23.845 23.55" fill="#C2C6DF"/><path d="M212.575 50.233a.595.595 0 0 1-.479-.238L200.398 34.44a.584.584 0 0 1 .123-.824.602.602 0 0 1 .835.122l11.414 15.176 12.972-5.623a.6.6 0 0 1 .787.303.587.587 0 0 1-.308.777l-13.407 5.811-.239.05" fill="#33313B"/></svg>