<svg width="377" height="377" viewBox="0 0 377 377" fill="none" xmlns="http://www.w3.org/2000/svg">
<circle cx="188.58" cy="188.58" r="158.58" fill="url(#paint0_radial)"/>
<path d="M188.688 365.421C91.1425 365.421 11.7837 286.063 11.7837 188.516C11.7837 90.9694 91.1425 11.6094 188.688 11.6094C286.237 11.6094 365.59 90.9694 365.59 188.516C365.59 286.063 286.237 365.421 188.688 365.421V365.421ZM188.688 29.9348C101.109 29.9348 30.1092 100.935 30.1092 188.516C30.1092 276.099 101.109 347.099 188.688 347.099C276.273 347.099 347.27 276.099 347.27 188.516C347.27 100.935 276.273 29.9348 188.688 29.9348" fill="url(#paint1_linear)"/>
<path d="M188.688 376.416C85.0838 376.416 0.791504 292.127 0.791504 188.517C0.791504 84.9093 85.0838 0.617298 188.688 0.617298C292.3 0.617298 376.59 84.9093 376.59 188.517C376.59 292.127 292.3 376.416 188.688 376.416V376.416ZM188.688 11.6094C91.1424 11.6094 11.7836 90.9694 11.7836 188.516C11.7836 286.063 91.1424 365.421 188.688 365.421C286.237 365.421 365.59 286.063 365.59 188.516C365.59 90.9694 286.237 11.6094 188.688 11.6094Z" fill="url(#paint2_linear)"/>
<path d="M116.909 251.617C116.909 296.293 156.548 297.59 157.042 297.592L219.061 297.401C233.35 297.401 260.372 288.72 260.372 255.868L260.494 210.028L260.617 210.104V156.69C260.617 150.121 255.11 144.781 248.342 144.781C241.576 144.781 236.065 150.121 236.065 156.69L236.097 207.525L232.962 207.297C232.693 207.297 225.608 207.369 219.857 213.038C214.772 218.046 212.19 225.913 212.19 236.414V237.854H206.564V236.414C206.564 224.316 209.721 215.096 215.948 208.988C221.072 203.953 227.242 202.392 230.637 201.901L230.693 107.492C229.505 101.976 224.521 98.0331 218.632 98.0331C211.832 98.0331 206.297 103.373 206.297 109.938V183.758H201.074V91.3465C201.074 84.7811 195.537 79.4371 188.74 79.4371C181.94 79.4371 176.405 84.7811 176.405 91.3465V183.758H170.99V102.14C170.99 95.5731 165.456 90.2345 158.654 90.2345C151.85 90.2345 146.316 95.5731 146.316 102.14V183.758H141.436V128.354C141.436 121.792 135.901 116.444 129.094 116.444C122.292 116.444 116.76 121.792 116.76 128.354L116.909 251.617" fill="white"/>
<defs>
<radialGradient id="paint0_radial" cx="0" cy="0" r="1" gradientUnits="userSpaceOnUse" gradientTransform="translate(188.58 188.58) rotate(90) scale(158.58)">
<stop stop-color="#ED1D29"/>
<stop offset="0.385417" stop-color="#ED1D29" stop-opacity="0.697917"/>
<stop offset="1" stop-color="#E31E25"/>
</radialGradient>
<linearGradient id="paint1_linear" x1="188.688" y1="365.421" x2="188.688" y2="11.6094" gradientUnits="userSpaceOnUse">
<stop stop-color="#4F4C4D"/>
<stop offset="0.187879" stop-color="#BDBCBC"/>
<stop offset="0.363636" stop-color="#F4F4F4"/>
<stop offset="0.690909" stop-color="#7B7979"/>
<stop offset="1" stop-color="#393536"/>
</linearGradient>
<linearGradient id="paint2_linear" x1="0.791504" y1="188.516" x2="376.591" y2="188.516" gradientUnits="userSpaceOnUse">
<stop stop-color="#4F4C4D"/>
<stop offset="0.187879" stop-color="#BDBCBC"/>
<stop offset="0.460606" stop-color="white"/>
<stop offset="0.690909" stop-color="#7B7979"/>
<stop offset="1" stop-color="#393536"/>
</linearGradient>
</defs>
</svg>
