<svg width="1840" height="1210" viewBox="0 0 1840 1210" fill="none"
  xmlns="http://www.w3.org/2000/svg">
  <path d="M493.482 662.541C493.482 667.85 489.176 672.156 483.864 672.156C478.552 672.156 474.246 667.85 474.246 662.541C474.246 657.226 478.552 652.923 483.864 652.923C489.176 652.923 493.482 657.226 493.482 662.541Z" fill="#6C757D"/>
  <path d="M1462.53 834.146C1462.53 839.458 1458.23 843.764 1452.91 843.764C1447.6 843.764 1443.3 839.458 1443.3 834.146C1443.3 828.836 1447.6 824.528 1452.91 824.528C1458.23 824.528 1462.53 828.836 1462.53 834.146Z" fill="#6C757D"/>
  <path d="M1488.47 593.659C1488.47 598.973 1484.16 603.279 1478.85 603.279C1473.54 603.279 1469.23 598.973 1469.23 593.659C1469.23 588.349 1473.54 584.041 1478.85 584.041C1484.16 584.041 1488.47 588.349 1488.47 593.659Z" fill="#6C757D"/>
  <path d="M1525.9 516.644C1525.9 521.956 1521.59 526.262 1516.28 526.262C1510.97 526.262 1506.66 521.956 1506.66 516.644C1506.66 511.332 1510.97 507.026 1516.28 507.026C1521.59 507.026 1525.9 511.332 1525.9 516.644Z" fill="#196ABC"/>
  <path d="M374.078 412.022H372.798C372.791 416.627 369.066 420.352 364.46 420.36C359.855 420.352 356.133 416.627 356.123 412.022C356.133 407.417 359.855 403.692 364.46 403.684C369.066 403.692 372.791 407.417 372.798 412.022H374.078H375.358C375.358 406.003 370.482 401.124 364.46 401.124C358.442 401.124 353.565 406.003 353.562 412.022C353.565 418.041 358.442 422.92 364.46 422.92C370.482 422.92 375.358 418.041 375.358 412.022H374.078Z" fill="#6C757D"/>
  <path d="M1340.98 856.85H1339.7C1339.69 861.456 1335.97 865.18 1331.36 865.188C1326.76 865.18 1323.03 861.456 1323.02 856.85C1323.03 852.245 1326.76 848.52 1331.36 848.512C1335.97 848.52 1339.69 852.245 1339.7 856.85H1340.98H1342.26C1342.26 850.832 1337.38 845.952 1331.36 845.952C1325.34 845.952 1320.46 850.832 1320.46 856.85C1320.46 862.869 1325.34 867.748 1331.36 867.748C1337.38 867.748 1342.26 862.869 1342.26 856.85H1340.98Z" fill="#6C757D"/>
  <path d="M1350.6 571.018H1349.32C1349.32 575.624 1345.59 579.348 1340.98 579.356C1336.38 579.348 1332.66 575.624 1332.65 571.018C1332.66 566.415 1336.38 562.688 1340.98 562.68C1345.59 562.688 1349.32 566.415 1349.32 571.018H1350.6H1351.88C1351.88 564.999 1347.01 560.123 1340.98 560.12C1334.97 560.123 1330.09 564.999 1330.09 571.018C1330.09 577.039 1334.97 581.916 1340.98 581.916C1347.01 581.916 1351.88 577.039 1351.88 571.018H1350.6Z" fill="#6C757D"/>
  <path d="M710.624 298.071H709.344C709.336 302.676 705.609 306.401 701.003 306.409C696.401 306.401 692.676 302.676 692.665 298.071C692.676 293.468 696.401 289.741 701.003 289.733C705.609 289.741 709.336 293.468 709.344 298.071H710.624H711.904C711.904 292.052 707.025 287.173 701.003 287.173C694.985 287.173 690.108 292.052 690.105 298.071C690.108 304.092 694.985 308.969 701.003 308.969C707.025 308.969 711.904 304.092 711.904 298.071H710.624Z" fill="#6C757D"/>
  <path d="M465.901 311.441C465.901 316.753 461.598 321.059 456.283 321.059C450.971 321.059 446.668 316.753 446.668 311.441C446.668 306.129 450.971 301.823 456.283 301.823C461.598 301.823 465.901 306.129 465.901 311.441Z" fill="#6C757D"/>
  <path d="M406.985 746.511C408.267 753.284 402.436 759.116 395.662 757.831C391.896 757.117 388.819 754.04 388.105 750.276C386.82 743.5 392.649 737.668 399.425 738.953C403.188 739.665 406.268 742.745 406.985 746.511Z" fill="#196ABC"/>
  <path d="M1342.61 697.39C1342.61 702.702 1338.3 707.008 1332.99 707.008C1327.68 707.008 1323.37 702.702 1323.37 697.39C1323.37 692.078 1327.68 687.772 1332.99 687.772C1338.3 687.772 1342.61 692.078 1342.61 697.39Z" fill="#6C757D"/>
  <path d="M1124.34 932.528C1124.34 937.843 1120.04 942.148 1114.72 942.148C1109.41 942.148 1105.11 937.843 1105.11 932.528C1105.11 927.219 1109.41 922.913 1114.72 922.913C1120.04 922.913 1124.34 927.219 1124.34 932.528Z" fill="#6C757D"/>
  <path d="M300.758 321.378L414.34 355.672L326.222 233.007L300.758 321.378Z" fill="#FFC107"/>
  <path d="M300.758 321.378L414.34 355.672L345.269 298.85L300.758 321.378Z" fill="#DC3545"/>
  <path d="M345.269 298.851L326.222 233.008L300.758 321.379L345.269 298.851Z" fill="#FD7E14"/>
  <path d="M1401.91 707.133L1358.46 795.115L1470.53 739.945L1401.91 707.133Z" fill="#FFC107"/>
  <path d="M1401.91 707.133L1358.46 795.115L1414.22 746.511L1401.91 707.133Z" fill="#DC3545"/>
  <path d="M1414.22 746.51L1470.53 739.943L1401.91 707.132L1414.22 746.51Z" fill="#FD7E14"/>
  <path d="M1340.92 997.332L1272.21 900.611L1266.63 1051.54L1340.92 997.332Z" fill="#FFC107"/>
  <path d="M1340.92 997.334L1272.21 900.612L1291.94 987.847L1340.92 997.334Z" fill="#DC3545"/>
  <path d="M1291.94 987.845L1266.63 1051.54L1340.92 997.332L1291.94 987.845Z" fill="#FD7E14"/>
  <path d="M311.308 525.816L383.574 463.701L262.453 470.413L311.308 525.816Z" fill="#198754"/>
  <path d="M311.309 525.816L383.575 463.701L315.269 485.944L311.309 525.816Z" fill="#0DCAF0"/>
  <path d="M315.269 485.944L262.453 470.413L311.308 525.816L315.269 485.944Z" fill="#20C997"/>
  <path d="M493.918 200.239L508.953 294.34L566.704 187.662L493.918 200.239Z" fill="#198754"/>
  <path d="M493.918 200.239L508.953 294.34L525.8 224.508L493.918 200.239Z" fill="#0DCAF0"/>
  <path d="M525.8 224.508L566.704 187.662L493.918 200.239L525.8 224.508Z" fill="#20C997"/>
  <path d="M1461.28 900.804L1367.7 882.823L1448.27 973.516L1461.28 900.804Z" fill="#198754"/>
  <path d="M1461.28 900.804L1367.7 882.822L1427.59 922.492L1461.28 900.804Z" fill="#0DCAF0"/>
  <path d="M1427.59 922.492L1448.27 973.516L1461.29 900.804L1427.59 922.492Z" fill="#20C997"/>
  <path d="M615.537 285.57L602.501 280.079L590.585 287.705L591.78 273.607L580.844 264.632L594.619 261.414L599.775 248.237L607.094 260.344L621.218 261.176L611.968 271.879L615.537 285.57Z" fill="#6C757D"/>
  <path d="M1204.39 963.685L1191.36 958.193L1179.44 965.822L1180.64 951.724L1169.7 942.749L1183.48 939.529L1188.63 926.355L1195.95 938.461L1210.08 939.293L1200.82 949.996L1204.39 963.685Z" fill="#6C757D"/>
  <path d="M476.461 503.199L462.358 504.325L455.293 516.58L449.865 503.516L436.023 500.58L446.773 491.382L445.286 477.312L457.356 484.69L470.276 478.93L466.992 492.69L476.461 503.199" fill="#6C757D"/>
  <path d="M1425.52 664.34L1411.42 665.466L1404.35 677.721L1398.92 664.657L1385.08 661.721L1395.83 652.52L1394.34 638.453L1406.41 645.831L1419.33 640.071L1416.05 653.831L1425.52 664.34" fill="#6C757D"/>
  <path d="M1114.73 293.379C1120.21 287.57 1126.02 282.069 1132.16 276.954L1232.69 232.761C1240.54 231.701 1248.53 231.097 1256.65 230.981L1114.73 293.379Z" fill="#0052CC"/>
  <path d="M1087.94 328.93C1090.4 324.765 1093.01 320.697 1095.76 316.734L1286.67 232.802C1291.49 233.462 1296.27 234.269 1300.98 235.264L1087.94 328.93Z" fill="#0052CC"/>
  <path d="M1117.61 339.658L1099.81 338.724L1322.09 240.998C1325.78 242.219 1329.41 243.543 1332.99 244.966L1117.61 339.658Z" fill="#0052CC"/>
  <path d="M1165.92 342.199L1148.12 341.262L1349.83 252.584C1352.85 254.122 1355.82 255.735 1358.75 257.422L1165.92 342.199Z" fill="#0052CC"/>
  <path d="M1214.22 344.736L1196.42 343.802L1372.76 266.275C1375.31 268.036 1377.82 269.856 1380.27 271.73L1214.22 344.736" fill="#0052CC"/>
  <path d="M1254.9 350.621C1250.69 349.438 1246.34 348.422 1241.88 347.587L1392.14 281.529C1394.31 283.467 1396.42 285.459 1398.51 287.489L1254.9 350.621" fill="#0052CC"/>
  <path d="M1283.04 362.027C1280.05 360.374 1276.93 358.82 1273.7 357.378L1408.6 298.068C1410.45 300.157 1412.27 302.274 1414.03 304.44L1283.04 362.027Z" fill="#0052CC"/>
  <path d="M1303.62 376.754C1301.48 374.762 1299.2 372.837 1296.8 370.994L1422.54 315.718C1424.09 317.938 1425.61 320.191 1427.08 322.477L1303.62 376.754Z" fill="#0052CC"/>
  <path d="M1317.9 394.252C1316.53 391.943 1315.02 389.685 1313.36 387.488L1434.2 334.363C1435.48 336.708 1436.71 339.092 1437.9 341.493L1317.9 394.252Z" fill="#0052CC"/>
  <path d="M1325.57 414.652C1325.1 411.982 1324.44 409.351 1323.59 406.762L1443.61 354.001C1444.63 356.469 1445.63 358.947 1446.55 361.466L1325.57 414.652" fill="#0052CC"/>
  <path d="M1325.38 438.512L1326.2 429.429C1326.2 429.419 1326.2 429.403 1326.2 429.393L1450.81 374.612C1451.56 377.205 1452.27 379.811 1452.91 382.443L1325.38 438.512" fill="#0052CC"/>
  <path d="M1323.16 463.264L1323.98 454.145L1455.76 396.204C1456.23 398.926 1456.64 401.665 1456.99 404.422L1323.16 463.264Z" fill="#0052CC"/>
  <path d="M1320.93 488.02L1321.75 478.898L1458.36 418.838C1458.52 421.7 1458.59 424.585 1458.63 427.481L1320.93 488.02Z" fill="#0052CC"/>
  <path d="M1318.7 512.773L1319.52 503.655L1458.26 442.66C1458.07 445.707 1457.83 448.74 1457.5 451.751L1318.7 512.773Z" fill="#0052CC"/>
  <path d="M1316.48 537.523L1317.3 528.405L1321.42 526.592L1331.32 530.995L1316.48 537.523ZM1340.83 526.818L1330.93 522.414L1455.08 467.83C1454.46 471.086 1453.75 474.317 1452.97 477.517L1340.83 526.818" fill="#0052CC"/>
  <path d="M1314.25 562.277L1315.07 553.159L1347.89 538.73C1350.59 540.353 1353.03 542.215 1355.21 544.27L1314.25 562.277ZM1362.75 540.958C1360.77 538.841 1358.58 536.869 1356.2 535.077L1447.91 494.76C1446.69 498.298 1445.39 501.795 1443.99 505.241L1362.75 540.958" fill="#0052CC"/>
  <path d="M1312.02 587.031L1312.84 577.912L1330.1 570.322C1330.09 570.555 1330.08 570.788 1330.08 571.021C1330.08 573.671 1331.03 576.097 1332.6 577.987L1312.02 587.031ZM1335.07 576.899C1333.57 575.391 1332.65 573.315 1332.64 571.021C1332.64 570.363 1332.72 569.723 1332.87 569.109L1345.06 563.751C1347.49 565.12 1349.17 567.678 1349.31 570.64L1335.07 576.899ZM1351.78 569.552C1351.4 566.725 1349.93 564.242 1347.82 562.535L1363.74 555.536C1364.98 557.916 1366 560.405 1366.78 562.957L1351.78 569.552V569.552ZM1373.85 559.849C1373.03 557.312 1372 554.834 1370.78 552.44L1435.11 524.16C1432.95 528.179 1430.63 532.099 1428.21 535.949L1373.85 559.849" fill="#0052CC"/>
  <path d="M1332.6 577.986C1331.03 576.097 1330.09 573.67 1330.09 571.021C1330.09 570.788 1330.09 570.555 1330.11 570.322L1332.87 569.108C1332.73 569.723 1332.65 570.363 1332.65 571.021C1332.65 573.314 1333.58 575.39 1335.08 576.898L1332.6 577.986ZM1349.32 570.639C1349.18 567.677 1347.5 565.12 1345.06 563.75L1347.82 562.534C1349.94 564.242 1351.41 566.725 1351.79 569.551L1349.32 570.639Z" fill="#5E6C84"/>
  <path d="M1309.8 611.789L1310.62 602.668L1368.7 577.134C1368.61 580.27 1368.18 583.396 1367.41 586.458L1309.8 611.789ZM1375.94 582.707C1376.25 580.437 1376.4 578.153 1376.4 575.877C1376.4 575.173 1376.38 574.472 1376.35 573.768L1412.14 558.034C1407.8 563.208 1403.19 568.149 1398.35 572.854L1375.94 582.707" fill="#0052CC"/>
  <path d="M538.891 697.389C539.216 697.046 539.543 696.703 539.869 696.359L539.994 696.905L538.891 697.389Z" fill="#0052CC"/>
  <path d="M512.105 732.943C514.566 728.776 517.174 724.71 519.924 720.745L543.117 710.548L544.94 718.507L512.105 732.943Z" fill="#0052CC"/>
  <path d="M497.562 763.107C498.947 759.477 500.445 755.906 502.035 752.384L548.064 732.147L549.884 740.103L497.562 763.107" fill="#0052CC"/>
  <path d="M489.332 790.504C490.074 787.189 490.896 783.909 491.797 780.661L553.007 753.75L554.83 761.706L489.332 790.504" fill="#0052CC"/>
  <path d="M485.34 816.029C485.616 812.934 485.977 809.862 486.395 806.808L557.952 775.348L559.772 783.305L485.34 816.029" fill="#0052CC"/>
  <path d="M484.635 840.115C484.577 838.116 484.484 836.124 484.484 834.109C484.484 833.198 484.541 832.302 484.551 831.393L562.895 796.951L564.717 804.908L484.635 840.115Z" fill="#0052CC"/>
  <path d="M486.602 863.027C486.202 860.278 485.834 857.518 485.547 854.733L567.843 818.552L567.941 818.972C568.509 821.461 569.241 823.908 570.127 826.307L486.602 863.027" fill="#0052CC"/>
  <path d="M491.033 884.852C490.344 882.233 489.732 879.583 489.148 876.921L576.257 838.623C577.704 840.904 579.301 843.126 581.032 845.284L491.033 884.852Z" fill="#0052CC"/>
  <path d="M497.78 905.658C496.817 903.165 495.914 900.643 495.051 898.101L591.179 855.838C593.414 857.802 595.771 859.683 598.252 861.488L497.78 905.658Z" fill="#0052CC"/>
  <path d="M506.712 925.508C505.481 923.132 504.288 920.739 503.156 918.312L612.481 870.248C615.586 871.86 618.815 873.368 622.145 874.756L506.712 925.508" fill="#0052CC"/>
  <path d="M517.815 944.402C516.317 942.152 514.843 939.884 513.438 937.57L641.604 881.221C646.01 882.343 650.531 883.28 655.156 884.02L517.815 944.402Z" fill="#0052CC"/>
  <path d="M531.24 962.275C529.455 960.158 527.732 957.995 526.035 955.804L684.699 886.049H704.621L531.24 962.275Z" fill="#0052CC"/>
  <path d="M547.135 979.061C545.038 977.087 542.982 975.075 540.973 973.011L738.776 886.048H758.698L547.135 979.061" fill="#0052CC"/>
  <path d="M565.779 994.639C563.324 992.834 560.918 990.968 558.555 989.055L792.854 886.048H812.773L565.779 994.639Z" fill="#0052CC"/>
  <path d="M587.811 1008.73C584.91 1007.13 582.061 1005.47 579.25 1003.73L846.931 886.049H866.853L587.811 1008.73Z" fill="#0052CC"/>
  <path d="M614.294 1020.86C610.792 1019.56 607.349 1018.14 603.941 1016.65L872.068 898.769C870.855 902.307 869.554 905.804 868.149 909.252L614.294 1020.86Z" fill="#0052CC"/>
  <path d="M647.622 1029.98C643.111 1029.15 638.636 1028.23 634.238 1027.1L859.272 928.168C857.114 932.189 854.8 936.109 852.381 939.957L647.622 1029.98Z" fill="#0052CC"/>
  <path d="M683.674 1033.3C680.682 1033.3 677.709 1033.2 674.75 1033.07L836.309 962.042C831.965 967.218 827.359 972.157 822.518 976.865L694.923 1032.96C691.195 1033.17 687.45 1033.3 683.674 1033.3Z" fill="#0052CC"/>
  <path d="M395.887 556.996V585.045C395.887 586.459 397.031 587.605 398.447 587.605C399.86 587.605 401.007 586.459 401.007 585.045V556.996C401.007 555.582 399.86 554.436 398.447 554.436C397.031 554.436 395.887 555.582 395.887 556.996Z" fill="#0DCAF0"/>
  <path d="M395.887 600.547V628.594C395.887 630.01 397.031 631.154 398.447 631.154C399.86 631.154 401.007 630.01 401.007 628.594V600.547C401.007 599.131 399.86 597.987 398.447 597.987C397.031 597.987 395.887 599.131 395.887 600.547Z" fill="#0DCAF0"/>
  <path d="M390.937 584.422L365.547 572.5C364.267 571.901 362.744 572.451 362.142 573.728C361.541 575.008 362.091 576.534 363.371 577.136L388.761 589.055C390.041 589.657 391.567 589.106 392.166 587.826C392.767 586.546 392.217 585.023 390.937 584.422" fill="#0DCAF0"/>
  <path d="M388.001 593.911L363.74 607.989C362.517 608.698 362.102 610.265 362.811 611.488C363.52 612.712 365.087 613.127 366.311 612.417L390.569 598.34C391.793 597.631 392.21 596.064 391.498 594.841C390.789 593.619 389.223 593.202 388.001 593.911Z" fill="#0DCAF0"/>
  <path d="M408.25 589.055L433.64 577.136C434.92 576.534 435.471 575.008 434.869 573.728C434.267 572.451 432.744 571.901 431.464 572.5L406.074 584.422C404.794 585.023 404.244 586.546 404.845 587.826C405.444 589.106 406.97 589.657 408.25 589.055" fill="#0DCAF0"/>
  <path d="M406.441 598.34L430.699 612.417C431.923 613.127 433.49 612.712 434.199 611.488C434.908 610.265 434.493 608.698 433.269 607.989L409.008 593.911C407.787 593.202 406.221 593.619 405.511 594.841C404.8 596.064 405.217 597.631 406.441 598.34Z" fill="#0DCAF0"/>
  <path d="M728.293 258.565L729.854 255.055C720.264 250.79 710.163 248.742 700.191 248.742C676.586 248.739 653.666 260.211 639.704 280.786L489.782 501.708C481.281 514.235 477.172 528.537 477.172 542.686C477.169 564.618 487.036 586.263 505.629 600.599L905.45 908.853C918.603 918.994 934.347 924.055 950.06 924.055C966.344 924.057 982.631 918.62 996.012 907.796L1357.46 615.416C1370.25 605.089 1376.41 590.374 1376.39 575.874C1376.39 566.356 1373.77 556.892 1368.67 548.687C1363.56 540.48 1355.96 533.542 1346.12 529.17L729.854 255.055L728.293 258.565L726.734 262.072L1342.99 536.187C1351.42 539.94 1357.81 545.789 1362.14 552.745C1366.47 559.698 1368.71 567.769 1368.71 575.874C1368.7 588.244 1363.55 600.604 1352.63 609.446L991.184 901.824C979.201 911.516 964.645 916.372 950.06 916.375C935.988 916.372 921.921 911.851 910.14 902.771L510.319 594.516C493.671 581.68 484.857 562.334 484.854 542.686C484.854 530.014 488.52 517.25 496.139 506.02L646.058 285.099C658.553 266.683 679.059 256.425 700.191 256.422C709.113 256.422 718.14 258.25 726.734 262.072L728.293 258.565" fill="#196ABC"/>
  <path d="M1177.73 886.049H680.855C624.653 886.049 576.786 857.612 567.939 818.972L472.96 404.083C461.34 353.315 520.853 308.305 594.483 312.176L1220.68 345.077C1283.08 348.357 1330.11 385.948 1326.2 429.429L1291.84 811.417C1288.07 853.368 1238.1 886.049 1177.73 886.049Z" fill="#0DCAF0"/>
  <path d="M680.86 856.851V853.011C663.598 853.017 647.77 848.688 635.756 841.543C629.747 837.974 624.694 833.712 620.851 828.976C617.004 824.237 614.364 819.045 613.097 813.521L518.121 398.629C517.55 396.146 517.274 393.694 517.274 391.277C517.276 385.993 518.592 380.858 521.229 375.904C523.868 370.956 527.852 366.199 533.197 361.837C546.135 351.251 565.358 344.964 585.659 344.98C587.471 344.98 589.287 345.026 591.127 345.123L1217.33 378.024C1235.53 378.974 1251.57 384.831 1262.87 393.363C1268.52 397.626 1272.99 402.544 1276.01 407.804C1279.04 413.073 1280.64 418.667 1280.65 424.457C1280.65 425.387 1280.6 426.321 1280.52 427.263L1246.17 809.246C1245.63 815.154 1243.48 820.776 1239.9 825.978C1234.54 833.776 1225.93 840.572 1215.16 845.38C1204.39 850.193 1191.5 853.014 1177.73 853.011H680.86V856.851V860.691H1177.73C1197.49 860.684 1215.65 855.336 1229.37 846.373C1236.23 841.888 1241.98 836.484 1246.22 830.335C1250.46 824.191 1253.16 817.279 1253.82 809.934L1288.17 427.949C1288.27 426.782 1288.33 425.617 1288.33 424.457C1288.33 417.223 1286.29 410.265 1282.67 403.975C1277.23 394.533 1268.29 386.546 1257.1 380.694C1245.91 374.847 1232.43 371.13 1217.73 370.354L591.529 337.453C589.555 337.348 587.605 337.3 585.659 337.3C563.802 337.315 543.009 343.945 528.343 355.885C522.327 360.793 517.642 366.312 514.453 372.29C511.263 378.262 509.591 384.698 509.594 391.277C509.594 394.285 509.939 397.319 510.636 400.345L605.612 815.233C607.163 822.017 610.394 828.284 614.889 833.819C621.64 842.121 631.212 848.81 642.532 853.454C653.857 858.096 666.957 860.689 680.86 860.691V856.851" fill="#FEF2F6"/>
  <path d="M653.91 598.021H1202.74V444.181H653.91V598.021Z" fill="#0DCAF0"/>
  <path d="M704.94 476.12C704.06 483.652 701.272 489.472 696.577 493.58C691.915 497.655 685.704 499.693 677.944 499.693C669.532 499.693 662.783 496.677 657.697 490.645C652.643 484.614 650.117 476.544 650.117 466.437V459.59C650.117 452.971 651.29 447.152 653.638 442.131C656.018 437.11 659.376 433.262 663.713 430.589C668.049 427.883 673.07 426.53 678.776 426.53C686.34 426.53 692.404 428.649 696.969 432.887C701.533 437.093 704.19 442.929 704.94 450.396H695.501C694.686 444.723 692.909 440.615 690.171 438.071C687.465 435.528 683.666 434.257 678.776 434.257C672.776 434.257 668.065 436.474 664.642 440.908C661.251 445.342 659.556 451.651 659.556 459.835V466.73C659.556 474.457 661.169 480.603 664.397 485.168C667.625 489.732 672.141 492.015 677.944 492.015C683.161 492.015 687.155 490.841 689.926 488.493C692.73 486.113 694.589 481.989 695.501 476.12H704.94ZM772.577 465.41C772.577 472.387 771.404 478.484 769.056 483.701C766.709 488.885 763.383 492.846 759.079 495.585C754.775 498.324 749.754 499.693 744.016 499.693C738.408 499.693 733.436 498.324 729.1 495.585C724.764 492.814 721.389 488.885 718.976 483.799C716.596 478.68 715.374 472.762 715.308 466.046V460.911C715.308 454.064 716.498 448.016 718.879 442.766C721.259 437.517 724.617 433.507 728.953 430.736C733.322 427.932 738.31 426.53 743.918 426.53C749.624 426.53 754.645 427.915 758.981 430.687C763.35 433.425 766.709 437.419 769.056 442.669C771.404 447.885 772.577 453.966 772.577 460.911V465.41ZM763.236 460.813C763.236 452.368 761.541 445.896 758.15 441.397C754.759 436.865 750.015 434.599 743.918 434.599C737.984 434.599 733.306 436.865 729.882 441.397C726.492 445.896 724.747 452.156 724.649 460.177V465.41C724.649 473.593 726.361 480.033 729.785 484.728C733.241 489.39 737.984 491.721 744.016 491.721C750.081 491.721 754.775 489.521 758.101 485.119C761.427 480.685 763.138 474.343 763.236 466.095V460.813ZM798.791 427.508L822.07 485.608L845.349 427.508H857.527V498.715H848.137V470.985L849.017 441.055L825.64 498.715H818.451L795.123 441.201L796.052 470.985V498.715H786.662V427.508H798.791ZM884.181 498.715H874.791V427.508H884.181V498.715ZM956.121 498.715H946.683L910.835 443.842V498.715H901.396V427.508H910.835L946.78 482.625V427.508H956.121V498.715ZM1025.37 489.374C1022.96 492.83 1019.59 495.422 1015.25 497.15C1010.95 498.845 1005.92 499.693 1000.19 499.693C994.382 499.693 989.231 498.34 984.731 495.634C980.232 492.895 976.743 489.015 974.266 483.994C971.82 478.973 970.565 473.153 970.5 466.535V460.324C970.5 449.597 972.994 441.283 977.982 435.382C983.003 429.48 990.046 426.53 999.11 426.53C1006.54 426.53 1012.53 428.437 1017.06 432.252C1021.59 436.034 1024.36 441.413 1025.37 448.391H1015.98C1014.22 438.968 1008.61 434.257 999.159 434.257C992.866 434.257 988.09 436.474 984.829 440.908C981.601 445.31 979.971 451.7 979.939 460.079V465.899C979.939 473.887 981.764 480.245 985.416 484.972C989.068 489.667 994.007 492.015 1000.23 492.015C1003.76 492.015 1006.84 491.623 1009.48 490.841C1012.12 490.058 1014.3 488.738 1016.03 486.88V470.887H999.55V463.258H1025.37V489.374Z" fill="#0BAFC3"/>
  <path d="M763.559 789.059H1093.08V652.258H763.559V789.059Z" fill="#0DCAF0"/>
  <path d="M781.014 671.831C773.853 669.772 768.634 667.25 765.358 664.264C762.111 661.248 760.487 657.537 760.487 653.13C760.487 648.144 762.473 644.027 766.445 640.78C770.446 637.504 775.636 635.866 782.014 635.866C786.363 635.866 790.234 636.706 793.626 638.388C797.047 640.069 799.685 642.389 801.541 645.346C803.425 648.303 804.367 651.536 804.367 655.044H795.974C795.974 651.217 794.756 648.216 792.321 646.042C789.886 643.838 786.45 642.737 782.014 642.737C777.897 642.737 774.679 643.65 772.36 645.476C770.069 647.274 768.924 649.782 768.924 653C768.924 655.58 770.011 657.769 772.186 659.567C774.389 661.335 778.115 662.959 783.362 664.438C788.639 665.916 792.756 667.554 795.713 669.352C798.699 671.12 800.903 673.193 802.323 675.571C803.773 677.948 804.498 680.746 804.498 683.964C804.498 689.096 802.497 693.212 798.496 696.315C794.495 699.388 789.146 700.924 782.449 700.924C778.1 700.924 774.041 700.098 770.272 698.446C766.503 696.764 763.59 694.474 761.531 691.574C759.502 688.675 758.487 685.385 758.487 681.702H766.88C766.88 685.529 768.286 688.559 771.099 690.792C773.94 692.995 777.723 694.097 782.449 694.097C786.856 694.097 790.234 693.198 792.582 691.4C794.93 689.603 796.105 687.153 796.105 684.051C796.105 680.949 795.017 678.557 792.843 676.875C790.668 675.165 786.726 673.483 781.014 671.831ZM863.947 670.439C863.947 676.643 862.903 682.065 860.816 686.704C858.728 691.313 855.771 694.836 851.944 697.271C848.117 699.707 843.652 700.924 838.549 700.924C833.563 700.924 829.141 699.707 825.285 697.271C821.429 694.807 818.429 691.313 816.283 686.791C814.167 682.239 813.08 676.977 813.022 671.004V666.438C813.022 660.35 814.08 654.972 816.196 650.304C818.313 645.636 821.299 642.07 825.155 639.606C829.04 637.112 833.476 635.866 838.462 635.866C843.536 635.866 848.001 637.098 851.857 639.562C855.742 641.997 858.728 645.549 860.816 650.217C862.903 654.856 863.947 660.263 863.947 666.438V670.439ZM855.64 666.351C855.64 658.842 854.133 653.087 851.118 649.086C848.102 645.056 843.884 643.041 838.462 643.041C833.186 643.041 829.025 645.056 825.981 649.086C822.966 653.087 821.415 658.654 821.328 665.786V670.439C821.328 677.716 822.85 683.442 825.894 687.617C828.967 691.763 833.186 693.836 838.549 693.836C843.942 693.836 848.117 691.879 851.074 687.965C854.031 684.022 855.553 678.383 855.64 671.048V666.351ZM925.179 670.439C925.179 676.643 924.135 682.065 922.048 686.704C919.96 691.313 917.003 694.836 913.176 697.271C909.349 699.707 904.884 700.924 899.781 700.924C894.795 700.924 890.373 699.707 886.517 697.271C882.661 694.807 879.661 691.313 877.515 686.791C875.399 682.239 874.312 676.977 874.254 671.004V666.438C874.254 660.35 875.312 654.972 877.428 650.304C879.545 645.636 882.531 642.07 886.387 639.606C890.272 637.112 894.708 635.866 899.694 635.866C904.768 635.866 909.233 637.098 913.089 639.562C916.974 641.997 919.96 645.549 922.048 650.217C924.135 654.856 925.179 660.263 925.179 666.438V670.439ZM916.872 666.351C916.872 658.842 915.365 653.087 912.35 649.086C909.334 645.056 905.116 643.041 899.694 643.041C894.418 643.041 890.257 645.056 887.213 649.086C884.198 653.087 882.647 658.654 882.56 665.786V670.439C882.56 677.716 884.082 683.442 887.126 687.617C890.199 691.763 894.418 693.836 899.781 693.836C905.174 693.836 909.349 691.879 912.306 687.965C915.263 684.022 916.785 678.383 916.872 671.048V666.351ZM986.367 700.055H977.974L946.097 651.26V700.055H937.703V636.735H946.097L978.061 685.747V636.735H986.367V700.055Z" fill="#0BAFC3"/>
  <path d="M697.261 471.003C696.38 478.535 693.593 484.354 688.898 488.463C684.235 492.538 678.024 494.576 670.265 494.576C661.853 494.576 655.104 491.56 650.017 485.528C644.964 479.496 642.437 471.427 642.437 461.32V454.473C642.437 447.854 643.611 442.034 645.958 437.013C648.338 431.992 651.697 428.145 656.033 425.472C660.369 422.765 665.39 421.412 671.096 421.412C678.66 421.412 684.724 423.532 689.289 427.77C693.853 431.976 696.511 437.812 697.261 445.279H687.822C687.007 439.605 685.23 435.497 682.491 432.954C679.785 430.411 675.987 429.14 671.096 429.14C665.097 429.14 660.385 431.357 656.962 435.791C653.571 440.225 651.876 446.534 651.876 454.717V461.613C651.876 469.34 653.49 475.486 656.718 480.051C659.945 484.615 664.461 486.898 670.265 486.898C675.481 486.898 679.475 485.724 682.246 483.376C685.05 480.996 686.909 476.872 687.822 471.003H697.261ZM764.898 460.293C764.898 467.27 763.724 473.367 761.376 478.584C759.029 483.768 755.703 487.729 751.4 490.468C747.096 493.206 742.075 494.576 736.336 494.576C730.729 494.576 725.756 493.206 721.42 490.468C717.084 487.696 713.709 483.768 711.297 478.681C708.917 473.563 707.694 467.645 707.629 460.928V455.793C707.629 448.946 708.819 442.898 711.199 437.649C713.579 432.4 716.937 428.39 721.273 425.618C725.642 422.814 730.631 421.412 736.239 421.412C741.944 421.412 746.965 422.798 751.302 425.569C755.671 428.308 759.029 432.302 761.376 437.551C763.724 442.768 764.898 448.849 764.898 455.793V460.293ZM755.557 455.696C755.557 447.251 753.861 440.779 750.47 436.28C747.08 431.748 742.336 429.482 736.239 429.482C730.305 429.482 725.626 431.748 722.203 436.28C718.812 440.779 717.068 447.039 716.97 455.06V460.293C716.97 468.476 718.681 474.916 722.105 479.611C725.561 484.273 730.305 486.604 736.336 486.604C742.401 486.604 747.096 484.403 750.421 480.002C753.747 475.568 755.459 469.226 755.557 460.977V455.696ZM791.111 422.391L814.39 480.491L837.67 422.391H849.847V493.598H840.457V465.868L841.338 435.937L817.961 493.598H810.771L787.443 436.084L788.372 465.868V493.598H778.983V422.391H791.111ZM876.501 493.598H867.111V422.391H876.501V493.598ZM948.442 493.598H939.003L903.155 438.725V493.598H893.716V422.391H903.155L939.101 477.508V422.391H948.442V493.598ZM1017.69 484.257C1015.28 487.713 1011.91 490.305 1007.57 492.033C1003.27 493.728 998.244 494.576 992.506 494.576C986.703 494.576 981.551 493.223 977.052 490.517C972.552 487.778 969.064 483.898 966.586 478.877C964.141 473.856 962.885 468.036 962.82 461.418V455.206C962.82 444.48 965.314 436.166 970.303 430.264C975.324 424.363 982.366 421.412 991.43 421.412C998.864 421.412 1004.85 423.32 1009.38 427.134C1013.91 430.916 1016.68 436.296 1017.69 443.273H1008.3C1006.54 433.851 1000.93 429.14 991.479 429.14C985.186 429.14 980.41 431.357 977.15 435.791C973.922 440.192 972.292 446.583 972.259 454.962V460.782C972.259 468.77 974.085 475.127 977.736 479.855C981.388 484.55 986.328 486.898 992.555 486.898C996.076 486.898 999.157 486.506 1001.8 485.724C1004.44 484.941 1006.62 483.621 1008.35 481.762V465.77H991.87V458.141H1017.69V484.257Z" fill="#ffffff"/>
  <path d="M773.338 666.709C766.177 664.651 760.958 662.129 757.682 659.142C754.435 656.127 752.812 652.416 752.812 648.009C752.812 643.023 754.798 638.906 758.77 635.659C762.77 632.382 767.96 630.744 774.338 630.744C778.687 630.744 782.558 631.585 785.95 633.267C789.371 634.948 792.009 637.268 793.865 640.225C795.749 643.182 796.692 646.415 796.692 649.923H788.298C788.298 646.096 787.081 643.095 784.645 640.921C782.21 638.717 778.774 637.616 774.338 637.616C770.222 637.616 767.003 638.529 764.684 640.355C762.394 642.153 761.248 644.661 761.248 647.879C761.248 650.459 762.336 652.648 764.51 654.446C766.713 656.214 770.439 657.838 775.687 659.316C780.963 660.795 785.08 662.433 788.037 664.231C791.024 665.999 793.227 668.072 794.648 670.45C796.097 672.827 796.822 675.625 796.822 678.843C796.822 683.974 794.822 688.091 790.821 691.194C786.82 694.267 781.471 695.803 774.773 695.803C770.424 695.803 766.366 694.977 762.597 693.325C758.828 691.643 755.914 689.353 753.855 686.453C751.826 683.554 750.811 680.263 750.811 676.581H759.204C759.204 680.408 760.611 683.438 763.423 685.671C766.264 687.874 770.048 688.976 774.773 688.976C779.18 688.976 782.558 688.077 784.906 686.279C787.255 684.482 788.429 682.032 788.429 678.93C788.429 675.828 787.342 673.436 785.167 671.754C782.993 670.044 779.05 668.362 773.338 666.709ZM856.271 665.318C856.271 671.522 855.227 676.944 853.14 681.583C851.052 686.192 848.095 689.715 844.268 692.15C840.441 694.586 835.976 695.803 830.874 695.803C825.887 695.803 821.466 694.586 817.61 692.15C813.754 689.686 810.753 686.192 808.607 681.67C806.491 677.118 805.404 671.856 805.346 665.883V661.317C805.346 655.228 806.404 649.85 808.52 645.183C810.637 640.515 813.623 636.949 817.479 634.484C821.364 631.991 825.8 630.744 830.787 630.744C835.86 630.744 840.325 631.977 844.181 634.441C848.066 636.876 851.052 640.428 853.14 645.096C855.227 649.734 856.271 655.142 856.271 661.317V665.318ZM847.965 661.23C847.965 653.721 846.457 647.966 843.442 643.965C840.427 639.935 836.208 637.92 830.787 637.92C825.51 637.92 821.35 639.935 818.305 643.965C815.29 647.966 813.739 653.532 813.652 660.665V665.318C813.652 672.595 815.174 678.321 818.218 682.496C821.292 686.642 825.51 688.715 830.874 688.715C836.266 688.715 840.441 686.758 843.398 682.844C846.356 678.901 847.878 673.262 847.965 665.927V661.23ZM917.503 665.318C917.503 671.522 916.459 676.944 914.372 681.583C912.284 686.192 909.327 689.715 905.5 692.15C901.673 694.586 897.208 695.803 892.106 695.803C887.119 695.803 882.698 694.586 878.842 692.15C874.986 689.686 871.985 686.192 869.839 681.67C867.723 677.118 866.636 671.856 866.578 665.883V661.317C866.578 655.228 867.636 649.85 869.752 645.183C871.869 640.515 874.855 636.949 878.711 634.484C882.596 631.991 887.032 630.744 892.019 630.744C897.092 630.744 901.557 631.977 905.413 634.441C909.298 636.876 912.284 640.428 914.372 645.096C916.459 649.734 917.503 655.142 917.503 661.317V665.318ZM909.197 661.23C909.197 653.721 907.689 647.966 904.674 643.965C901.659 639.935 897.44 637.92 892.019 637.92C886.742 637.92 882.582 639.935 879.537 643.965C876.522 647.966 874.971 653.532 874.884 660.665V665.318C874.884 672.595 876.406 678.321 879.45 682.496C882.524 686.642 886.742 688.715 892.106 688.715C897.498 688.715 901.673 686.758 904.63 682.844C907.588 678.901 909.11 673.262 909.197 665.927V661.23ZM978.691 694.934H970.298L938.421 646.139V694.934H930.028V631.614H938.421L970.385 680.626V631.614H978.691V694.934Z" fill="#ffffff"/>
  <path d="M1829.81 981.217C1824.5 981.217 1820.2 976.919 1820.2 971.617C1820.2 966.315 1824.5 962.017 1829.81 962.017C1835.11 962.017 1839.41 966.315 1839.41 971.617C1839.41 976.919 1835.11 981.217 1829.81 981.217Z" fill="#0052CC"/>
  <path d="M1829.81 1038.27C1824.5 1038.27 1820.2 1033.97 1820.2 1028.67C1820.2 1023.36 1824.5 1019.07 1829.81 1019.07C1835.11 1019.07 1839.41 1023.36 1839.41 1028.67C1839.41 1033.97 1835.11 1038.27 1829.81 1038.27Z" fill="#0052CC"/>
  <path d="M1829.81 1095.32C1824.5 1095.32 1820.2 1091.02 1820.2 1085.72C1820.2 1080.41 1824.5 1076.12 1829.81 1076.12C1835.11 1076.12 1839.41 1080.41 1839.41 1085.72C1839.41 1091.02 1835.11 1095.32 1829.81 1095.32Z" fill="#0052CC"/>
  <path d="M1829.81 1152.37C1824.5 1152.37 1820.2 1148.07 1820.2 1142.77C1820.2 1137.47 1824.5 1133.17 1829.81 1133.17C1835.11 1133.17 1839.41 1137.47 1839.41 1142.77C1839.41 1148.07 1835.11 1152.37 1829.81 1152.37Z" fill="#0052CC"/>
  <path d="M1829.81 1209.42C1824.5 1209.42 1820.2 1205.12 1820.2 1199.82C1820.2 1194.51 1824.5 1190.22 1829.81 1190.22C1835.11 1190.22 1839.41 1194.51 1839.41 1199.82C1839.41 1205.12 1835.11 1209.42 1829.81 1209.42Z" fill="#0052CC"/>
  <path d="M1601.61 1209.42C1596.31 1209.42 1592.01 1205.12 1592.01 1199.82C1592.01 1194.51 1596.31 1190.22 1601.61 1190.22C1606.91 1190.22 1611.21 1194.51 1611.21 1199.82C1611.21 1205.12 1606.91 1209.42 1601.61 1209.42Z" fill="#0052CC"/>
  <path d="M1658.65 1209.42C1653.35 1209.42 1649.05 1205.12 1649.05 1199.82C1649.05 1194.51 1653.35 1190.22 1658.65 1190.22C1663.96 1190.22 1668.25 1194.51 1668.25 1199.82C1668.25 1205.12 1663.96 1209.42 1658.65 1209.42Z" fill="#0052CC"/>
  <path d="M1715.71 1209.42C1710.4 1209.42 1706.11 1205.12 1706.11 1199.82C1706.11 1194.51 1710.4 1190.22 1715.71 1190.22C1721.01 1190.22 1725.31 1194.51 1725.31 1199.82C1725.31 1205.12 1721.01 1209.42 1715.71 1209.42Z" fill="#0052CC"/>
  <path d="M1772.76 1209.42C1767.45 1209.42 1763.16 1205.12 1763.16 1199.82C1763.16 1194.51 1767.45 1190.22 1772.76 1190.22C1778.06 1190.22 1782.36 1194.51 1782.36 1199.82C1782.36 1205.12 1778.06 1209.42 1772.76 1209.42Z" fill="#0052CC"/>
  <path d="M1658.65 1152.37C1653.35 1152.37 1649.05 1148.07 1649.05 1142.77C1649.05 1137.47 1653.35 1133.17 1658.65 1133.17C1663.96 1133.17 1668.25 1137.47 1668.25 1142.77C1668.25 1148.07 1663.96 1152.37 1658.65 1152.37Z" fill="#0052CC"/>
  <path d="M1715.71 1152.37C1710.4 1152.37 1706.11 1148.07 1706.11 1142.77C1706.11 1137.47 1710.4 1133.17 1715.71 1133.17C1721.01 1133.17 1725.31 1137.47 1725.31 1142.77C1725.31 1148.07 1721.01 1152.37 1715.71 1152.37Z" fill="#0052CC"/>
  <path d="M1772.76 1152.37C1767.45 1152.37 1763.16 1148.07 1763.16 1142.77C1763.16 1137.47 1767.45 1133.17 1772.76 1133.17C1778.06 1133.17 1782.36 1137.47 1782.36 1142.77C1782.36 1148.07 1778.06 1152.37 1772.76 1152.37Z" fill="#0052CC"/>
  <path d="M1715.71 1095.32C1710.4 1095.32 1706.11 1091.02 1706.11 1085.72C1706.11 1080.41 1710.4 1076.12 1715.71 1076.12C1721.01 1076.12 1725.31 1080.41 1725.31 1085.72C1725.31 1091.02 1721.01 1095.32 1715.71 1095.32Z" fill="#0052CC"/>
  <path d="M1772.76 1095.32C1767.45 1095.32 1763.16 1091.02 1763.16 1085.72C1763.16 1080.41 1767.45 1076.12 1772.76 1076.12C1778.06 1076.12 1782.36 1080.41 1782.36 1085.72C1782.36 1091.02 1778.06 1095.32 1772.76 1095.32Z" fill="#0052CC"/>
  <path d="M1772.76 1038.27C1767.45 1038.27 1763.16 1033.97 1763.16 1028.67C1763.16 1023.36 1767.45 1019.07 1772.76 1019.07C1778.06 1019.07 1782.36 1023.36 1782.36 1028.67C1782.36 1033.97 1778.06 1038.27 1772.76 1038.27Z" fill="#0052CC"/>
  <path d="M10.1977 247.982C4.89769 247.982 0.597656 243.684 0.597656 238.382C0.597656 233.081 4.89769 228.782 10.1977 228.782C15.4997 228.782 19.7977 233.081 19.7977 238.382C19.7977 243.684 15.4997 247.982 10.1977 247.982Z" fill="#0052CC"/>
  <path d="M10.1977 190.93C4.89769 190.93 0.597656 186.631 0.597656 181.33C0.597656 176.028 4.89769 171.73 10.1977 171.73C15.4997 171.73 19.7977 176.028 19.7977 181.33C19.7977 186.631 15.4997 190.93 10.1977 190.93Z" fill="#0052CC"/>
  <path d="M10.1977 133.881C4.89769 133.881 0.597656 129.583 0.597656 124.281C0.597656 118.977 4.89769 114.681 10.1977 114.681C15.4997 114.681 19.7977 118.977 19.7977 124.281C19.7977 129.583 15.4997 133.881 10.1977 133.881Z" fill="#0052CC"/>
  <path d="M10.1977 76.8281C4.89769 76.8281 0.597656 72.5299 0.597656 67.2281C0.597656 61.9264 4.89769 57.6307 10.1977 57.6307C15.4997 57.6307 19.7977 61.9264 19.7977 67.2281C19.7977 72.5299 15.4997 76.8281 10.1977 76.8281Z" fill="#0052CC"/>
  <path d="M10.1977 19.7793C4.89769 19.7793 0.597656 15.4836 0.597656 10.1818C0.597656 4.87748 4.89769 0.581798 10.1977 0.581798C15.4997 0.581798 19.7977 4.87748 19.7977 10.1818C19.7977 15.4836 15.4997 19.7793 10.1977 19.7793Z" fill="#0052CC"/>
  <path d="M238.397 19.7793C233.095 19.7793 228.797 15.4836 228.797 10.1818C228.797 4.87748 233.095 0.581798 238.397 0.581798C243.699 0.581798 247.997 4.87748 247.997 10.1818C247.997 15.4836 243.699 19.7793 238.397 19.7793Z" fill="#0052CC"/>
  <path d="M181.346 19.7793C176.044 19.7793 171.746 15.4836 171.746 10.1818C171.746 4.87748 176.044 0.581798 181.346 0.581798C186.649 0.581798 190.946 4.87748 190.946 10.1818C190.946 15.4836 186.649 19.7793 181.346 19.7793Z" fill="#0052CC"/>
  <path d="M124.295 19.7793C118.993 19.7793 114.695 15.4836 114.695 10.1818C114.695 4.87748 118.993 0.581798 124.295 0.581798C129.597 0.581798 133.895 4.87748 133.895 10.1818C133.895 15.4836 129.597 19.7793 124.295 19.7793Z" fill="#0052CC"/>
  <path d="M67.2445 19.7793C61.9446 19.7793 57.6445 15.4836 57.6445 10.1818C57.6445 4.87748 61.9446 0.581798 67.2445 0.581798C72.5476 0.581798 76.8445 4.87748 76.8445 10.1818C76.8445 15.4836 72.5476 19.7793 67.2445 19.7793Z" fill="#0052CC"/>
  <path d="M181.346 76.8281C176.044 76.8281 171.746 72.5299 171.746 67.2281C171.746 61.9264 176.044 57.6307 181.346 57.6307C186.649 57.6307 190.946 61.9264 190.946 67.2281C190.946 72.5299 186.649 76.8281 181.346 76.8281Z" fill="#0052CC"/>
  <path d="M124.295 76.8281C118.993 76.8281 114.695 72.5299 114.695 67.2281C114.695 61.9264 118.993 57.6307 124.295 57.6307C129.597 57.6307 133.895 61.9264 133.895 67.2281C133.895 72.5299 129.597 76.8281 124.295 76.8281Z" fill="#0052CC"/>
  <path d="M67.2445 76.8281C61.9446 76.8281 57.6445 72.5299 57.6445 67.2281C57.6445 61.9264 61.9446 57.6307 67.2445 57.6307C72.5476 57.6307 76.8445 61.9264 76.8445 67.2281C76.8445 72.5299 72.5476 76.8281 67.2445 76.8281Z" fill="#0052CC"/>
  <path d="M124.295 133.881C118.993 133.881 114.695 129.583 114.695 124.281C114.695 118.977 118.993 114.681 124.295 114.681C129.597 114.681 133.895 118.977 133.895 124.281C133.895 129.583 129.597 133.881 124.295 133.881Z" fill="#0052CC"/>
  <path d="M67.2445 133.881C61.9446 133.881 57.6445 129.583 57.6445 124.281C57.6445 118.977 61.9446 114.681 67.2445 114.681C72.5476 114.681 76.8445 118.977 76.8445 124.281C76.8445 129.583 72.5476 133.881 67.2445 133.881Z" fill="#0052CC"/>
  <path d="M67.2445 190.93C61.9446 190.93 57.6445 186.631 57.6445 181.33C57.6445 176.028 61.9446 171.73 67.2445 171.73C72.5476 171.73 76.8445 176.028 76.8445 181.33C76.8445 186.631 72.5476 190.93 67.2445 190.93Z" fill="#0052CC"/>
</svg>
