<svg width="607" height="318" viewBox="0 0 607 318" fill="none" xmlns="http://www.w3.org/2000/svg">
<path fill-rule="evenodd" clip-rule="evenodd" d="M337.848 136.141L419.744 162.757L407.145 201.342L325.406 174.569L337.848 136.141Z" fill="#52C164"/>
<path fill-rule="evenodd" clip-rule="evenodd" d="M337.848 136.141L419.744 162.757L415.807 174.726L334.068 147.953L337.848 136.141Z" fill="#7DCF6D"/>
<path fill-rule="evenodd" clip-rule="evenodd" d="M363.677 102.279L447.936 119.919L439.588 159.607L355.329 141.81L363.677 102.279Z" fill="#FBC617"/>
<path fill-rule="evenodd" clip-rule="evenodd" d="M363.677 102.28L447.936 119.92L445.257 132.204L361.157 114.406L363.677 102.28Z" fill="#F9E448"/>
<path fill-rule="evenodd" clip-rule="evenodd" d="M269.024 165.749L312.335 180.238C314.067 180.869 316.113 178.978 317.059 176.144L368.401 21.9583C369.347 19.1236 368.716 16.289 366.984 15.8156L323.673 1.32759C321.941 0.69693 319.893 2.5876 318.949 5.42226L267.607 159.765C266.661 162.442 267.291 165.277 269.024 165.749Z" fill="#28292A"/>
<path fill-rule="evenodd" clip-rule="evenodd" d="M227.445 31.7232L359.424 75.8205L317.373 202.13L141.454 143.385C135.469 141.338 134.209 134.881 138.777 128.895L208.232 38.8099C212.641 32.8259 221.461 29.6752 227.445 31.7232Z" fill="#C2C3C1"/>
<path fill-rule="evenodd" clip-rule="evenodd" d="M227.445 31.7234L267.606 45.1101L225.713 171.419L141.454 143.385C135.469 141.338 134.209 134.881 138.777 128.895L208.232 38.8101C212.641 32.8261 221.461 29.6754 227.445 31.7234Z" fill="#DDDEDB"/>
<path fill-rule="evenodd" clip-rule="evenodd" d="M525.421 240.243C478.804 310.642 367.929 338.203 258.472 301.666C133.423 259.773 57.1958 150.158 88.2218 56.7645L129.643 70.4659C131.848 91.8845 148.857 114.406 167.441 120.706L298.317 164.331L299.735 164.962L525.421 240.243Z" fill="#575A5B"/>
<path fill-rule="evenodd" clip-rule="evenodd" d="M159.724 247.173C97.0415 194.886 66.6451 121.809 88.2216 56.7649L129.642 70.4662C131.848 91.8849 148.857 114.406 167.441 120.706L198.309 130.944L159.724 247.173Z" fill="#64686A"/>
<path fill-rule="evenodd" clip-rule="evenodd" d="M504.79 264.813C450.928 316.47 354.226 333.637 258.472 301.666C162.558 269.694 95.4664 197.721 83.3394 123.857L285.717 191.578L288.71 192.523L504.79 264.813Z" fill="#EF2C3D"/>
<path fill-rule="evenodd" clip-rule="evenodd" d="M159.724 247.173C118.145 212.368 90.7415 168.585 83.3394 123.857L189.017 159.293L159.724 247.173Z" fill="#EF3549"/>
<path fill-rule="evenodd" clip-rule="evenodd" d="M492.821 275.049C437.382 318.675 347.454 331.431 258.472 301.666C169.33 271.899 105.073 207.642 86.6467 139.448L282.725 204.965L285.245 205.753L492.821 275.049Z" fill="#28292A"/>
<path fill-rule="evenodd" clip-rule="evenodd" d="M159.724 247.173C122.87 216.462 97.1987 178.506 86.6467 139.448L184.765 172.206L159.724 247.173Z" fill="#3A3B3D"/>
<path fill-rule="evenodd" clip-rule="evenodd" d="M110.901 87.7901C116.256 89.5235 119.248 95.5075 117.359 100.862C115.625 106.217 109.799 109.21 104.287 107.477C98.9311 105.587 95.939 99.7595 97.8291 94.2475C99.5614 88.8928 105.389 85.9008 110.901 87.7901Z" fill="white"/>
<path fill-rule="evenodd" clip-rule="evenodd" d="M316.429 88.578L299.892 83.066C296.585 81.9633 292.805 83.8526 291.702 87.1606L286.977 101.493C285.876 104.957 287.765 108.579 291.072 109.682L307.609 115.194C310.917 116.297 314.538 114.406 315.641 111.099L320.366 96.7673C321.626 93.4607 319.736 89.6807 316.429 88.578Z" fill="#9AB8E4"/>
<path fill-rule="evenodd" clip-rule="evenodd" d="M181.772 73.1434L199.727 49.6768L277.213 75.5061C280.52 76.6088 282.411 80.3888 281.308 83.6954L276.425 98.0274C275.323 101.335 271.701 103.225 268.393 102.122L181.772 73.1434Z" fill="#9AB8E4"/>
<path fill-rule="evenodd" clip-rule="evenodd" d="M351.235 100.233L338.636 95.9793C335.328 94.878 331.548 96.7673 330.445 100.075L325.721 114.565C324.619 117.871 326.508 121.494 329.816 122.597L342.415 126.849L351.235 100.233Z" fill="#9AB8E4"/>
<path fill-rule="evenodd" clip-rule="evenodd" d="M308.397 47.4728L351.706 61.9621C353.282 62.4341 354.857 62.2768 355.172 61.4888L369.504 18.1781C369.818 17.3914 368.716 16.2888 366.984 15.8155L323.673 1.32745C321.941 0.696777 320.366 0.854092 320.209 1.64209L305.72 44.9528C305.561 45.7394 306.664 46.8421 308.397 47.4728Z" fill="#EF2C3D"/>
<path fill-rule="evenodd" clip-rule="evenodd" d="M314.224 29.8327L357.535 44.1647C359.267 44.7953 360.684 44.7953 360.841 44.322L369.819 17.706C369.976 17.234 368.716 16.2887 366.984 15.8153L323.673 1.32732C321.941 0.696651 320.524 0.696659 320.367 1.16866L311.547 27.786C311.232 28.4153 312.492 29.2033 314.224 29.8327Z" fill="#575A5B"/>
<path fill-rule="evenodd" clip-rule="evenodd" d="M482.584 147.638C494.868 147.638 504.948 157.717 504.948 170.159C504.948 182.601 494.868 192.681 482.584 192.681C470.141 192.681 460.062 182.601 460.062 170.159C460.062 157.717 470.141 147.638 482.584 147.638Z" fill="#F47233"/>
<path fill-rule="evenodd" clip-rule="evenodd" d="M480.378 146.378H484.63V194.413H480.378V146.378Z" fill="#EDF154"/>
<path fill-rule="evenodd" clip-rule="evenodd" d="M506.365 168.269V172.522H458.645V168.269H506.365Z" fill="#EDF154"/>
<path fill-rule="evenodd" clip-rule="evenodd" d="M482.584 161.025C487.624 161.025 491.719 165.119 491.719 170.159C491.719 175.199 487.624 179.294 482.584 179.294C477.544 179.294 473.449 175.199 473.449 170.159C473.449 165.119 477.544 161.025 482.584 161.025Z" fill="white"/>
<rect y="232" width="607" height="86" fill="#F8F8F8"/>
<path fill-rule="evenodd" clip-rule="evenodd" d="M558.337 264.654H536.604C534.87 264.654 533.453 266.073 533.453 267.805C533.453 269.537 534.87 270.797 536.604 270.797H558.337C560.07 270.797 561.488 269.537 561.488 267.805C561.488 266.073 560.07 264.654 558.337 264.654Z" fill="#9AB8E4"/>
<path fill-rule="evenodd" clip-rule="evenodd" d="M449.037 264.654H351.707C350.132 264.654 348.715 266.073 348.715 267.805C348.715 269.537 350.132 270.797 351.707 270.797H449.037C450.771 270.797 452.188 269.537 452.188 267.805C452.188 266.073 450.771 264.654 449.037 264.654Z" fill="#9AB8E4"/>
<path fill-rule="evenodd" clip-rule="evenodd" d="M313.595 264.654H268.079C266.347 264.654 264.929 266.073 264.929 267.805C264.929 269.537 266.347 270.797 268.079 270.797H313.595C315.327 270.797 316.744 269.537 316.744 267.805C316.744 266.073 315.327 264.654 313.595 264.654Z" fill="#9AB8E4"/>
<path fill-rule="evenodd" clip-rule="evenodd" d="M110.271 264.654H105.231C103.499 264.654 102.081 266.073 102.081 267.805C102.081 269.537 103.499 270.797 105.231 270.797H110.271C112.004 270.797 113.421 269.537 113.421 267.805C113.421 266.073 112.004 264.654 110.271 264.654Z" fill="#9AB8E4"/>
<path fill-rule="evenodd" clip-rule="evenodd" d="M151.376 284.971H131.689C129.957 284.971 128.54 286.389 128.54 288.121C128.54 289.854 129.957 291.271 131.689 291.271H151.376C153.109 291.271 154.526 289.854 154.526 288.121C154.526 286.389 153.109 284.971 151.376 284.971Z" fill="#9AB8E4"/>
<path fill-rule="evenodd" clip-rule="evenodd" d="M580.701 294.106H576.606C574.874 294.106 573.457 295.524 573.457 297.256C573.457 298.989 574.874 300.406 576.606 300.406H580.701C582.276 300.406 583.694 298.989 583.694 297.256C583.694 295.524 582.276 294.106 580.701 294.106Z" fill="#9AB8E4"/>
<path fill-rule="evenodd" clip-rule="evenodd" d="M371.709 300.878H326.193C324.461 300.878 323.044 302.296 323.044 304.028C323.044 305.761 324.461 307.178 326.193 307.178H371.709C373.441 307.178 374.859 305.761 374.859 304.028C374.859 302.296 373.441 300.878 371.709 300.878Z" fill="#9AB8E4"/>
<path fill-rule="evenodd" clip-rule="evenodd" d="M38.9264 294.106H34.8316C33.0993 294.106 31.6821 295.524 31.6821 297.256C31.6821 298.989 33.0993 300.406 34.8316 300.406H38.9264C40.5015 300.406 41.9192 298.989 41.9192 297.256C41.9192 295.524 40.5015 294.106 38.9264 294.106Z" fill="#9AB8E4"/>
</svg>
