<?xml version="1.0" standalone="no"?>
<!DOCTYPE svg PUBLIC "-//W3C//DTD SVG 20010904//EN"
 "http://www.w3.org/TR/2001/REC-SVG-20010904/DTD/svg10.dtd">
<svg version="1.0" xmlns="http://www.w3.org/2000/svg"
 width="512.000000pt" height="512.000000pt" viewBox="0 0 512.000000 512.000000"
 preserveAspectRatio="xMidYMid meet">
<metadata>
Created by potrace 1.14, written by Peter Selinger 2001-2017
</metadata>
<g transform="translate(0.000000,512.000000) scale(0.100000,-0.100000)"
fill="#000000" stroke="none">
<path d="M874 4347 c-61 -23 -104 -61 -131 -117 l-27 -54 0 -981 c0 -1112 -6
-1040 80 -1113 l44 -38 -44 -31 c-24 -17 -74 -71 -110 -120 -36 -48 -75 -99
-85 -113 -11 -14 -51 -68 -90 -120 -39 -52 -74 -99 -79 -105 -4 -5 -46 -62
-92 -125 -47 -63 -90 -122 -97 -130 -7 -8 -51 -66 -98 -129 l-85 -114 0 -96
c0 -56 5 -107 13 -121 6 -14 35 -36 62 -50 l50 -25 2365 0 c2553 0 2431 -3
2482 52 21 22 23 36 26 132 l4 108 -213 284 c-117 156 -215 286 -218 289 -3 3
-17 21 -31 40 -13 19 -28 40 -32 45 -5 6 -32 42 -60 80 -28 39 -54 72 -58 75
-3 3 -14 19 -24 35 -28 44 -76 93 -114 117 l-33 20 33 23 c19 13 47 43 64 67
l29 43 3 1004 2 1003 -22 45 c-27 55 -84 105 -135 121 -55 17 -3334 16 -3379
-1z m3352 -69 c4 -5 14 -8 22 -8 22 0 79 -65 85 -97 3 -16 6 -461 6 -990 l0
-961 -22 -43 c-15 -27 -37 -50 -61 -62 -38 -20 -59 -20 -1670 -21 -1203 -1
-1644 2 -1680 10 -51 12 -89 44 -106 89 -6 17 -10 383 -10 996 0 1034 -1 1009
48 1052 11 11 36 24 55 31 26 8 444 11 1680 11 905 0 1649 -3 1653 -7z m-39
-2282 c29 -8 68 -24 87 -35 22 -14 132 -151 307 -384 392 -519 399 -529 399
-543 0 -33 -88 -34 -2450 -32 -2460 3 -2402 2 -2386 44 5 13 173 242 186 254
3 3 23 30 45 60 22 30 42 57 45 60 3 3 47 61 98 130 51 69 98 132 105 140 7 8
46 60 87 115 122 162 128 167 225 191 78 19 3179 19 3252 0z m-1627 -1071
c1284 0 2356 4 2381 8 l46 9 0 -37 c0 -75 206 -69 -2422 -69 -2584 1 -2429 -3
-2431 59 0 43 3 46 49 38 23 -5 1093 -8 2377 -8z"/>
<path d="M932 4158 l-28 -8 1 -957 c1 -527 3 -961 3 -965 1 -5 744 -8 1651 -8
1307 0 1650 3 1658 13 11 14 12 1911 1 1922 -9 9 -3251 12 -3286 3z m3256
-967 l-3 -935 -1620 0 -1620 0 -3 925 c-1 508 0 929 2 934 2 7 523 11 1625 11
l1621 0 -2 -935z"/>
<path d="M2445 3889 c-228 -19 -420 -87 -587 -211 -70 -51 -88 -79 -68 -103
19 -22 29 -19 100 35 125 96 319 175 487 199 98 13 301 11 391 -6 162 -29 329
-98 439 -182 74 -57 91 -65 109 -50 27 22 15 48 -48 98 -105 84 -313 177 -434
195 -21 3 -59 10 -84 16 -59 12 -205 17 -305 9z"/>
<path d="M2421 3708 c-110 -12 -214 -43 -326 -98 -108 -53 -195 -120 -195
-150 0 -11 9 -24 19 -30 17 -8 31 -1 88 41 72 55 177 107 265 132 113 33 298
48 398 33 19 -3 51 -8 70 -10 119 -18 273 -84 375 -161 33 -25 62 -45 66 -45
3 0 14 9 23 19 17 19 17 21 -1 44 -38 52 -195 143 -309 181 -138 45 -312 62
-473 44z"/>
<path d="M2440 3533 c-134 -19 -288 -81 -377 -152 -39 -32 -51 -47 -48 -63 9
-44 37 -43 88 3 48 44 154 95 247 120 118 32 301 32 413 1 95 -27 176 -67 245
-121 44 -35 55 -40 72 -31 34 18 23 47 -32 91 -84 66 -204 118 -333 145 -35 7
-238 12 -275 7z"/>
<path d="M2515 3363 c-140 -14 -282 -67 -353 -132 -67 -62 -15 -112 54 -52 49
44 116 75 205 98 13 3 67 7 119 9 143 6 259 -30 359 -109 46 -37 71 -37 85 -2
12 33 -112 121 -224 159 -60 20 -183 34 -245 29z"/>
<path d="M2455 3175 c-131 -31 -238 -110 -204 -151 17 -21 34 -17 86 20 129
91 320 91 438 0 81 -61 134 -21 60 45 -93 81 -250 117 -380 86z"/>
<path d="M2545 2948 c-3 -7 -6 -73 -7 -146 l-3 -134 -30 31 c-43 45 -62 54
-69 35 -4 -10 15 -35 54 -75 33 -32 62 -59 66 -59 11 0 124 117 124 128 0 23
-20 21 -47 -5 -62 -61 -59 -66 -58 80 1 138 -1 157 -16 157 -5 0 -12 -6 -14
-12z"/>
<path d="M2120 2496 c-10 -13 -8 -16 12 -21 12 -3 214 -4 448 -3 370 3 425 5
425 18 0 22 -866 28 -885 6z"/>
<path d="M902 1891 c-13 -9 -77 -99 -203 -286 -62 -93 -116 -172 -119 -175
-24 -24 -60 -94 -52 -102 7 -7 3579 -15 4055 -8 25 0 37 4 37 15 0 11 -216
339 -257 390 -4 6 -30 44 -57 85 -28 41 -52 77 -54 80 -5 7 -3339 8 -3350 1z
m3381 -113 c115 -171 240 -354 264 -385 13 -18 20 -34 16 -34 -4 -1 -904 -3
-2000 -3 l-1991 -2 17 26 c10 14 78 113 151 220 73 107 144 210 157 228 l24
32 1653 0 1654 0 55 -82z"/>
</g>
</svg>
